<?xml version="1.0" encoding="utf-8"?>
<!-- Generator: Adobe Illustrator 25.0.0, SVG Export Plug-In . SVG Version: 6.00 Build 0)  -->
<svg version="1.1" id="ffb55883-6880-4c99-84fd-4a8eccb5f463"
	 xmlns="http://www.w3.org/2000/svg" xmlns:xlink="http://www.w3.org/1999/xlink" x="0px" y="0px" viewBox="0 0 623 444"
	 style="enable-background:new 0 0 623 444;" xml:space="preserve">
<style type="text/css">
	.st0{fill:#E6E6E6;}
	.st1{fill:#2F2E41;}
	.st2{fill:#FFB8B8;}
	.st3{fill:#D0CDE1;}
	.st4{fill:#3F3D56;}
	.st5{fill:#F15C68;}
	.st6{opacity:0.3;enable-background:new    ;}
</style>
<rect x="188.1" y="29.4" class="st0" width="395" height="197.5"/>
<path class="st0" d="M193.7,406l9.4-2.7c1.7-4.3,3.1-8.7,4.2-13.1l-4.4-0.2l4.8-1.4c1.4-5.5,2-9.3,2-9.3s-19,5.7-33.3,16.7
	l-1.8,12.4l-1.7-9.5c-1.6,1.4-3,2.9-4.4,4.4c-13.8,15.8-19.7,33.1-13.4,38.7s22.7-2.8,36.4-18.6c4.3-5.1,7.7-10.9,10.2-17.1
	L193.7,406z"/>
<path class="st0" d="M77.2,349.7l-5.3-21c-9.5-4-19.1-7.5-29-10.4l-0.7,9.8l-2.7-10.8c-12.2-3.5-20.5-5-20.5-5s11.2,42.7,34.8,75.3
	l27.4,4.8l-21.3,3.1c3,3.6,6.1,6.9,9.5,10.1c34.2,31.8,72.4,46.4,85.2,32.6s-4.6-50.7-38.8-82.5c-10.6-9.9-23.9-17.8-37.3-24
	L77.2,349.7z"/>
<path class="st0" d="M126,326.8l6.3-20.8c-6-8.3-12.5-16.3-19.4-23.9l-5.6,8l3.2-10.6c-8.7-9.3-15-14.9-15-14.9S83,307,86.3,347.1
	l21,18.3L87.5,357c0.7,4.6,1.7,9.1,2.9,13.6c12.9,44.9,38,77.1,56.1,71.9s22.3-45.8,9.4-90.7c-4-13.9-11.3-27.6-19.5-39.8L126,326.8
	z"/>
<polygon class="st1" points="185.9,125.3 139.6,126.4 133.4,71.2 185.9,71.2 "/>
<path class="st1" d="M136.9,196.8L120,314c0,0-14.6,41.7-15.8,62l-4.5,29.3l20.3,4.5l21.4-82.3l29.3-74.4l-3.4,85.6l-6.8,69.9
	l20.3,3.4l12.4-89l13.5-65.3c0,0,10.1-56.3-5.6-62L136.9,196.8z"/>
<path class="st1" d="M118.6,398.1l-2.3,27.4c0,0,24.1,14,16.4,16.7s-18.3-0.8-20.5-1.4c-2.3-0.6-6.6-1.7-9.8-2.5
	c-3.1-0.7-5.3-3.3-5.6-6.5l0-0.1c-0.2-3.4,7.4-32.7,7.4-32.7L118.6,398.1z"/>
<path class="st1" d="M177.2,398.8l1.9,26.2c0,0,27.5,10.2,20.4,14.3s-18.2,2.7-20.4,2.6c-4.1-0.3-14.4-0.7-14.4-0.7
	s-1.9,1.6-2.7-1.6s1.1-32.5,1.1-32.5L177.2,398.8z"/>
<circle class="st2" cx="160.6" cy="80.8" r="21.4"/>
<polygon class="st2" points="148.2,93.2 143.7,118 162.8,127 167.3,95.4 "/>
<path class="st2" d="M145.9,210.3l23.7,16.9c0,0,10.1,25.9,18,21.4s-9-27-9-27l-19.2-19.2L145.9,210.3z"/>
<path class="st2" d="M213.5,202.5l2.3,13.5c0,0-5.6,28.2-12.4,22.5s2.3-23.7,2.3-23.7l-1.1-11.3L213.5,202.5z"/>
<path class="st3" d="M160.6,120.2l-2.3-9l-13.5-6.8l-4.5,5.6l-14.6,4.5l16.9,90.1c0,0,57.5,3.4,58.6-5.6s-11.3-33.8-11.3-33.8
	s3.4-12.4,2.3-19.2l-4.5-27l-18-5.6l-4.1-5l-3.8,6.1L160.6,120.2z"/>
<path class="st3" d="M129,116.8l-3.4-2.3c0,0-6.8,1.1-9,10.1s0,49.6,5.6,57.5s21.4,31.5,21.4,31.5l21.4-10.1l-22.5-25.9l-5.6-32.7
	L129,116.8z"/>
<path class="st3" d="M178.6,121.3l9-2.3c0,0,5.6,2.3,7.9,10.1s14.6,47.3,13.5,50.7s10.1,25.9,10.1,25.9l-15.8,1.1l-9-23.7l-9-23.7
	L178.6,121.3z"/>
<path class="st1" d="M123.5,101.1c4.5-2.5,6.6-8,6.8-13.2c0.1-5.1-1.1-10.2-1.2-15.4c-0.1-1.1,0-2.1,0.3-3.1c0.4-1.3,1-2.5,1.7-3.6
	c5.9-9,16.1-15.3,26.8-15.4c1.6,0,3.1,0.3,4.5,0.8c1.1,0.4,1.5,0.4,1.7,1.8c2.5-0.8,5.3-0.8,7.8,0.2c2.5,1,4.8,2.4,6.8,4.1
	c1.2,0.9,2.4,1.9,3.4,3c5.7,5.9,7,15,5.3,23c-0.5,2.6,2,5.1,4.2,6.7s4.6,3.1,5.6,5.5c1,2.4,0.5,5,0.7,7.6c0.5,4.9,3.7,9.1,8.3,10.9
	c-0.9,1.1-2.4,1.6-3.9,1.4c-1.5-0.3-2.8-1-4-1.9c-4.4-3.3-7.5-7.9-8.9-13.2c-0.6,2.8-0.4,5.8-0.4,8.7c-0.1,3.2,0.5,6.5,1.8,9.5
	c1.2,3,3.5,5.5,6.4,7c-2.8,1.4-5.9,0.4-8.2-1.6c-2.3-2.1-3.9-4.9-4.7-7.9c-1.6-4.8-2.2-9.9-1.9-14.9c-2.6,4.4-3.5,9.5-2.7,14.5
	c0.9,5.1,3.6,9.7,7.5,13.1c-6.9-0.1-13.7-1.8-19.8-5c-1.6-0.7-3-1.8-4.1-3.1c-2-2.7-1.5-6.4-0.9-9.8c0.4-2.6-2.8-6.4-1-8.3
	c0.6-0.6,1.3-0.9,2.1-0.9c5.7-0.4,10.9-3.5,14-8.3c2.2-3.2,3.4-7,3.5-10.9c0-11-8.9-19.9-19.9-19.9c-11,0-19.9,8.9-19.9,19.9
	c0,2,0.3,4,0.9,5.9c0.7,2.2,1.2,4.5,1.4,6.7c0.3,2.7,0.9,5.3,1.6,7.8c1.4,4.9,3.8,10,8.3,12.6c-1.6,0.7-3.2,1-4.9,1
	c-5.6,0.6-11.4,0.5-16.5-2C127.1,111.9,123.1,106.7,123.5,101.1z"/>
<path class="st1" d="M135.6,79.3c16-6.4,31.8-7.8,47.2,0V66.3c0-4.7-3.8-8.4-8.4-8.4h-32.1c-3.7,0-6.7,3-6.7,6.7l0,0V79.3z"/>
<ellipse class="st2" cx="140.6" cy="83.5" rx="2.4" ry="3.8"/>
<path class="st4" d="M617.5,199.5h-397V0h397V199.5z M222.5,197.5h393V2h-393L222.5,197.5z"/>
<path class="st5" d="M417.8,162.3c0,8.9-7.2,16.1-16.2,16.1c-8.9,0-16.1-7.2-16.1-16.1c0-8.9,7.2-16.1,16.1-16.1
	C410.6,146.1,417.8,153.3,417.8,162.3C417.8,162.2,417.8,162.3,417.8,162.3z"/>
<path class="st6" d="M417.8,162.3c0,8.9-7.2,16.1-16.2,16.1c-8.9,0-16.1-7.2-16.1-16.1c0-8.9,7.2-16.1,16.1-16.1
	C410.6,146.1,417.8,153.3,417.8,162.3C417.8,162.2,417.8,162.3,417.8,162.3z"/>
<path class="st5" d="M447.1,80.9c0,5.3-1.1,10.5-3.2,15.3c-0.9,2.1-2,4.1-3.3,6c-2.6,3.8-5.8,7.3-9.4,10.2c-0.6,0.5-1.3,1.1-2.2,1.8
	c-1.1,0.9-2.4,1.7-3.9,2.7c-2.6,1.7-5.1,3.5-7.4,5.4c-1.4,1.1-2.6,2.4-3.6,3.9c-1.2,2.1-1.9,6.3-1.9,12.4v1h-27v-4.7
	c0-3.7,0.1-6.7,0.3-9.4c0.1-2.4,0.4-4.8,0.8-7.2c0.3-2.1,0.9-4.2,1.9-6c1.8-3,6-7,13-12.3c0.3-0.2,0.6-0.5,0.9-0.7
	c0.3-0.2,0.6-0.4,0.9-0.6c2.4-1.7,4.7-3.7,6.7-5.9c0.6-0.7,1.1-1.4,1.6-2.2l0.1-0.2c1.6-2.8,2.3-5.9,2.2-9.1c0-0.8,0-1.6-0.2-2.4
	c-0.3-3.1-1.8-6-4.1-8.1c-2.5-2.3-5.7-3.6-9.1-3.8c-0.4,0-0.8,0-1.2,0c-1.6,0-3.2,0.2-4.7,0.6c-2.9,0.7-5.5,2.3-7.4,4.6
	c-1,1.2-1.9,2.5-2.6,4c-2.4,5.5-3.9,11.2-4.5,17.1l-0.1,1l-25.4-6.8V76.2c0.1-0.5,0.2-0.9,0.4-1.3c1.6-5.6,4.2-10.9,7.6-15.6
	c1.5-2,3.1-3.9,4.9-5.6c0.4-0.4,0.9-0.9,1.4-1.3c3.1-2.7,6.4-4.9,10.1-6.6l0.3-0.1c6.9-3.2,14.4-4.8,22-4.7c0.8,0,1.7,0,2.6,0.1
	c7.6,0.2,15,2.1,21.7,5.5c3,1.6,5.8,3.5,8.4,5.7c7.2,5.9,11.9,14.4,13,23.7C447,77.5,447.1,79.2,447.1,80.9z"/>
<path class="st6" d="M447.1,80.9c0,5.3-1.1,10.5-3.2,15.3c-0.9,2.1-2,4.1-3.3,6c-2.6,3.8-5.8,7.3-9.4,10.2c-0.6,0.5-1.3,1.1-2.2,1.8
	c-1.1,0.9-2.4,1.7-3.9,2.7c-2.6,1.7-5.1,3.5-7.4,5.4c-1.4,1.1-2.6,2.4-3.6,3.9c-1.2,2.1-1.9,6.3-1.9,12.4v1h-27v-4.7
	c0-3.7,0.1-6.7,0.3-9.4c0.1-2.4,0.4-4.8,0.8-7.2c0.3-2.1,0.9-4.2,1.9-6c1.8-3,6-7,13-12.3c0.3-0.2,0.6-0.5,0.9-0.7
	c0.3-0.2,0.6-0.4,0.9-0.6c2.4-1.7,4.7-3.7,6.7-5.9c0.6-0.7,1.1-1.4,1.6-2.2l0.1-0.2c1.6-2.8,2.3-5.9,2.2-9.1c0-0.8,0-1.6-0.2-2.4
	c-0.3-3.1-1.8-6-4.1-8.1c-2.5-2.3-5.7-3.6-9.1-3.8c-0.4,0-0.8,0-1.2,0c-1.6,0-3.2,0.2-4.7,0.6c-2.9,0.7-5.5,2.3-7.4,4.6
	c-1,1.2-1.9,2.5-2.6,4c-2.4,5.5-3.9,11.2-4.5,17.1l-0.1,1l-25.4-6.8V76.2c0.1-0.5,0.2-0.9,0.4-1.3c1.6-5.6,4.2-10.9,7.6-15.6
	c1.5-2,3.1-3.9,4.9-5.6c0.4-0.4,0.9-0.9,1.4-1.3c3.1-2.7,6.4-4.9,10.1-6.6l0.3-0.1c6.9-3.2,14.4-4.8,22-4.7c0.8,0,1.7,0,2.6,0.1
	c7.6,0.2,15,2.1,21.7,5.5c3,1.6,5.8,3.5,8.4,5.7c7.2,5.9,11.9,14.4,13,23.7C447,77.5,447.1,79.2,447.1,80.9z"/>
<path class="st5" d="M406.8,162.3c0,8.9-7.2,16.1-16.2,16.1c-8.9,0-16.1-7.2-16.1-16.1c0-8.9,7.2-16.1,16.1-16.1
	C399.6,146.1,406.8,153.3,406.8,162.3C406.8,162.2,406.8,162.3,406.8,162.3z"/>
<path class="st5" d="M436.1,80.9c0,5.3-1.1,10.5-3.2,15.3c-0.9,2.1-2,4.1-3.3,6c-2.6,3.8-5.8,7.3-9.4,10.2c-0.6,0.5-1.3,1.1-2.2,1.8
	c-1.1,0.9-2.4,1.7-3.9,2.7c-2.6,1.7-5.1,3.5-7.4,5.4c-1.4,1.1-2.6,2.4-3.6,3.9c-1.2,2.1-1.9,6.3-1.9,12.4v1h-27v-4.7
	c0-3.7,0.1-6.7,0.3-9.4c0.1-2.4,0.4-4.8,0.8-7.2c0.3-2.1,0.9-4.2,1.9-6c1.8-3,6-7,13-12.3c0.3-0.2,0.6-0.5,0.9-0.7
	c0.3-0.2,0.6-0.4,0.9-0.6c2.4-1.7,4.7-3.7,6.7-5.9c0.6-0.7,1.1-1.4,1.6-2.2l0.1-0.2c1.6-2.8,2.3-5.9,2.2-9.1c0-0.8,0-1.6-0.2-2.4
	c-0.3-3.1-1.8-6-4.1-8.1c-2.5-2.3-5.7-3.6-9.1-3.8c-0.4,0-0.8,0-1.2,0c-1.6,0-3.2,0.2-4.7,0.6c-2.9,0.7-5.5,2.3-7.4,4.6
	c-1,1.2-1.9,2.5-2.6,4c-1.8,3.6-3,8.4-3.5,14.1l-0.1,1L341.1,87l0.1-1c0.5-3.8,1.3-7.6,2.4-11.2c1.6-5.6,4.2-10.9,7.6-15.6
	c1.5-2,3.1-3.9,4.9-5.6c0.4-0.4,0.9-0.9,1.4-1.3c3.1-2.7,6.4-4.9,10.1-6.6l0.3-0.1c6.9-3.2,14.4-4.8,22-4.7c0.8,0,1.7,0,2.6,0.1
	c7.6,0.2,15,2.1,21.7,5.5c3,1.6,5.8,3.5,8.4,5.7c7.2,5.9,11.9,14.4,13,23.7C436,77.5,436.1,79.2,436.1,80.9z"/>
</svg>
