<?xml version="1.0" encoding="UTF-8"?>
<svg width="552px" height="630px" viewBox="0 0 552 630" version="1.1" xmlns="http://www.w3.org/2000/svg" xmlns:xlink="http://www.w3.org/1999/xlink">
    <title>choices-monochrome</title>
    <defs>
        <linearGradient x1="83.4346%" y1="7.33906021%" x2="26.9358384%" y2="77.8223557%" id="linearGradient-1">
            <stop stop-color="#F85866" stop-opacity="0" offset="0%"></stop>
            <stop stop-color="#F85866" stop-opacity="0.16" offset="100%"></stop>
        </linearGradient>
        <linearGradient x1="42.5535733%" y1="-57.147752%" x2="59.9072662%" y2="117.085937%" id="linearGradient-2">
            <stop stop-color="#B12430" offset="0%"></stop>
            <stop stop-color="#D8424F" offset="100%"></stop>
        </linearGradient>
    </defs>
    <g id="Web" stroke="none" stroke-width="1" fill="none" fill-rule="evenodd">
        <g id="1.-Landing-page_desktop" transform="translate(0.000000, -3227.000000)">
            <g id="choices-monochrome" transform="translate(0.000000, 3228.000000)">
                <g id="Vector">
                    <path d="M551.685387,231.773468 C549.772391,166.817239 507.429495,100.868822 450.0967,76.8207407 C392.663973,52.8868687 320.391246,70.8319192 248.596768,71.4315152 C239.517172,71.5100337 230.444714,71.3030303 221.42936,70.9461279 L215.347744,75.4074074 L205.775623,81.8316498 L204.348013,71.0389226 L204.676364,70.1181145 L203.548552,70.0538721 C207.76,82.616835 202.520673,101.232862 202.520673,108.356633 C202.495597,109.71399 202.015484,111.023616 201.157306,112.075556 L202.249428,111.361751 L202.784781,107.749899 L204.14101,97.8922559 L204.997576,92.7814141 L211.650236,97.4282828 L223.585051,114.438249 L225.619394,118.649697 C242.750707,129.835017 257.740606,157.537778 257.740606,162.0633 C257.740606,163.08404 256.712727,164.675825 254.98532,166.603098 C257.183838,169.458316 265.54963,181.757172 266.805926,184.555286 C269.525522,182.235421 356.859529,109.020471 358.294276,108.028283 C359.729024,107.036094 362.213064,107.114613 363.183838,107.771313 C364.813967,108.83995 365.387381,110.958821 364.518653,112.703704 C363.747744,114.131313 352.890774,123.68202 352.890774,123.68202 C353.775892,124.781279 358.308552,136.273535 352.50532,141.669899 C348.55798,145.345993 344.082424,146.566599 339.778182,144.2967 C336.922963,147.380337 268.668956,222.815219 256.762694,222.815219 C254.557037,222.815219 250.188552,219.695892 245.213333,215.020471 L248.318384,218.803636 C249.424781,232.772795 249.174949,242.780337 247.604579,244.900337 C238.617778,256.87798 174.318249,266.521481 147.671919,247.427205 C145.609024,245.956768 143.90303,238.768754 142.98936,228.247273 C129.641212,221.337643 121.832189,214.991919 120.861414,203.62101 C120.247542,196.154613 128.377778,177.210236 129.669764,175.318653 C127.892391,174.126599 126.628956,173.06303 126.143569,172.227879 C123.167003,167.195556 138.478114,139.721212 156.530236,125.773468 L156.023434,128.000539 C157.997455,123.092051 160.333261,118.336933 163.011582,113.774411 C156.872862,109.919865 153.018316,104.716229 153.018316,97.0356902 C153.018316,90.8969697 156.380337,79.7544781 158.536027,67.3913805 C120.440269,65.5569024 86.0348822,66.4777104 60.0309764,81.3819529 C14.4331313,107.450101 -5.43205387,176.367946 1.27057239,235.478114 C7.85185185,294.723906 40.8724579,344.369024 71.1449158,394.506667 C101.424512,444.758519 128.706128,495.609966 174.054141,523.70532 C219.523502,551.943434 282.937912,557.568215 336.301953,537.346128 C389.551785,517.12404 432.865455,471.055084 473.787879,415.999327 C514.83165,360.879327 553.484175,296.86532 551.685387,231.773468 Z" id="Path" fill="url(#linearGradient-1)" fill-rule="nonzero"></path>
                    <path d="M143.053603,182.399596 L143.553266,182.670842 C143.553266,182.392458 143.603232,182.106936 143.631785,181.828552 L143.474747,182.585185 L143.053603,182.399596 Z" id="Path" fill="#F2F2F2" fill-rule="nonzero"></path>
                    <path d="M170.435152,117.222088 L182.569832,118.399865 L192.191919,116.850909 L194.333333,115.380471 C190.266802,116.997627 185.939201,117.858793 181.563367,117.921616 C173.947071,117.921616 167.55138,116.272727 162.768889,113.267609 L163.56835,114.238384 L170.435152,117.222088 Z" id="Path" fill="#F2F2F2" fill-rule="nonzero"></path>
                    <path d="M147.700471,245.999596 C148.164444,255.357576 147.700471,609.832997 147.700471,609.832997 L172.433805,609.832997 L210.265455,376.882828" id="Path" fill="#D8424F" fill-rule="nonzero"></path>
                    <path d="M129.734007,174.883232 C128.44202,176.760539 120.311785,195.72633 120.925657,203.192727 C121.867879,214.613603 129.705455,220.930774 143.110707,227.861818" id="Path" stroke="#000000" stroke-width="2.5" stroke-linecap="round" stroke-linejoin="round"></path>
                    <path d="M156.615892,125.352323 C138.563771,139.300067 123.25266,166.752997 126.222088,171.806734 C127.649697,174.169428 135.09468,178.380875 143.581818,182.206869" id="Path" stroke="#000000" stroke-width="2.5" stroke-linecap="round"></path>
                    <path d="M225.298182,16.2758249 C231.308418,25.2340741 233.52835,37.9897643 230.344781,51.0167003 C226.661549,66.0779798 216.725387,77.4988552 205.27596,81.560404" id="Path" stroke="#000000" stroke-width="2.5" stroke-linecap="round"></path>
                    <path d="M248.40404,217.376027 C249.510438,231.345185 249.260606,241.352727 247.690236,243.472727 C238.710572,255.45037 174.411044,265.093872 147.757576,245.999596 C140.034209,240.474747 137.25037,154.968081 162.847407,113.231919" id="Path" stroke="#000000" stroke-width="2.5" stroke-linecap="round"></path>
                    <path d="M204.447946,92.1389899 C212.628148,95.5938047 219.666263,105.165926 225.590842,117.921616" id="Path" stroke="#000000" stroke-width="2.5" stroke-linecap="round"></path>
                    <polyline id="Path" stroke="#000000" stroke-width="2.5" stroke-linecap="round" points="147.700471 609.832997 147.700471 626.842963 205.797037 626.842963 205.797037 617.235152 172.433805 609.832997"></polyline>
                    <polyline id="Path" stroke="#000000" stroke-width="2.5" stroke-linecap="round" points="205.797037 606.799327 205.797037 626.842963 266.641751 626.842963 266.641751 619.048215 229.630976 606.799327"></polyline>
                    <path d="M254.628418,165.675152 C255.749091,166.874343 265.513939,181.114747 266.877306,184.155556 C269.596902,181.83569 356.930909,108.613603 358.365657,107.621414 C359.800404,106.629226 362.284444,106.714882 363.255219,107.371582 C364.8843,108.437631 365.457888,110.55408 364.590034,112.296835 C363.819125,113.724444 352.962155,123.275152 352.962155,123.275152 C353.847273,124.381549 358.372795,135.873805 352.5767,141.270168 C348.622222,144.946263 344.153805,146.166869 339.842424,143.889832 C336.987205,146.980606 268.740337,222.40835 256.834074,222.40835 C251.323502,222.40835 232.414815,203.014276 223.899125,188.402694" id="Path" stroke="#000000" stroke-width="2.5" stroke-linecap="round" stroke-linejoin="round"></path>
                    <path d="M194.283367,133.539663 C194.283367,157.095219 212.84229,189.930236 219.266532,189.930236 C225.690774,189.930236 257.811987,166.37468 257.811987,160.664242 C257.811987,154.953805 232.828822,112.839327 211.41468,112.839327 C202.849024,112.839327 194.283367,122.118788 194.283367,133.539663 Z" id="Path" stroke="#000000" stroke-width="2.5" stroke-linecap="round"></path>
                    <path d="M192.149091,39.3245791 C204.455084,39.4173737 226.797172,15.2764983 226.797172,14.3414141 C226.797172,12.2 222.999731,0.886195286 200.964579,0.886195286 C185.225185,0.886195286 160.456162,11.9073401 160.456162,48.1043771 C160.456162,66.7418182 153.168215,86.6498316 153.168215,95.643771 C153.168215,109.313131 164.18936,117.928754 181.584781,117.928754 C189.986263,117.928754 202.620606,113.788687 202.620606,106.993266 C202.620606,97.0571044 212.813737,64.7717172 193.341145,57.7407407" id="Path" stroke="#F15C68" stroke-width="2.5" stroke-linecap="round"></path>
                    <path d="M195.582492,56.7556902 C194.418658,57.5146925 193.06029,57.9212116 191.670842,57.92633 C187.223838,57.92633 183.619125,53.7577104 183.619125,48.6111785 C183.619125,43.4646465 187.223838,39.3317144 191.670842,39.3317144 C192.501007,39.3309811 193.324861,39.4759407 194.104916,39.76" id="Path" stroke="#000000" stroke-width="2.5" stroke-linecap="round"></path>
                    <path d="M147.700471,245.999596 C149.872305,247.101838 151.976955,248.331735 154.003367,249.682828 L162.747475,253.88 L163.960943,258.462626 L213.506128,372.614276 L210.294007,376.897104" id="Path" fill="url(#linearGradient-2)" fill-rule="nonzero"></path>
                    <path d="M247.690236,243.472727 C239.59569,254.265455 186.574276,263.159461 156.651582,250.839192 L226.083367,413.957845 L205.797037,606.799327 L229.630976,606.799327 C229.630976,606.799327 276.028283,439.52633 276.028283,432.159865 C276.028283,424.793401 247.690236,243.472727 247.690236,243.472727 Z" id="Path" fill="#D8424F" fill-rule="nonzero"></path>
                </g>
            </g>
        </g>
    </g>
</svg>