<?xml version="1.0" encoding="utf-8"?>
<!-- Generator: Adobe Illustrator 24.2.3, SVG Export Plug-In . SVG Version: 6.00 Build 0)  -->
<svg version="1.1" id="a11d453a-83a5-491b-94b4-3bbd3d308a29"
	 xmlns="http://www.w3.org/2000/svg" xmlns:xlink="http://www.w3.org/1999/xlink" x="0px" y="0px" viewBox="0 0 642 771.9"
	 style="enable-background:new 0 0 642 771.9;" xml:space="preserve">
<style type="text/css">
	.st0{fill:#F2F2F2;}
	.st1{fill:#57B894;}
	.st2{fill:none;stroke:#3F3D56;stroke-miterlimit:10;}
	.st3{fill:#F15C68;}
	.st4{opacity:0.1;enable-background:new    ;}
	.st5{fill:#FF6584;}
	.st6{fill:#FBBEBE;}
	.st7{fill:#2F2E41;}
</style>
<ellipse class="st0" cx="341.6" cy="703.7" rx="293.1" ry="41.4"/>
<path class="st1" d="M282.7,557.1c10.4,3.8,21.9-1.6,25.7-12c3.8-10.4-1.6-21.9-12-25.7c-3.5-1.3-7.4-1.5-11-0.8l0.5,10.3l-4.9-8.8
	c-4.8,2.3-8.5,6.3-10.3,11.3c-0.6,1.7-1,3.6-1.2,5.4C268.9,545.8,274.3,554.1,282.7,557.1z"/>
<path class="st2" d="M306.8,676.8c-1.7-8.8,5.7-16.6,13.1-21.6c7.4-5.1,16-10,18.5-18.6c3.6-12.3-7.2-23.6-15.5-33.4
	c-6.2-7.2-11.6-15.2-15.9-23.7c-1.7-3.4-3.3-7-3.8-10.8c-0.7-5.5,1.1-10.9,2.9-16.1c5.9-17.4,12.2-34.6,18.9-51.7"/>
<path class="st2" d="M283.5,554.5c10.4,3.8,21.9-1.6,25.7-12c3.8-10.4-1.6-21.9-12-25.7c-3.5-1.3-7.4-1.5-11-0.8l0.5,10.3l-4.9-8.8
	c-4.8,2.3-8.5,6.3-10.3,11.3c-0.6,1.7-1,3.6-1.2,5.4C269.7,543.1,275.1,551.4,283.5,554.5z"/>
<path class="st1" d="M304.4,497.4c2.3-6.4,7.8-11.2,14.4-12.7l1.7,9.8l3.1-10.3c11.1,0.2,19.9,9.3,19.7,20.3
	c-0.2,11.1-9.3,19.9-20.3,19.7c-11.1-0.2-19.9-9.3-19.7-20.3C303.2,501.8,303.6,499.5,304.4,497.4L304.4,497.4z"/>
<path class="st2" d="M305.5,493.9c2.3-6.4,7.8-11.2,14.4-12.7l1.7,9.8l3.1-10.3c11.1,0.2,19.9,9.3,19.7,20.3
	c-0.2,11.1-9.3,19.9-20.3,19.7c-11.1-0.2-19.9-9.3-19.7-20.3C304.3,498.2,304.7,496,305.5,493.9z"/>
<path class="st1" d="M319.4,603.4c10.4,3.8,21.9-1.6,25.7-12c3.2-8.8-0.1-18.6-7.9-23.7l-2.4,7.9l-1.7-9.9c0,0,0,0-0.1,0
	c-10.4-3.8-21.9,1.6-25.7,12C303.6,588.1,309,599.6,319.4,603.4C319.4,603.4,319.4,603.4,319.4,603.4L319.4,603.4z"/>
<path class="st2" d="M320.4,599.8c10.4,3.8,21.9-1.6,25.7-12c3.2-8.8-0.1-18.6-7.9-23.7l-2.4,7.9l-1.7-9.9c0,0,0,0-0.1,0
	c-10.4-3.8-21.9,1.6-25.7,12C304.6,584.6,310,596.1,320.4,599.8L320.4,599.8z"/>
<path class="st1" d="M298.5,636.7c1.9,10.9,12.3,18.2,23.2,16.3c10.9-1.9,18.2-12.3,16.3-23.2s-12.3-18.2-23.2-16.3
	c-4.9,0.9-9.4,3.5-12.4,7.5l8.9,13.4l-12.2-7.1C298.2,630.4,298,633.6,298.5,636.7z"/>
<path class="st2" d="M299.4,634.1c1.9,10.9,12.3,18.2,23.2,16.3s18.2-12.3,16.3-23.2s-12.3-18.2-23.2-16.3
	c-4.9,0.9-9.4,3.5-12.4,7.5l8.9,13.4l-12.2-7.1C299,627.7,298.8,630.9,299.4,634.1z"/>
<path class="st3" d="M307.2,211.1c0,0,101.3,50.3,119.4,43.3c18.2-7,24.4-69.1,24.4-69.1l-74.7-14L307.2,211.1z"/>
<path class="st4" d="M307.2,211.1c0,0,101.3,50.3,119.4,43.3c18.2-7,24.4-69.1,24.4-69.1l-74.7-14L307.2,211.1z"/>
<rect x="450.7" y="136" class="st5" width="66.3" height="58"/>
<rect x="450.7" y="136" class="st4" width="66.3" height="58"/>
<path class="st6" d="M390.3,382.9c0,0-2.8,60.8,16.1,59.4c18.9-1.4,0-57.3,0-57.3L390.3,382.9z"/>
<path class="st6" d="M467.8,144.8c0,0,4.2,26.5-3.5,30c-7.7,3.5-12.6,6.3-12.6,6.3l17.5,11.9l32.1,2.1l8.4-6.3l7.7-7
	c0,0-12.6-2.8-12.6-9.1c0-6.3-0.7-25.1-0.7-25.1L467.8,144.8z"/>
<path class="st4" d="M467.8,144.8c0,0,4.2,26.5-3.5,30c-7.7,3.5-12.6,6.3-12.6,6.3l17.5,11.9l32.1,2.1l8.4-6.3l7.7-7
	c0,0-12.6-2.8-12.6-9.1c0-6.3-0.7-25.1-0.7-25.1L467.8,144.8z"/>
<path class="st6" d="M423.8,393.4c0,0-20.3,64.9-20.3,112.4c0,0-33.5,75.4-32.1,112.4l-8.4,51l11.9,4.2l9.1-7.7
	c0,0,2.8-27.2,11.9-40.5c9.1-13.3,30-76.1,30-76.1s55.9-117.3,53.8-134.1C477.6,398.2,423.8,393.4,423.8,393.4z"/>
<path class="st6" d="M552.2,378.7c0,0,13.3,6.3-5.6,118c0,0,10.5,74,1.4,114.5l-1.4,40.5H532l-2.8-4.2c0,0-0.7-36.3-5.6-46.1
	s-9.1-66.3-9.1-66.3s-22.3-115.2-17.5-125S552.2,378.7,552.2,378.7z"/>
<path class="st7" d="M361,657.3c0,0,4.9,11.2,14,8.4s11.2-2.8,11.2-2.8s-6.3,32.1-4.2,47.5c2.1,15.4-1.4,25.1-15.4,25.1
	c-14,0-16.1-16.8-16.1-16.8l6.3-39.8L361,657.3z"/>
<path class="st7" d="M526.4,639.9c0,0,4.9,9.8,12.6,7.7c7.7-2.1,10.5-5.6,10.5-5.6s-0.7,21.6,2.1,31.4c2.8,9.8,9.1,37.7-5.6,39.1
	c-8.3,1-16.2-3.5-19.6-11.2V639.9z"/>
<ellipse transform="matrix(0.1735 -0.9848 0.9848 0.1735 272.0552 588.5461)" class="st6" cx="486.7" cy="132.2" rx="30.7" ry="30.7"/>
<path class="st7" d="M543.2,187.4c0,0-24.3-9.6-33.1-8.3c-7.6,6.5-17.7,9.5-27.6,8.3c-16.8-2.1-23.3-10.1-23.3-10.1
	s-45.1,10.1-42.3,14.3c2.8,4.2,15.4,72.6,15.4,72.6s8.4,59.4-1.4,79.6s-14.7,53.8-10.5,56.6c4.2,2.8,51,15.4,56.6,18.9
	s7.7-8.4,11.2-6.3c3.5,2.1,11.2,5.6,16.1,2.8c4.9-2.8,52.4-27.9,51-32.8c-1.4-4.9-19.6-64.2-25.8-76.1c-6.3-11.9-1.4-37,2.1-41.9
	s10.5-10.5,11.9-24.4S543.2,187.4,543.2,187.4z"/>
<path class="st7" d="M418.4,189.4c0,0-5.7,4.3-7.8,13.3c-2.1,9.1-4.9,81.7-4.9,81.7s-25.8,99.9-20.3,102s21.6,6.3,23.7,4.2
	c2.1-2.1,25.8-86.6,23.7-95.7c-2.1-9.1,2.8-35.6,2.8-35.6L418.4,189.4z"/>
<path class="st6" d="M547.4,319.3c0,0-37.7-18.9-41.9-6.3c-4.2,12.6,39.8,25.8,39.8,25.8s15.4-5.6,15.4-9.1
	C560.7,326.3,547.4,319.3,547.4,319.3z"/>
<path class="st7" d="M535.6,190.1l7.7-2.8c0,0,4.2-2.8,9.1,7.7s58,71.9,48.2,91.5c-9.8,19.6-41.9,59.4-43.3,56.6
	c-1.4-2.8-17.5-23.7-14.7-25.8c2.8-2.1,34.9-30.7,30.7-34.9c-4.2-4.2-21.6-39.8-31.4-41.2C532.1,239.7,535.6,190.1,535.6,190.1z"/>
<path class="st3" d="M452.8,131.1c0,0-106.5-42.8-198.7-84c0,0-48.2-11.9-73.3,10.5c0,0,20.9-2.8,20.9,9.1c0,0,18.2,23.7-38.4,27.9
	c-39.4,2.9-55.1,26.5-61,40.5c-4.6,11.3-12.7,20.8-23.1,27.1c-13.6,8.1-33.3,14.1-56.3,3.6c0,0,1.3,2,3.8,5.4
	c44.3,59.9,209.5,112,267.8,65.6c36-28.7,93.2-64.9,134.1-46.7c64.2,28.6,76.1,16.1,76.1,16.1l2.8-7.7c0,0-62.2-16.8-63.5-38.4
	C442.7,138.5,452.8,131.1,452.8,131.1z"/>
<path class="st3" d="M515,136.7c0,0,15,5.9,17.8,25.5c0,0,16.1,31.4-2.1,39.1c-18.2,7.7-21.6,5.6-21.6,5.6v-3.5
	c0,0,19.6-11.9,15.4-20.9C520.2,173.4,515,136.7,515,136.7z"/>
<path class="st3" d="M488.1,225.8c0,0,4.9-12.6,3.5-12.6c-1.4,0,5.7-7.7,8.4-4.9c2.7,2.8,7.6,11.2,2,13.3
	C496.5,223.7,488.1,225.8,488.1,225.8z"/>
<path class="st3" d="M522.5,218.3c0,0-12.8-4.4-12.7-3c0.1,1.4-8-5.3-5.3-8.2s10.9-8.1,13.2-2.6C520,210,522.5,218.3,522.5,218.3z"
	/>
<path class="st3" d="M502,199.2c0,0,6.4-3.6,10.2,2.1c3.8,5.6-4.6,15.4-10.2,15.4s-5.6-11.9-5.6-11.9L502,199.2z"/>
<path class="st4" d="M502,199.2c0,0,6.4-3.6,10.2,2.1c3.8,5.6-4.6,15.4-10.2,15.4s-5.6-11.9-5.6-11.9L502,199.2z"/>
<path class="st5" d="M460,82c-3.7,3-7.2,6.4-9.5,10.6c-1.2,2.3-2.2,4.8-3,7.3c-2.8,8.1-9.8,16.4-6.9,24.4c0.8,2.3,2.2,4.7,1.4,7.1
	c-0.7,2.1-2.8,3.3-4.3,4.9c-3.2,3.4-3.8,8.5-4,13.1c-0.4,8.6,4.3,18.7,10,25.1c1.2,1.2,2.4,2.5,3.4,3.9c1.4,2.2,1.8,4.9,1.1,7.5
	l8.3-1.7c0.3,3.1,0.4,6.1,0.3,9.2c4.1,0.4,7.9-2,9.1-5.9c0.5,2.2,1.2,4.3,2.3,6.3c2.4-3,4.3-6.5,5.5-10.2c1.6-4.7,1.9-9.8,1-14.7
	c-0.9-3.6-2.1-7.1-3.6-10.5c-2.9-7.4-5.3-15-7.7-22.6c-1.2-3.9-2.5-8-2.1-12.1l2.9-0.3c0-1.6,0.3-3.2,0.9-4.8c1.7,0.4,3.4,1,4.9,1.9
	l3.4-8.6c2.2,2.3,5.5,3.4,8.5,4.3l11.7,3.7l0.1-2.3c4.9,4.4,10.6,7.9,16.7,10.4c-0.7-0.8-1-1.9-0.8-3c2.9,5.2,1.7,11.6,0,17.2
	c-1.8,5.6-4.1,11.4-3.4,17.3c0.5,4.4,2.8,8.6,2.4,13c-0.2,2.2-1.1,4.2-1.3,6.4c-0.6,5.2,2.1,10.1,4.7,14.6l5.1-7
	c1.9-2.6,3.8-5.2,6.4-6.9c2.7-1.8,6.1-2.6,8.4-4.8c4.2-4,3.7-10.8,2.3-16.4c-0.7-3-1.6-6-1.3-9.1c0.5-5.2,4.1-9.5,6.1-14.3
	c2.9-7.1,2.4-15.2-1.4-21.9c-2.5-4.3-6.3-7.8-8.7-12.3c-2.4-4.4-3.3-9.6-6.5-13.4c-1.6-1.7-3.4-3.2-5.5-4.4
	c-9.2-5.6-19.6-8.9-30.3-9.9C476.4,72,467.8,75.6,460,82z"/>
<path class="st2" d="M162.5,681.4c-1.7-7.1,5.7-13.5,13.1-17.6c7.4-4.1,16-8.2,18.5-15.2c3.6-10-7.2-19.2-15.5-27.2"/>
<path class="st1" d="M182.9,625.9c7.1,2.6,15-1.1,17.6-8.4c2.2-6.1-0.1-12.9-5.4-16.4l-1.6,5.5l-1.1-6.9c0,0,0,0,0,0
	c-7.1-2.6-15,1.1-17.6,8.3C172.1,615.3,175.8,623.3,182.9,625.9C182.9,625.9,182.9,625.9,182.9,625.9L182.9,625.9z"/>
<path class="st2" d="M183.6,624.4c7.1,2.6,15-1.1,17.6-8.4c2.2-6.1-0.1-12.9-5.4-16.4l-1.6,5.5l-1.1-6.9c0,0,0,0,0,0
	c-7.1-2.6-15,1.1-17.6,8.4S176.4,621.7,183.6,624.4L183.6,624.4z"/>
<path class="st1" d="M165.7,648.2c1.4,8.1,9.1,13.5,17.2,12.1c8.1-1.4,13.5-9.1,12.1-17.2c-1.4-8.1-9.1-13.5-17.2-12.1
	c-3.7,0.6-6.9,2.6-9.2,5.6l6.6,10l-9.1-5.3C165.4,643.5,165.3,645.9,165.7,648.2z"/>
<path class="st2" d="M165.3,646.2c1.4,8.1,9.1,13.5,17.2,12.1c8.1-1.4,13.5-9.1,12.1-17.2c-1.4-8.1-9.1-13.5-17.2-12.1
	c-3.7,0.6-6.9,2.6-9.2,5.6l6.6,10l-9.1-5.3C165.1,641.5,164.9,643.9,165.3,646.2z"/>
<path class="st2" d="M237.7,675.8c-1.7-8.8,5.7-16.6,13.1-21.6c7.4-5.1,16-10,18.5-18.6c3.6-12.3-7.2-23.6-15.5-33.4
	c-6.2-7.2-11.6-15.2-15.9-23.7c-1.7-3.4-3.3-7-3.8-10.8c-0.7-5.5,1.1-10.9,2.9-16.1"/>
<path class="st1" d="M250.2,602.4c10.4,3.8,21.9-1.6,25.7-12c3.2-8.8-0.1-18.6-7.9-23.7l-2.4,7.9l-1.7-9.9c0,0,0,0-0.1,0
	c-10.4-3.8-21.9,1.6-25.7,12C234.4,587.1,239.8,598.6,250.2,602.4C250.2,602.4,250.2,602.4,250.2,602.4L250.2,602.4z"/>
<path class="st2" d="M251.2,598.8c10.4,3.8,21.9-1.6,25.7-12c3.2-8.8-0.1-18.6-7.9-23.7l-2.4,7.9l-1.7-9.9c0,0,0,0-0.1,0
	c-10.4-3.8-21.9,1.6-25.7,12C235.4,583.6,240.8,595.1,251.2,598.8L251.2,598.8z"/>
<path class="st1" d="M229.4,635.7c1.9,10.9,12.3,18.2,23.2,16.3c10.9-1.9,18.2-12.3,16.3-23.2c-1.9-10.9-12.3-18.2-23.2-16.3
	c-4.9,0.9-9.4,3.5-12.4,7.5l8.9,13.4l-12.2-7.1C229,629.4,228.8,632.6,229.4,635.7z"/>
<path class="st2" d="M230.2,633c1.9,10.9,12.3,18.2,23.2,16.3c10.9-1.9,18.2-12.3,16.3-23.2s-12.3-18.2-23.2-16.3
	c-4.9,0.9-9.4,3.5-12.4,7.5l8.9,13.4l-12.2-7.1C229.8,626.7,229.6,629.9,230.2,633z"/>
<path class="st1" d="M227.3,564.9c9.1,3.3,19.2-1.4,22.5-10.5c3.3-9.1-1.4-19.2-10.5-22.5c-3.1-1.1-6.4-1.4-9.7-0.7l0.4,9l-4.3-7.7
	c-4.2,2-7.4,5.5-9,9.9c-0.6,1.5-0.9,3.1-1,4.8C215.2,555,219.9,562.3,227.3,564.9z"/>
<path class="st2" d="M228,562.6c9.1,3.3,19.2-1.4,22.5-10.5c3.3-9.1-1.4-19.2-10.5-22.5c-3.1-1.1-6.4-1.4-9.7-0.7l0.4,9l-4.3-7.7
	c-4.2,2-7.4,5.5-9,9.9c-0.6,1.5-0.9,3.1-1,4.8C215.9,552.7,220.6,559.9,228,562.6z"/>
</svg>
