<?xml version="1.0" encoding="utf-8"?>
<!-- Generator: Adobe Illustrator 24.2.3, SVG Export Plug-In . SVG Version: 6.00 Build 0)  -->
<svg version="1.1" id="a11d453a-83a5-491b-94b4-3bbd3d308a29"
	 xmlns="http://www.w3.org/2000/svg" xmlns:xlink="http://www.w3.org/1999/xlink" x="0px" y="0px" viewBox="0 0 642 771.9"
	 style="enable-background:new 0 0 642 771.9;" xml:space="preserve">
<style type="text/css">
	.st0{fill:#F2F2F2;}
	.st1{fill:#57B894;}
	.st2{fill:none;stroke:#3F3D56;stroke-miterlimit:10;}
	.st3{fill:#F15C68;}
	.st4{opacity:0.1;enable-background:new    ;}
	.st5{fill:#FF6584;}
	.st6{fill:#FBBEBE;}
	.st7{fill:#2F2E41;}
</style>
<ellipse class="st0" cx="330.7" cy="728.9" rx="304.3" ry="43"/>
<path class="st1" d="M269.6,576.7c10.8,3.9,22.7-1.6,26.7-12.4c3.9-10.8-1.6-22.7-12.4-26.7c-3.7-1.3-7.6-1.6-11.5-0.8l0.5,10.7
	l-5.1-9.2c-5,2.3-8.8,6.6-10.7,11.7c-0.7,1.8-1.1,3.7-1.2,5.6C255.3,565,260.8,573.5,269.6,576.7z"/>
<path class="st2" d="M294.7,701c-1.8-9.1,6-17.2,13.6-22.4s16.6-10.4,19.2-19.3c3.8-12.8-7.4-24.5-16.1-34.6
	c-6.5-7.5-12-15.7-16.5-24.6c-1.8-3.5-3.5-7.2-4-11.2c-0.7-5.7,1.1-11.3,3-16.7c6.1-18,12.7-35.9,19.6-53.7"/>
<path class="st2" d="M270.4,574c10.8,3.9,22.7-1.6,26.7-12.4c3.9-10.8-1.6-22.7-12.4-26.7c-3.7-1.3-7.6-1.6-11.5-0.8l0.5,10.7
	l-5.1-9.2c-5,2.3-8.8,6.6-10.7,11.7c-0.7,1.8-1.1,3.7-1.2,5.6C256.1,562.2,261.7,570.8,270.4,574z"/>
<path class="st1" d="M292.1,514.7c2.4-6.7,8.1-11.6,15-13.2l1.7,10.2L312,501c11.5,0.2,20.7,9.6,20.5,21.1
	c-0.2,11.5-9.6,20.7-21.1,20.5c-11.5-0.2-20.7-9.6-20.5-21.1C290.9,519.2,291.3,516.9,292.1,514.7L292.1,514.7z"/>
<path class="st2" d="M293.3,511.1c2.4-6.7,8.1-11.6,15-13.2l1.7,10.2l3.2-10.7c11.5,0.2,20.7,9.6,20.5,21.1
	c-0.2,11.5-9.6,20.7-21.1,20.5c-11.5-0.2-20.7-9.6-20.5-21.1C292.1,515.5,292.5,513.2,293.3,511.1z"/>
<path class="st1" d="M307.7,624.8c10.8,3.9,22.7-1.7,26.7-12.5c3.3-9.1-0.1-19.3-8.2-24.6l-2.4,8.2l-1.7-10.3c0,0,0,0-0.1,0
	c-10.8-3.9-22.7,1.6-26.7,12.4C291.3,608.9,296.9,620.8,307.7,624.8C307.7,624.8,307.7,624.8,307.7,624.8L307.7,624.8z"/>
<path class="st2" d="M308.7,621c10.8,3.9,22.7-1.7,26.7-12.5c3.3-9.1-0.1-19.3-8.2-24.6l-2.4,8.2l-1.7-10.3c0,0,0,0-0.1,0
	c-10.8-3.9-22.7,1.7-26.7,12.5S297.9,617.1,308.7,621L308.7,621z"/>
<path class="st1" d="M286,659.3c2,11.3,12.8,18.9,24.1,16.9c11.3-2,18.9-12.8,16.9-24.1c-2-11.3-12.8-18.9-24.1-16.9
	c-5.1,0.9-9.7,3.7-12.9,7.8l9.3,14l-12.7-7.4C285.7,652.7,285.5,656.1,286,659.3z"/>
<path class="st2" d="M286.9,656.6c2,11.3,12.8,18.9,24.1,16.9s18.9-12.8,16.9-24.1c-2-11.3-12.8-18.9-24.1-16.9
	c-5.1,0.9-9.7,3.7-12.9,7.8l9.3,14l-12.7-7.4C286.5,650,286.3,653.3,286.9,656.6z"/>
<path class="st3" d="M295.1,217.5c0,0,105.1,52.2,124,44.9c18.8-7.2,25.4-71.8,25.4-71.8l-77.6-14.5L295.1,217.5z"/>
<path class="st4" d="M295.1,217.5c0,0,105.1,52.2,124,44.9c18.8-7.2,25.4-71.8,25.4-71.8l-77.6-14.5L295.1,217.5z"/>
<rect x="444" y="139.5" class="st5" width="68.9" height="60.2"/>
<rect x="444" y="139.5" class="st4" width="68.9" height="60.2"/>
<path class="st6" d="M381.3,395.8c0,0-2.9,63.1,16.7,61.6s0-59.4,0-59.4L381.3,395.8z"/>
<path class="st6" d="M461.8,148.6c0,0,4.3,27.5-3.6,31.2s-13,6.5-13,6.5l18.1,12.3l33.3,2.2l8.7-6.5l8-7.2c0,0-13-2.9-13-9.4
	s-0.7-26.1-0.7-26.1L461.8,148.6z"/>
<path class="st4" d="M461.8,148.6c0,0,4.3,27.5-3.6,31.2s-13,6.5-13,6.5l18.1,12.3l33.3,2.2l8.7-6.5l8-7.2c0,0-13-2.9-13-9.4
	s-0.7-26.1-0.7-26.1L461.8,148.6z"/>
<path class="st6" d="M416.1,406.7c0,0-21,67.4-21,116.7c0,0-34.8,78.3-33.3,116.7l-8.7,52.9l12.3,4.3l9.4-8c0,0,2.9-28.3,12.3-42
	s31.2-79,31.2-79s58-121.8,55.8-139.2S416.1,406.7,416.1,406.7z"/>
<path class="st6" d="M549.4,391.5c0,0,13.8,6.5-5.8,122.5c0,0,10.9,76.8,1.4,118.9l-1.4,42h-15.2l-2.9-4.3c0,0-0.7-37.7-5.8-47.8
	s-9.4-68.9-9.4-68.9s-23.2-119.6-18.1-129.8S549.4,391.5,549.4,391.5z"/>
<path class="st7" d="M350.9,680.7c0,0,5.1,11.6,14.5,8.7s11.6-2.9,11.6-2.9s-6.5,33.3-4.3,49.3s-1.4,26.1-15.9,26.1
	S340,744.5,340,744.5l6.5-41.3L350.9,680.7z"/>
<path class="st7" d="M522.6,662.6c0,0,5.1,10.1,13,8s10.9-5.8,10.9-5.8s-0.7,22.5,2.2,32.6s9.4,39.1-5.8,40.6
	c-8.6,1-16.8-3.7-20.3-11.6V662.6z"/>
<ellipse transform="matrix(0.1735 -0.9848 0.9848 0.1735 264.3536 586.1011)" class="st6" cx="481.4" cy="135.6" rx="31.9" ry="31.9"/>
<path class="st7" d="M540.1,192.8c0,0-25.3-9.9-34.4-8.6c-7.9,6.7-18.3,9.9-28.7,8.6c-17.4-2.2-24.2-10.5-24.2-10.5
	s-46.8,10.5-43.9,14.9s15.9,75.4,15.9,75.4s8.7,61.6-1.4,82.6s-15.2,55.8-10.9,58.7s52.9,15.9,58.7,19.6s8-8.7,11.6-6.5
	s11.6,5.8,16.7,2.9s54.4-29,52.9-34.1s-20.3-66.7-26.8-79s-1.4-38.4,2.2-43.5s10.9-10.9,12.3-25.4
	C541.5,233.4,540.1,192.8,540.1,192.8z"/>
<path class="st7" d="M410.5,194.9c0,0-5.9,4.4-8.1,13.8s-5.1,84.8-5.1,84.8s-26.8,103.7-21,105.8s22.5,6.5,24.6,4.3
	s26.8-89.9,24.6-99.3s2.9-37,2.9-37L410.5,194.9z"/>
<path class="st6" d="M544.4,329.8c0,0-39.1-19.6-43.5-6.5s41.3,26.8,41.3,26.8s15.9-5.8,15.9-9.4S544.4,329.8,544.4,329.8z"/>
<path class="st7" d="M532.1,195.7l8-2.9c0,0,4.3-2.9,9.4,8c5.1,10.9,60.2,74.7,50,95s-43.5,61.6-44.9,58.7s-18.1-24.6-15.2-26.8
	s36.2-31.9,31.9-36.2s-22.5-41.3-32.6-42.8S532.1,195.7,532.1,195.7z"/>
<path class="st3" d="M446.2,134.5c0,0-110.5-44.4-206.2-87.2c0,0-50-12.3-76.1,10.9c0,0,21.7-2.9,21.7,9.4c0,0,18.8,24.6-39.9,29
	c-40.9,3-57.2,27.5-63.3,42.1c-4.8,11.7-13.2,21.6-24,28.2c-14.1,8.4-34.6,14.7-58.5,3.7c0,0,1.4,2.1,3.9,5.6
	c46,62.2,217.5,116.3,278,68.1c37.4-29.8,96.7-67.4,139.2-48.4c66.7,29.7,79,16.7,79,16.7l2.9-8c0,0-64.5-17.4-66-39.9
	S446.2,134.5,446.2,134.5z"/>
<path class="st3" d="M510.7,140.3c0,0,15.6,6.2,18.5,26.5c0,0,16.7,32.6-2.2,40.6s-22.5,5.8-22.5,5.8v-3.6c0,0,20.3-12.3,15.9-21.7
	S510.7,140.3,510.7,140.3z"/>
<path class="st3" d="M482.8,232.7c0,0,5.1-13,3.6-13s5.9-8,8.7-5.1s7.9,11.6,2.1,13.8S482.8,232.7,482.8,232.7z"/>
<path class="st3" d="M518.5,225c0,0-13.3-4.5-13.2-3.1s-8.3-5.6-5.5-8.5s11.3-8.4,13.7-2.7S518.5,225,518.5,225z"/>
<path class="st3" d="M497.3,205.1c0,0,6.6-3.7,10.6,2.1s-4.8,16-10.6,16s-5.8-12.3-5.8-12.3L497.3,205.1z"/>
<path class="st4" d="M497.3,205.1c0,0,6.6-3.7,10.6,2.1s-4.8,16-10.6,16s-5.8-12.3-5.8-12.3L497.3,205.1z"/>
<path class="st5" d="M453.7,83.5c-3.8,3.2-7.4,6.7-9.8,11c-1.2,2.4-2.3,5-3.1,7.6c-2.9,8.4-10.2,17-7.1,25.4
	c0.9,2.4,2.3,4.9,1.5,7.3c-0.7,2.2-2.9,3.4-4.4,5c-3.4,3.5-3.9,8.8-4.1,13.6c-0.4,8.9,4.5,19.4,10.4,26c1.3,1.3,2.5,2.6,3.6,4
	c1.5,2.3,1.9,5.1,1.1,7.8l8.6-1.8c0.3,3.2,0.4,6.4,0.3,9.6c4.2,0.5,8.2-2.1,9.5-6.1c0.5,2.3,1.3,4.5,2.4,6.5
	c2.5-3.2,4.5-6.7,5.7-10.6c1.6-4.9,2-10.2,1-15.3c-0.9-3.7-2.2-7.4-3.7-10.9c-3-7.7-5.5-15.6-8-23.5c-1.3-4.1-2.6-8.3-2.2-12.6
	l3.1-0.3c0-1.7,0.4-3.4,1-4.9c1.8,0.4,3.5,1,5.1,1.9l3.5-8.9c2.3,2.4,5.7,3.5,8.9,4.5l12.1,3.8l0.1-2.4c5.1,4.5,11,8.2,17.3,10.8
	c-0.7-0.9-1-2-0.9-3.1c3,5.4,1.8,12-0.1,17.9s-4.3,11.8-3.6,17.9c0.6,4.6,2.9,8.9,2.5,13.5c-0.2,2.3-1.1,4.4-1.4,6.6
	c-0.7,5.4,2.2,10.5,4.9,15.1l5.3-7.3c1.9-2.7,3.9-5.4,6.7-7.2c2.8-1.9,6.3-2.7,8.7-5c4.4-4.1,3.8-11.2,2.4-17
	c-0.8-3.1-1.7-6.3-1.4-9.5c0.5-5.4,4.2-9.9,6.3-14.9c3.1-7.4,2.5-15.8-1.4-22.7c-2.6-4.5-6.6-8.1-9.1-12.7c-2.5-4.6-3.4-10-6.8-13.9
	c-1.6-1.8-3.6-3.3-5.7-4.5c-9.6-5.8-20.4-9.3-31.5-10.3C470.7,73,461.8,76.8,453.7,83.5z"/>
<path class="st2" d="M144.9,705.8c-1.8-7.4,6-14,13.6-18.3c7.7-4.3,16.6-8.5,19.2-15.7c3.8-10.4-7.4-20-16.1-28.2"/>
<path class="st1" d="M166,648.1c7.4,2.7,15.6-1.2,18.3-8.7c2.3-6.3-0.1-13.4-5.6-17.1l-1.7,5.7l-1.2-7.2c0,0,0,0,0,0
	c-7.4-2.7-15.6,1.1-18.3,8.6C154.8,637.1,158.6,645.4,166,648.1C166,648.1,166,648.1,166,648.1L166,648.1z"/>
<path class="st2" d="M166.7,646.5c7.4,2.7,15.6-1.2,18.3-8.7c2.3-6.3-0.1-13.4-5.6-17.1l-1.7,5.7l-1.2-7.2c0,0,0,0,0,0
	c-7.4-2.7-15.6,1.2-18.3,8.7C155.5,635.5,159.3,643.8,166.7,646.5L166.7,646.5z"/>
<path class="st1" d="M148.1,671.3c1.5,8.4,9.5,14,17.9,12.5c8.4-1.5,14-9.5,12.5-17.9c-1.5-8.4-9.5-14-17.9-12.5
	c-3.8,0.7-7.2,2.7-9.5,5.8l6.9,10.4l-9.4-5.5C147.9,666.4,147.7,668.9,148.1,671.3z"/>
<path class="st2" d="M147.8,669.2c1.5,8.4,9.5,14,17.9,12.5c8.4-1.5,14-9.5,12.5-17.9c-1.5-8.4-9.5-14-17.9-12.5
	c-3.8,0.7-7.2,2.7-9.5,5.8l6.9,10.4l-9.4-5.5C147.5,664.3,147.3,666.8,147.8,669.2z"/>
<path class="st2" d="M222.9,699.9c-1.8-9.1,6-17.2,13.6-22.4s16.6-10.4,19.2-19.3c3.8-12.8-7.4-24.5-16.1-34.6
	c-6.5-7.5-12-15.7-16.5-24.6c-1.8-3.5-3.5-7.2-4-11.2c-0.7-5.7,1.1-11.3,3-16.7"/>
<path class="st1" d="M235.9,623.7c10.8,3.9,22.7-1.7,26.7-12.5c3.3-9.1-0.1-19.3-8.2-24.6l-2.4,8.2l-1.7-10.3c0,0,0,0-0.1,0
	c-10.8-3.9-22.7,1.6-26.7,12.4C219.5,607.8,225.1,619.8,235.9,623.7C235.9,623.7,235.9,623.7,235.9,623.7L235.9,623.7z"/>
<path class="st2" d="M236.9,620c10.8,3.9,22.7-1.7,26.7-12.5c3.3-9.1-0.1-19.3-8.2-24.6l-2.4,8.2l-1.7-10.3c0,0,0,0-0.1,0
	c-10.8-3.9-22.7,1.7-26.7,12.5S226.1,616.1,236.9,620L236.9,620z"/>
<path class="st1" d="M214.3,658.3c2,11.3,12.8,18.9,24.1,16.9c11.3-2,18.9-12.8,16.9-24.1c-2-11.3-12.8-18.9-24.1-16.9
	c-5.1,0.9-9.7,3.7-12.9,7.8l9.3,14l-12.7-7.4C213.9,651.7,213.7,655,214.3,658.3z"/>
<path class="st2" d="M215.1,655.5c2,11.3,12.8,18.9,24.1,16.9s18.9-12.8,16.9-24.1c-2-11.3-12.8-18.9-24.1-16.9
	c-5.1,0.9-9.7,3.7-12.9,7.8l9.3,14l-12.7-7.4C214.7,648.9,214.5,652.3,215.1,655.5z"/>
<path class="st1" d="M212.1,584.8c9.5,3.4,19.9-1.4,23.4-10.9c3.4-9.5-1.4-19.9-10.9-23.4c-3.2-1.2-6.7-1.4-10-0.7l0.5,9.4l-4.4-8
	c-4.4,2-7.7,5.7-9.4,10.3c-0.6,1.6-0.9,3.2-1,4.9C199.6,574.5,204.4,582,212.1,584.8z"/>
<path class="st2" d="M212.8,582.4c9.5,3.4,19.9-1.4,23.4-10.9c3.4-9.5-1.4-19.9-10.9-23.4c-3.2-1.2-6.7-1.4-10-0.7l0.5,9.4l-4.4-8
	c-4.4,2-7.7,5.7-9.4,10.3c-0.6,1.6-0.9,3.2-1,4.9C200.3,572.1,205.2,579.6,212.8,582.4z"/>
</svg>
