<!--?xml version="1.0" encoding="UTF-8"?-->
<svg width="552px" height="563px" viewBox="0 0 552 563" version="1.1" xmlns="http://www.w3.org/2000/svg" xmlns:xlink="http://www.w3.org/1999/xlink" style="">
    <title>error-404-monochrome</title>
    <defs>
        <linearGradient x1="23.9295108%" y1="9.93701987%" x2="95.4333558%" y2="102.385214%" id="linearGradient-1">
            <stop stop-color="#F85866" stop-opacity="0" offset="0%"></stop>
            <stop stop-color="#F85866" stop-opacity="0.24" offset="100%"></stop>
        </linearGradient>
    </defs>
    <g id="Web" stroke="none" stroke-width="1" fill="none" fill-rule="evenodd">
        <g id="2.-WEB-&amp;-SEO_desktop" transform="translate(-736.000000, -144.000000)">
            <g id="error-404-monochrome" transform="translate(736.940598, 144.000000)">
                <path id="Path" fill-opacity="0.0435423951" fill="#000000" fill-rule="nonzero" d="M312.264914,154.342034L316.038946,144.572328L310.277855,144.020368L308.601275,129.324412L305.330907,114.794044L303.440441,100.863934L300.204571,86.8717279L299.7906,84.8087745L299.93549,66.0076103L298.10712,60.2741176L294.712561,56.286201L291.290404,57.7281985L294.395184,65.5039461L295.519804,76.8191422L293.863922,85.4435294L293.774228,86.6785417L295.754387,101.160613L298.790172,116.794902L301.570674,131.552953L305.227414,146.973358L306.814301,159.399375L312.658186,157.129436Z" class="FSeUjoxI_0"></path>
                <path d="M307.193775,158.895711 L307.193775,158.895711 L299.721605,119.941078 L293.360257,85.6367157 L293.360257,85.5884191 C293.305061,85.7195098 293.256765,85.8575 293.201569,85.9816912 C293.981213,90.0110049 306.641814,155.66674 306.917794,158.999203 L307.193775,158.895711 Z" id="Path" fill="#F8F8F8" fill-rule="nonzero" class="FSeUjoxI_1"></path>
                <path d="M295.29902,77.5090931 L295.29902,77.4607966 C295.302349,77.4998229 295.302349,77.5390619 295.29902,77.5780882 L295.29902,77.5090931 Z" id="Path" fill="#F8F8F8" fill-rule="nonzero" class="FSeUjoxI_2"></path>
                <path d="M485.615098,188.763689 C472.036863,165.484743 460.597475,145.158787 449.620355,127.358051 C406.077549,122.424902 380.942635,102.726801 359.126385,102.726801 C356.587365,102.726801 352.640846,103.761728 351.143652,103.761728 L351.143652,103.761728 L347.831887,109.971287 L347.92848,118.519779 L353.054816,119.485711 L359.954326,123.16315 L364.846078,127.723725 L370.834853,136.637892 L370.427782,136.906973 C373.373873,138.045392 375.692108,139.797868 376.996115,142.343787 C378.700294,145.655551 378.555404,149.546875 377.196201,153.583088 L377.196201,153.583088 C387.745551,193.075882 380.901238,251.811409 376.961618,255.074877 C371.000441,260.014926 307.449056,243.345711 302.170931,235.990833 C299.976887,232.955049 300.425355,212.180625 304.364975,188.88788 L304.86864,188.646397 C296.209755,189.681324 288.434007,188.646397 283.556054,183.782243 C272.434044,172.660233 277.884657,94.7026716 278.491814,86.4991544 C276.731931,82.3420172 275.86232,77.8623455 275.938995,73.3486887 C275.980392,62.5716544 280.347782,53.8161765 285.756998,53.8161765 C288.164926,53.8161765 290.37277,55.5617525 292.076949,58.4457475 L291.386998,56.7898652 L293.926017,56.7898652 L296.596127,58.5699387 L300.045882,64.8277941 L300.901422,69.6091544 L300.63924,86.6302451 L310.726324,144.655123 L316.853088,144.054865 L319.964767,137.155355 L326.705588,127.689228 L331.983713,121.941936 L331.983713,118.298995 L331.983713,118.298995 C321.744841,116.54652 313.769007,102.540515 313.769007,85.5263235 C313.769007,84.2430147 313.810404,82.9735049 313.900098,81.7315931 L314.479657,74.4319118 L315.55598,72.0239828 C315.604277,71.8376961 315.652574,71.6514093 315.70777,71.4720221 C314.914326,71.0373529 312.258015,68.5949265 312.258015,60.1775245 C312.258015,43.618701 330.583113,34.7183333 345.948321,31.2685784 C325.511973,22.4372059 302.640098,15.5859926 277.449988,10.0180882 C226.083137,-1.11772059 165.415748,-6.94780637 128.696556,20.0085784 C91.9773652,46.9649632 79.2201716,106.349044 58.2594608,172.218664 C37.1469608,238.081385 7.83784314,310.408946 22.9684681,376.444154 C37.9335049,442.313775 97.483174,501.877243 162.738738,510.22565 C227.994301,518.574056 298.886765,475.7281 374.208713,447.198627 C449.530662,418.669154 529.261397,404.642451 546.441176,361.154841 C563.620956,317.66723 518.38777,244.704914 485.615098,188.763689 Z M200.29277,419.821373 L160.579191,419.821373 L187.528676,410.29315 L187.528676,404.725245 L200.29277,404.725245 L200.29277,419.821373 Z" id="Shape" fill="url(#linearGradient-1)" fill-rule="nonzero" class="FSeUjoxI_3"></path>
                <path d="M318.812549,64.772598 C318.808155,64.4267838 318.826594,64.0810567 318.867745,63.7376716 C317.605135,65.8489216 315.963051,70.6371814 315.693971,71.5203186 L315.742267,71.6238113 L318.812549,64.772598 Z" id="Path" fill="#F8F8F8" fill-rule="nonzero" class="FSeUjoxI_4"></path>
                <path d="M347.583505,182.69902 C351.254044,184.279007 382.55712,203.045674 382.260441,223.22674 C382.8331,205.860674 382.8331,191.323407 382.8331,191.323407 L380.852941,176.034093 L377.603272,154.935392 L370.959044,165.146667 L362.29326,174.38511 L352.095784,181.733088 L347.583505,182.69902 Z" id="Path" fill-opacity="0.0434877622" fill="#000000" fill-rule="nonzero" class="FSeUjoxI_5"></path>
                <path d="M118.036814,535.250172 L96.441348,535.250172 L96.441348,560.826654 L64.7794975,560.826654 L64.7794975,535.250172 L0,535.250172 L0,525.590858 L74.8458824,423.298725 L96.441348,423.298725 L96.441348,507.997108 L118.036814,507.997108 L118.036814,535.250172 Z M64.7794975,507.997108 L64.7794975,476.128272 L42.1422059,507.997108 L64.7794975,507.997108 Z" id="Shape" fill="#000000" fill-rule="nonzero" opacity="0.04" class="FSeUjoxI_6"></path>
                <path d="M136.065233,492.273125 C136.065233,452.64924 147.594314,421.40826 187.811556,421.40826 C227.828713,421.40826 238.964522,452.64924 238.964522,492.273125 C238.964522,531.690025 227.856311,562.71712 187.811556,562.71712 C147.594314,562.71712 136.065233,531.690025 136.065233,492.273125 Z M207.344069,492.273125 C207.344069,468.373223 202.728297,449.923934 187.846054,449.923934 C172.749926,449.923934 167.513199,468.373223 167.513199,492.273125 C167.513199,515.959142 172.749926,533.994492 187.846054,533.994492 C202.728297,534.022059 207.344069,515.959142 207.344069,492.273125 Z" id="Shape" fill="#000000" fill-rule="nonzero" opacity="0.04" class="FSeUjoxI_7"></path>
                <path d="M369.19277,535.250172 L347.597304,535.250172 L347.597304,560.826654 L315.942353,560.826654 L315.942353,535.250172 L251.142157,535.250172 L251.142157,525.590858 L326.001838,423.298725 L347.597304,423.298725 L347.597304,507.997108 L369.19277,507.997108 L369.19277,535.250172 Z M315.942353,507.997108 L315.942353,476.128272 L293.298162,507.997108 L315.942353,507.997108 Z" id="Shape" fill="#000000" fill-rule="nonzero" opacity="0.04" class="FSeUjoxI_8"></path>
                <path d="M369.917218,279.575037 C370.510576,285.218836 382.97799,528.571446 382.97799,528.571446 L369.917218,528.571446 L306.40723,299.438725 L369.917218,279.575037 Z" id="Path" fill="#F85866" fill-rule="nonzero" class="FSeUjoxI_9"></path>
                <path d="M376.989216,255.088676 C378.638199,288.337414 364.473505,315.569779 339.876752,315.569779 C306.110551,315.569779 261.408627,294.043309 249.106801,281.893272 C246.03652,290.973027 202.486814,405.339301 202.486814,405.339301 L184.451495,405.339301 C184.451495,405.339301 196.008174,272.178762 217.672635,238.026189 C224.799828,228.532463 272.813517,228.884338 302.198529,236.004632 C325.525772,250.762684 368.937488,257.351716 376.989216,255.088676 Z" id="Path" fill="#F85866" fill-rule="nonzero" class="FSeUjoxI_10"></path>
                <path d="M291.386998,57.4039216 C292.149367,56.9427899 293.038239,56.7350644 293.926017,56.8105637 C296.568529,56.9968505 300.887623,63.9791544 300.887623,69.6298529 C300.887623,75.2805515 299.293836,77.4056005 299.776801,81.5108088 C300.259767,85.6160172 310.712525,141.281262 310.712525,144.6759 C312.761205,144.679591 314.807903,144.548215 316.839289,144.282549" id="Path" stroke="#000000" stroke-width="2.5" stroke-linecap="round" stroke-linejoin="round" class="FSeUjoxI_11"></path>
                <path d="M347.583505,118.271397 C358.153554,119.458113 365.763713,126.661201 371.145331,137.203652" id="Path" stroke="#000000" stroke-width="2.5" stroke-linecap="round" class="FSeUjoxI_12"></path>
                <path d="M312.016532,157.019044 C316.846189,142.116103 323.428321,129.158824 331.969914,122.624988" id="Path" stroke="#000000" stroke-width="2.5" stroke-linecap="round" class="FSeUjoxI_13"></path>
                <path d="M377.223799,153.596887 C387.77315,193.089681 380.928836,251.825208 376.989216,255.088676 C371.028039,260.028725 307.476654,243.35951 302.198529,236.004632 C300.004485,232.968848 300.452953,212.194424 304.392574,188.901679" id="Path" stroke="#000000" stroke-width="2.5" stroke-linecap="round" class="FSeUjoxI_14"></path>
                <path d="M326.208824,151.623627 C323.400723,152.57576 306.931593,158.999203 306.931593,158.999203 C306.655613,155.687439 293.995012,90.0041054 293.215368,85.9816912 C294.813156,81.9668387 295.603283,77.6762393 295.540502,73.3555882 C295.540502,62.5716544 291.159314,53.8161765 285.756998,53.8161765 C280.354681,53.8161765 275.980392,62.5716544 275.980392,73.3555882 C275.903717,77.869245 276.773328,82.3489167 278.533211,86.5060539 C277.926054,94.7164706 272.475441,172.674032 283.597451,183.789142 C294.940245,195.131936 321.910429,185.638211 339.35239,177.876262" id="Path" stroke="#000000" stroke-width="2.5" stroke-linecap="round" stroke-linejoin="round" class="FSeUjoxI_15"></path>
                <path id="Rectangle" fill="#000000" fill-rule="nonzero" transform="translate(307.852276, 78.684183) rotate(14.870000) translate(-307.852276, -78.684183) " d="M302.505156,74.9480985L313.199396,74.9480985L313.199396,82.4202676L302.505156,82.4202676Z" class="FSeUjoxI_16"></path>
                <path d="M364.135429,135.451176 C370.03451,136.141127 374.877966,138.21098 377.023713,142.350686 C384.81326,157.474412 353.965551,184.720576 345.430858,182.69212 C336.896164,180.663664 323.131642,150.209228 325.705159,144.744816 C326.436507,143.178627 330.348529,141.101875 335.723248,139.287304" id="Path" stroke="#000000" stroke-width="2.5" stroke-linecap="round" class="FSeUjoxI_17"></path>
                <path id="Path" stroke="#000000" stroke-width="2.5" stroke-linecap="round" stroke-linejoin="round" d="M331.969914,122.624988L331.969914,118.347292" class="FSeUjoxI_18"></path>
                <path d="M347.583505,110.35076 L347.583505,130.8975 C347.583505,132.139412 343.906066,132.932855 340.125135,133.050147" id="Path" stroke="#000000" stroke-width="2.5" stroke-linecap="round" stroke-linejoin="round" class="FSeUjoxI_19"></path>
                <path d="M351.143652,103.747929 C350.207953,106.075253 349.013748,108.290087 347.583505,110.35076" id="Path" stroke="#000000" stroke-width="2.5" stroke-linecap="round" stroke-linejoin="round" class="FSeUjoxI_20"></path>
                <path d="M338.248468,117.864326 C336.915047,118.317022 335.516927,118.550043 334.108762,118.554277 C322.848762,118.554277 313.72761,103.796225 313.72761,85.5953186 C313.705374,80.8423996 314.358143,76.1104011 315.666373,71.5410172" id="Path" stroke="#000000" stroke-width="2.5" stroke-linecap="round" stroke-linejoin="round" class="FSeUjoxI_21"></path>
                <path d="M348.052672,98.0903309 C348.452843,101.850564 349.874142,103.747929 351.143652,103.747929 C352.640846,103.747929 356.587365,102.713002 359.126385,102.713002 C384.061213,102.713002 413.342733,128.455074 469.518542,128.455074 C498.862157,128.455074 544.909485,121.0519 544.909485,77.9575613 C544.909485,54.6855147 536.53348,26.5631127 492.259326,26.5631127 C464.143824,26.5631127 444.445723,40.3621324 421.346164,40.3621324 C391.678272,40.3621324 380.238885,29.6195956 359.740441,29.6195956 C345.141078,29.6195956 312.285613,38.0783946 312.285613,60.2396201 C312.285613,68.6570221 314.921225,71.0994485 315.735368,71.5341176 C316.004449,70.6371814 317.646532,65.8627206 318.909142,63.7514706 C318.686953,66.8449289 319.572252,69.9165721 321.406765,72.4172549" id="Path" stroke="#F85866" stroke-width="2.5" stroke-linecap="round" stroke-linejoin="round" class="FSeUjoxI_22"></path>
                <path d="M343.761176,86.0230882 C344.339628,86.6806451 344.878729,87.3718 345.375662,88.0929412" id="Path" stroke="#46C690" stroke-width="2.5" stroke-linecap="round" stroke-linejoin="round" class="FSeUjoxI_23"></path>
                <path d="M342.940135,89.0657721 C343.796197,88.4824188 344.808909,88.1721103 345.844828,88.1757039 C348.283753,88.1738468 350.396577,89.8665835 350.926707,92.2471971 C351.456837,94.6278107 350.261938,97.0571315 348.052672,98.0903309" id="Path" stroke="#000000" stroke-width="2.5" stroke-linecap="round" stroke-linejoin="round" class="FSeUjoxI_24"></path>
                <path d="M295.540502,73.3555882 C295.583976,77.2707172 294.951438,81.1639805 293.670735,84.8639706 C299.542218,85.5539216 303.792316,86.0575858 303.792316,86.0575858 L307.842328,69.685049 C307.842328,69.685049 301.853554,67.194326 294.395184,64.1654412 C295.172856,67.1663892 295.557843,70.2555619 295.540502,73.3555882 L295.540502,73.3555882 Z" id="Path" fill="#000000" fill-rule="nonzero" class="FSeUjoxI_25"></path>
                <path d="M275.980392,73.3555882 C275.980392,67.2633211 277.360294,61.8265074 279.568137,58.2456618 C273.130895,55.7135417 267.714779,53.6574877 266.176189,53.2711152 C261.698407,52.1671936 255.136973,79.2201716 259.490564,80.3033946 C261.249939,80.7380637 268.818701,81.7522917 277.215404,82.8148162 C276.38133,79.7314053 275.965932,76.5497853 275.980392,73.3555882 L275.980392,73.3555882 Z" id="Path" fill="#000000" fill-rule="nonzero" class="FSeUjoxI_26"></path>
                <path id="Path" stroke="#000000" stroke-width="2.5" stroke-linecap="round" stroke-linejoin="round" d="M200.29277,404.725245L200.29277,419.821373L160.579191,419.821373L187.535576,410.29315L187.535576,404.725245" class="FSeUjoxI_27"></path>
                <path id="Path" stroke="#000000" stroke-width="2.5" stroke-linecap="round" stroke-linejoin="round" d="M382.288039,527.998787L382.288039,543.094914L346.714167,543.094914L370.855551,533.566691L370.855551,527.998787" class="FSeUjoxI_28"></path>
            </g>
        </g>
    </g>
<style data-made-with="vivus-instant">.FSeUjoxI_0{stroke-dasharray:224 226;stroke-dashoffset:225;animation:FSeUjoxI_draw 1700ms ease-out 0ms forwards;}.FSeUjoxI_1{stroke-dasharray:150 152;stroke-dashoffset:151;animation:FSeUjoxI_draw 1700ms ease-out 10ms forwards;}.FSeUjoxI_2{stroke-dasharray:1 3;stroke-dashoffset:2;animation:FSeUjoxI_draw 1700ms ease-out 21ms forwards;}.FSeUjoxI_3{stroke-dasharray:2403 2405;stroke-dashoffset:2404;animation:FSeUjoxI_draw 1700ms ease-out 32ms forwards;}.FSeUjoxI_4{stroke-dasharray:18 20;stroke-dashoffset:19;animation:FSeUjoxI_draw 1700ms ease-out 42ms forwards;}.FSeUjoxI_5{stroke-dasharray:167 169;stroke-dashoffset:168;animation:FSeUjoxI_draw 1700ms ease-out 53ms forwards;}.FSeUjoxI_6{stroke-dasharray:555 557;stroke-dashoffset:556;animation:FSeUjoxI_draw 1700ms ease-out 64ms forwards;}.FSeUjoxI_7{stroke-dasharray:606 608;stroke-dashoffset:607;animation:FSeUjoxI_draw 1700ms ease-out 75ms forwards;}.FSeUjoxI_8{stroke-dasharray:555 557;stroke-dashoffset:556;animation:FSeUjoxI_draw 1700ms ease-out 85ms forwards;}.FSeUjoxI_9{stroke-dasharray:567 569;stroke-dashoffset:568;animation:FSeUjoxI_draw 1700ms ease-out 96ms forwards;}.FSeUjoxI_10{stroke-dasharray:664 666;stroke-dashoffset:665;animation:FSeUjoxI_draw 1700ms ease-out 107ms forwards;}.FSeUjoxI_11{stroke-dasharray:101 103;stroke-dashoffset:102;animation:FSeUjoxI_draw 1700ms ease-out 117ms forwards;}.FSeUjoxI_12{stroke-dasharray:32 34;stroke-dashoffset:33;animation:FSeUjoxI_draw 1700ms ease-out 128ms forwards;}.FSeUjoxI_13{stroke-dasharray:41 43;stroke-dashoffset:42;animation:FSeUjoxI_draw 1700ms ease-out 139ms forwards;}.FSeUjoxI_14{stroke-dasharray:229 231;stroke-dashoffset:230;animation:FSeUjoxI_draw 1700ms ease-out 150ms forwards;}.FSeUjoxI_15{stroke-dasharray:326 328;stroke-dashoffset:327;animation:FSeUjoxI_draw 1700ms ease-out 160ms forwards;}.FSeUjoxI_16{stroke-dasharray:37 39;stroke-dashoffset:38;animation:FSeUjoxI_draw 1700ms ease-out 171ms forwards;}.FSeUjoxI_17{stroke-dasharray:128 130;stroke-dashoffset:129;animation:FSeUjoxI_draw 1700ms ease-out 182ms forwards;}.FSeUjoxI_18{stroke-dasharray:5 7;stroke-dashoffset:6;animation:FSeUjoxI_draw 1700ms ease-out 192ms forwards;}.FSeUjoxI_19{stroke-dasharray:29 31;stroke-dashoffset:30;animation:FSeUjoxI_draw 1700ms ease-out 203ms forwards;}.FSeUjoxI_20{stroke-dasharray:8 10;stroke-dashoffset:9;animation:FSeUjoxI_draw 1700ms ease-out 214ms forwards;}.FSeUjoxI_21{stroke-dasharray:61 63;stroke-dashoffset:62;animation:FSeUjoxI_draw 1700ms ease-out 224ms forwards;}.FSeUjoxI_22{stroke-dasharray:543 545;stroke-dashoffset:544;animation:FSeUjoxI_draw 1700ms ease-out 235ms forwards;}.FSeUjoxI_23{stroke-dasharray:3 5;stroke-dashoffset:4;animation:FSeUjoxI_draw 1700ms ease-out 246ms forwards;}.FSeUjoxI_24{stroke-dasharray:18 20;stroke-dashoffset:19;animation:FSeUjoxI_draw 1700ms ease-out 257ms forwards;}.FSeUjoxI_25{stroke-dasharray:63 65;stroke-dashoffset:64;animation:FSeUjoxI_draw 1700ms ease-out 267ms forwards;}.FSeUjoxI_26{stroke-dasharray:88 90;stroke-dashoffset:89;animation:FSeUjoxI_draw 1700ms ease-out 278ms forwards;}.FSeUjoxI_27{stroke-dasharray:89 91;stroke-dashoffset:90;animation:FSeUjoxI_draw 1700ms ease-out 289ms forwards;}.FSeUjoxI_28{stroke-dasharray:83 85;stroke-dashoffset:84;animation:FSeUjoxI_draw 1700ms ease-out 300ms forwards;}@keyframes FSeUjoxI_draw{100%{stroke-dashoffset:0;}}@keyframes FSeUjoxI_fade{0%{stroke-opacity:1;}93.54838709677419%{stroke-opacity:1;}100%{stroke-opacity:0;}}</style></svg>