<!--?xml version="1.0" encoding="UTF-8"?-->
<svg width="588px" height="418px" viewBox="0 0 588 418" version="1.1" xmlns="http://www.w3.org/2000/svg" xmlns:xlink="http://www.w3.org/1999/xlink" style="">
    <title>handshake-monochrome</title>
    <defs>
        <linearGradient x1="27.8179931%" y1="27.6402932%" x2="71.7120628%" y2="77.8637493%" id="linearGradient-1">
            <stop stop-color="#1990DD" stop-opacity="0.16" offset="0%"></stop>
            <stop stop-color="#1990DD" stop-opacity="0" offset="100%"></stop>
        </linearGradient>
    </defs>
    <g id="Web" stroke="none" stroke-width="1" fill="none" fill-rule="evenodd">
        <g id="0.-Contact-modal_desktop" transform="translate(-152.000000, -304.000000)">
            <g id="handshake-monochrome" transform="translate(152.000000, 304.000000)">
                <path d="M540.267832,240.525583 L482.495474,271.167588 L420.922602,164.498293 C430.245474,159.094878 444.71122,150.519648 461.136694,140.709675 C439.353117,116.711491 417.705474,95.3073984 394.375637,73.2406233 C353.75374,34.6577507 308.119241,-6.12840108 267.338753,0.770298103 C239.993171,5.40907859 214.913171,31.7181572 187.703523,59.7094309 L325.705827,59.7094309 L325.705827,116.179079 L300.818401,116.179079 L291.031084,136.750569 L281.243767,116.179079 L183.444228,116.179079 L183.444228,64.0706775 C171.549919,76.287832 159.168509,88.6352575 146.005474,99.4817344 C133.267236,109.948726 119.775691,119.039377 106.357778,127.569295 L198.804878,205.777209 C198.804878,205.777209 267.299106,184.724282 273.166965,185.386965 C279.646531,186.123279 287.785637,190.569485 296.683713,197.349241 C302.257046,194.993035 306.878835,193.106938 309.274688,192.22336 C319.356531,188.55878 352.360407,200.475745 359.683902,201.393306 C367.007398,202.310867 389.017534,191.305799 392.789729,189.074201 L445.419214,280.263902 C445.419214,280.263902 393.877209,311.296721 373.243415,322.94748 C359.615935,344.164661 329.064553,372.223902 278.995176,374.432846 C276.163198,373.300054 266.154986,367.177317 252.249973,358.279241 L253.224173,357.996043 L252.527507,357.922412 C248.319187,363.44477 238.588509,369.98664 232.760298,369.131382 C225.601057,368.077886 174.880325,334.61523 168.355447,325.145095 C163.008672,317.37981 164.02252,304.817154 164.56626,300.535203 C134.54729,280.456477 109.444634,263.487263 105.83103,260.927154 C97.9864499,255.353821 44.7962331,222.315962 16.8785908,199.303306 C-7.36314363,238.237344 -5.49403794,294.061301 22.4745799,329.698916 C51.5250136,366.514634 108.566721,381.778997 153.340298,391.436043 C197.943957,401.115745 230.217182,405.227778 265.871789,409.923198 C301.373469,414.760217 340.545393,420.191951 403.505935,416.374444 C466.591084,412.709864 553.600786,399.796043 574.716016,359.734878 C590.660054,329.398726 569.103035,283.532005 540.267832,240.525583 Z" id="Path" fill="url(#linearGradient-1)" fill-rule="nonzero" class="KzMlQvmf_0"></path>
                <path id="Path-2" stroke="#1990DD" stroke-width="2.5" d="M137,153L103,186" class="KzMlQvmf_1"></path>
                <path id="Path-2" stroke="#1990DD" stroke-width="2.5" d="M148,161.5L114,194.5" class="KzMlQvmf_2"></path>
                <path id="Path-2" stroke="#1990DD" stroke-width="2.5" d="M159,170.5L125,203.5" class="KzMlQvmf_3"></path>
                <path id="Path-2" stroke="#1990DD" stroke-width="2.5" d="M427,166L393,199" class="KzMlQvmf_4"></path>
                <path id="Path-2" stroke="#1990DD" stroke-width="2.5" d="M435,179L401,212" class="KzMlQvmf_5"></path>
                <path id="Path-2" stroke="#1990DD" stroke-width="2.5" d="M443,192L409,225" class="KzMlQvmf_6"></path>
                <path id="Path-2" stroke="#1990DD" stroke-width="2.5" d="M451,205L417,238" class="KzMlQvmf_7"></path>
                <path id="Path-2" stroke="#1990DD" stroke-width="2.5" d="M459,218L425,251" class="KzMlQvmf_8"></path>
                <path id="Path-2" stroke="#1990DD" stroke-width="2.5" d="M467,231L433,264" class="KzMlQvmf_9"></path>
                <path id="Path-2" stroke="#1990DD" stroke-width="2.5" d="M475,244L441,277" class="KzMlQvmf_10"></path>
                <path d="M252.232981,358.250921 C266.137995,367.148997 276.157534,373.29439 278.978184,374.404526 C329.047561,372.218238 359.598943,344.136341 373.226423,322.91916" id="Path" stroke="#000000" stroke-width="2.5" stroke-linecap="round" stroke-linejoin="round" class="KzMlQvmf_11"></path>
                <path d="M4.32159892,43.2839566 C4.32159892,43.2839566 29.3619512,62.9492141 47.6282114,77.8850678 L198.804878,205.777209 C198.804878,205.777209 267.299106,184.724282 273.166965,185.386965 C279.646531,186.123279 287.785637,190.569485 296.683713,197.349241" id="Path" stroke="#000000" stroke-width="2.5" stroke-linecap="round" stroke-linejoin="round" class="KzMlQvmf_12"></path>
                <path d="M164.549268,300.506883 C134.530298,280.428157 109.427642,263.458943 105.814038,260.898835 C96.5194851,254.311653 23.3015176,209 4.32159892,187.686531" id="Path" stroke="#000000" stroke-width="2.5" stroke-linecap="round" stroke-linejoin="round" class="KzMlQvmf_13"></path>
                <path id="Oval" fill="#000000" fill-rule="nonzero" d="M462.3431162,290.317425A10.0818428,10.0818428 0,1,1 482.5068018,290.317425A10.0818428,10.0818428 0,1,1 462.3431162,290.317425" class="KzMlQvmf_14"></path>
                <path d="M392.772737,189.074201 C389.000542,191.305799 367.001734,202.310867 359.666911,201.393306 C352.332087,200.475745 319.328211,188.55878 309.257696,192.22336 C299.187182,195.88794 251.485339,216.974851 251.485339,216.974851 C251.485339,216.974851 208.393957,262.813252 207.476396,263.730813 C206.558835,264.648374 207.42542,271.779295 208.739458,272.917751 C210.053496,274.056206 224.859079,278.525068 227.311572,277.035447 C229.764065,275.545827 262.88122,250.137317 268.839702,250.137317 C274.798184,250.137317 331.641653,290.991436 365.500786,327.053848 C373.311382,323.655474 445.396558,280.235583 445.396558,280.235583 L392.772737,189.074201 Z" id="Path" stroke="#000000" stroke-width="2.5" fill="#FFFFFF" stroke-linecap="round" stroke-linejoin="round" class="KzMlQvmf_15"></path>
                <path d="M164.764499,299.017263 C164.764499,299.017263 161.813577,315.64664 168.338455,325.116775 C174.863333,334.586911 225.584065,368.049566 232.743306,369.103062 C239.902547,370.156558 252.94664,360.040732 254.419268,354.376775 C255.891897,348.712818 246.421762,327.85813 243.68607,324.924201 C240.950379,321.990271 201.801111,294.599377 197.592791,293.95935 C193.384472,293.319322 171.289377,295.018509 164.764499,299.017263 Z" id="Path" stroke="#000000" stroke-width="2.5" fill="#FFFFFF" stroke-linecap="round" stroke-linejoin="round" class="KzMlQvmf_16"></path>
                <path id="Path" stroke="#000000" stroke-width="2.5" stroke-linecap="round" stroke-linejoin="round" d="M169.714797,327.053848L197.745718,305.808347" class="KzMlQvmf_17"></path>
                <path id="Path" stroke="#000000" stroke-width="2.5" stroke-linecap="round" stroke-linejoin="round" d="M191.713604,344.861328L219.75019,323.615827" class="KzMlQvmf_18"></path>
                <path id="Path" stroke="#000000" stroke-width="2.5" stroke-linecap="round" stroke-linejoin="round" d="M213.174336,358.704038L234.476477,342.561762" class="KzMlQvmf_19"></path>
                <path id="Path" stroke="#000000" stroke-width="2.5" stroke-linecap="round" stroke-linejoin="round" d="M349.551084,348.678835L269.796911,283.860515" class="KzMlQvmf_20"></path>
                <path id="Path" stroke="#000000" stroke-width="2.5" stroke-linecap="round" stroke-linejoin="round" d="M319.888943,365.183604L269.304146,324.074607" class="KzMlQvmf_21"></path>
                <path id="Path" stroke="#000000" stroke-width="2.5" stroke-linecap="round" stroke-linejoin="round" d="M294.599377,373.940081L252.974959,340.114932" class="KzMlQvmf_22"></path>
                <path d="M83.608515,182.808008 L102.425127,182.808008 C115.536367,182.808008 126.165127,193.436768 126.165127,206.548008 L126.165127,231.493021 C126.165127,244.604261 115.536367,255.233021 102.425127,255.233021 L83.608515,255.233021 C70.4972751,255.233021 59.868515,244.604261 59.868515,231.493021 L59.868515,206.548008 C59.868515,193.436768 70.4972751,182.808008 83.608515,182.808008 Z" id="Rectangle" fill="#000000" fill-rule="nonzero" transform="translate(93.016821, 219.020515) rotate(40.530000) translate(-93.016821, -219.020515) " class="KzMlQvmf_23"></path>
                <path id="Oval" stroke="#000000" stroke-width="8.09" d="M116.93238489999999,370.813577A11.3505691,11.3505691 0,1,1 139.6335231,370.813577A11.3505691,11.3505691 0,1,1 116.93238489999999,370.813577" class="KzMlQvmf_24"></path>
                <path id="Oval" stroke="#000000" stroke-width="8.09" d="M409.57203213,353.923659A8.24672087,8.24672087 0,1,1 426.06547387,353.923659A8.24672087,8.24672087 0,1,1 409.57203213,353.923659" class="KzMlQvmf_25"></path>
                <path id="Oval" stroke="#000000" stroke-width="8.09" d="M353.40257413,162.20439A8.24672087,8.24672087 0,1,1 369.89601587,162.20439A8.24672087,8.24672087 0,1,1 353.40257413,162.20439" class="KzMlQvmf_26"></path>
                <path id="Path" stroke="#000000" stroke-width="2.5" stroke-linecap="round" stroke-linejoin="round" d="M325.705827,59.7094309L183.444228,59.7094309L183.444228,116.179079L281.243767,116.179079L291.031084,136.750569L300.818401,116.179079L325.705827,116.179079Z" class="KzMlQvmf_27"></path>
                <path id="Path" stroke="#000000" stroke-width="2.5" stroke-linecap="round" stroke-linejoin="round" d="M202.75832,74.0845528L306.38607,74.0845528" class="KzMlQvmf_28"></path>
                <path id="Path" stroke="#000000" stroke-width="2.5" stroke-linecap="round" stroke-linejoin="round" d="M202.75832,87.9442547L306.38607,87.9442547" class="KzMlQvmf_29"></path>
                <path id="Path" stroke="#000000" stroke-width="2.5" stroke-linecap="round" stroke-linejoin="round" d="M202.75832,101.798293L306.38607,101.798293" class="KzMlQvmf_30"></path>
                <path d="M586.219512,65.4810027 L575.945095,71.6717073 C575.945095,71.6717073 457.919566,143.065881 420.922602,164.498293 L482.512466,271.167588 L586.219512,216.136585" id="Path" stroke="#000000" stroke-width="2.5" fill="#FFFFFF" stroke-linecap="round" stroke-linejoin="round" class="KzMlQvmf_31"></path>
            </g>
        </g>
    </g>
<style data-made-with="vivus-instant">.KzMlQvmf_0{stroke-dasharray:2917 2919;stroke-dashoffset:2918;animation:KzMlQvmf_draw 2000ms linear 0ms forwards;}.KzMlQvmf_1{stroke-dasharray:48 50;stroke-dashoffset:49;animation:KzMlQvmf_draw 2000ms linear 32ms forwards;}.KzMlQvmf_2{stroke-dasharray:48 50;stroke-dashoffset:49;animation:KzMlQvmf_draw 2000ms linear 64ms forwards;}.KzMlQvmf_3{stroke-dasharray:48 50;stroke-dashoffset:49;animation:KzMlQvmf_draw 2000ms linear 96ms forwards;}.KzMlQvmf_4{stroke-dasharray:48 50;stroke-dashoffset:49;animation:KzMlQvmf_draw 2000ms linear 129ms forwards;}.KzMlQvmf_5{stroke-dasharray:48 50;stroke-dashoffset:49;animation:KzMlQvmf_draw 2000ms linear 161ms forwards;}.KzMlQvmf_6{stroke-dasharray:48 50;stroke-dashoffset:49;animation:KzMlQvmf_draw 2000ms linear 193ms forwards;}.KzMlQvmf_7{stroke-dasharray:48 50;stroke-dashoffset:49;animation:KzMlQvmf_draw 2000ms linear 225ms forwards;}.KzMlQvmf_8{stroke-dasharray:48 50;stroke-dashoffset:49;animation:KzMlQvmf_draw 2000ms linear 258ms forwards;}.KzMlQvmf_9{stroke-dasharray:48 50;stroke-dashoffset:49;animation:KzMlQvmf_draw 2000ms linear 290ms forwards;}.KzMlQvmf_10{stroke-dasharray:48 50;stroke-dashoffset:49;animation:KzMlQvmf_draw 2000ms linear 322ms forwards;}.KzMlQvmf_11{stroke-dasharray:143 145;stroke-dashoffset:144;animation:KzMlQvmf_draw 2000ms linear 354ms forwards;}.KzMlQvmf_12{stroke-dasharray:358 360;stroke-dashoffset:359;animation:KzMlQvmf_draw 2000ms linear 387ms forwards;}.KzMlQvmf_13{stroke-dasharray:197 199;stroke-dashoffset:198;animation:KzMlQvmf_draw 2000ms linear 419ms forwards;}.KzMlQvmf_14{stroke-dasharray:64 66;stroke-dashoffset:65;animation:KzMlQvmf_draw 2000ms linear 451ms forwards;}.KzMlQvmf_15{stroke-dasharray:615 617;stroke-dashoffset:616;animation:KzMlQvmf_draw 2000ms linear 483ms forwards;}.KzMlQvmf_16{stroke-dasharray:254 256;stroke-dashoffset:255;animation:KzMlQvmf_draw 2000ms linear 516ms forwards;}.KzMlQvmf_17{stroke-dasharray:36 38;stroke-dashoffset:37;animation:KzMlQvmf_draw 2000ms linear 548ms forwards;}.KzMlQvmf_18{stroke-dasharray:36 38;stroke-dashoffset:37;animation:KzMlQvmf_draw 2000ms linear 580ms forwards;}.KzMlQvmf_19{stroke-dasharray:27 29;stroke-dashoffset:28;animation:KzMlQvmf_draw 2000ms linear 612ms forwards;}.KzMlQvmf_20{stroke-dasharray:103 105;stroke-dashoffset:104;animation:KzMlQvmf_draw 2000ms linear 645ms forwards;}.KzMlQvmf_21{stroke-dasharray:66 68;stroke-dashoffset:67;animation:KzMlQvmf_draw 2000ms linear 677ms forwards;}.KzMlQvmf_22{stroke-dasharray:54 56;stroke-dashoffset:55;animation:KzMlQvmf_draw 2000ms linear 709ms forwards;}.KzMlQvmf_23{stroke-dasharray:237 239;stroke-dashoffset:238;animation:KzMlQvmf_draw 2000ms linear 741ms forwards;}.KzMlQvmf_24{stroke-dasharray:72 74;stroke-dashoffset:73;animation:KzMlQvmf_draw 2000ms linear 774ms forwards;}.KzMlQvmf_25{stroke-dasharray:52 54;stroke-dashoffset:53;animation:KzMlQvmf_draw 2000ms linear 806ms forwards;}.KzMlQvmf_26{stroke-dasharray:52 54;stroke-dashoffset:53;animation:KzMlQvmf_draw 2000ms linear 838ms forwards;}.KzMlQvmf_27{stroke-dasharray:424 426;stroke-dashoffset:425;animation:KzMlQvmf_draw 2000ms linear 870ms forwards;}.KzMlQvmf_28{stroke-dasharray:104 106;stroke-dashoffset:105;animation:KzMlQvmf_draw 2000ms linear 903ms forwards;}.KzMlQvmf_29{stroke-dasharray:104 106;stroke-dashoffset:105;animation:KzMlQvmf_draw 2000ms linear 935ms forwards;}.KzMlQvmf_30{stroke-dasharray:104 106;stroke-dashoffset:105;animation:KzMlQvmf_draw 2000ms linear 967ms forwards;}.KzMlQvmf_31{stroke-dasharray:434 436;stroke-dashoffset:435;animation:KzMlQvmf_draw 2000ms linear 1000ms forwards;}@keyframes KzMlQvmf_draw{100%{stroke-dashoffset:0;}}@keyframes KzMlQvmf_fade{0%{stroke-opacity:1;}94.44444444444444%{stroke-opacity:1;}100%{stroke-opacity:0;}}</style></svg>