<svg xmlns="http://www.w3.org/2000/svg" viewBox="0 0 1178.32 308.57"><g id="Layer_2" data-name="Layer 2"><g id="Layer_1-2" data-name="Layer 1"><path d="M440.15,125.79q-16.77,0-24.5-6.45t-7.74-20q0-13.86,7.74-20.15t24.5-6.28q16.75,0,24.34,6.28t7.58,20.15q0,13.55-7.58,20T440.15,125.79Z"/><path d="M190.52,76.65v142q0,45.13-24,67.54T95.1,308.57Q48,308.57,24,286.17T0,218.63v-142H55.77v143q0,22.89,9.83,34t29.5,11.12q20,0,29.82-11.12t9.83-34V76.65Z"/><path d="M378.26,198V305.35H323.14V212.51q0-16.75-6.3-23.06t-16.28-6.28a29.86,29.86,0,0,0-14.34,3.54c-4.41,2.38-8,6.29-10.63,11.77s-4,12.63-4,21.44v85.43H216.43V144.16h49.64l1.51,32.66a67.64,67.64,0,0,1,6.55-12.19A51.59,51.59,0,0,1,294.6,146.9q12.4-6,28.2-6,16.79,0,29.18,6.45a45.93,45.93,0,0,1,19.35,19Q378.25,179,378.26,198Z"/><rect x="411.23" y="144.16" width="55.13" height="161.19"/><polygon points="682.56 305.35 620.98 305.35 582.37 239.25 556.18 268.56 556.18 305.35 501.06 305.35 501.06 57.73 556.18 0 556.18 211.62 617.43 144.16 678.68 144.16 619.34 207.46 682.56 305.35"/><path d="M766,140.94q25.46,0,44.65,9.83a71.59,71.59,0,0,1,30,28.69q10.8,18.85,10.8,45.3t-10.8,45.29a71.53,71.53,0,0,1-30,28.69q-19.18,9.84-44.65,9.83-25.15,0-44.33-9.83a71.42,71.42,0,0,1-30-28.69q-10.8-18.85-10.8-45.29t10.8-45.3a71.48,71.48,0,0,1,30-28.69Q740.84,140.95,766,140.94Zm0,39a27,27,0,0,0-16,4.68q-6.62,4.68-10.15,14.51t-3.55,25.63q0,15.8,3.55,25.62T750,264.89a26.88,26.88,0,0,0,16,4.68q9.67,0,16.28-4.68t10.15-14.51q3.55-9.82,3.55-25.62t-3.55-25.63q-3.54-9.84-10.15-14.51T766,179.94Z"/><path d="M878.13,305.35V144.16h49L929.39,179q5.8-18.06,17.89-28t31.11-10a48.74,48.74,0,0,1,10.48,1,18.31,18.31,0,0,1,6.6,2.57L990,189.94a39.61,39.61,0,0,0-8.22-2.1A75.78,75.78,0,0,0,970,187,39.89,39.89,0,0,0,952,191.23a33.75,33.75,0,0,0-13.54,12.25q-5.16,8.06-5.15,20.63v81.24Z"/><path d="M877.93,305.35V144.16h49L929.19,179q5.8-18.06,17.89-28t31.11-10a48.74,48.74,0,0,1,10.48,1,18.31,18.31,0,0,1,6.6,2.57l-5.48,45.46a39.61,39.61,0,0,0-8.22-2.1,75.78,75.78,0,0,0-11.76-.8,39.89,39.89,0,0,0-18.06,4.19,33.75,33.75,0,0,0-13.54,12.25q-5.16,8.06-5.15,20.63v81.24Z"/><path d="M1178.32,198V305.35h-55.13V212.51q0-16.75-6.29-23.06t-16.27-6.28a29.87,29.87,0,0,0-14.35,3.54c-4.42,2.38-8,6.29-10.65,11.77s-4,12.63-4,21.44v85.43h-55.13V144.16h49.65l1.51,32.66a67,67,0,0,1,6.55-12.19,51.59,51.59,0,0,1,20.47-17.73q12.4-6,28.2-6,16.76,0,29.18,6.45a45.91,45.91,0,0,1,19.34,19Q1178.31,179,1178.32,198Z"/></g></g></svg>