<?xml version="1.0"?>
<svg xmlns="http://www.w3.org/2000/svg" id="Layer_5" enable-background="new 0 0 64 64" height="512px" viewBox="0 0 64 64" width="512px"><g><g><path d="m54 23h6c1.654 0 3-1.346 3-3v-16c0-1.654-1.346-3-3-3h-26c-1.654 0-3 1.346-3 3v8h-2.721l-.869 2.606c-1.561.411-3.057 1.032-4.46 1.852l-1.95-.976v-14.482h-20v22h15.431c-.805 1.389-1.418 2.868-1.824 4.41l-2.607.869v6.721h-8c-1.654 0-3 1.346-3 3v16c0 1.654 1.346 3 3 3h6v.172c0 1.424-.513 2.767-1.441 3.828h-2.559v2h22v-2h-2.559c-.928-1.062-1.441-2.404-1.441-3.828v-.172h6c1.654 0 3-1.346 3-3v-2h2.721l.869-2.606c1.561-.411 3.057-1.032 4.46-1.852l1.95.976v14.482h20v-22h-15.431c.805-1.389 1.418-2.868 1.824-4.41l2.607-.869v-6.721h6v-2h-2.559c-.928-1.062-1.441-2.404-1.441-3.828zm6-2h-26c-.551 0-1-.448-1-1v-3h28v3c0 .552-.449 1-1 1zm-21.441 6h-2.559v2h7.615c.252.975.385 1.98.385 3 0 6.28-4.851 11.438-11 11.949v-5.949c0-1.654-1.346-3-3-3h-9.615c-.252-.976-.385-1.981-.385-3 0-6.281 4.853-11.441 11.005-11.95.028 1.631 1.358 2.95 2.995 2.95h6v.172c0 1.424-.513 2.766-1.441 3.828zm-4.559-24h26c.551 0 1 .448 1 1v11h-28v-11c0-.552.449-1 1-1zm-31 0h16v13.716l-2 2v-5.716h-12v6h11.716l-1.489 1.489.255.511h-12.482zm12 12v2h-8v-2zm-1 14.721 2.294-.765.125-.548c.396-1.725 1.078-3.367 2.026-4.881l.298-.477-1.083-2.167 3.223-3.224 2.168 1.084.476-.298c1.514-.948 3.156-1.63 4.881-2.026l.547-.126.766-2.293h1.279v4.051c-7.253.516-13 6.567-13 13.949 0 1.015.116 2.018.331 3h-4.331zm-10 7.279h26c.551 0 1 .448 1 1v11h-28v-11c0-.552.449-1 1-1zm19.003 24h-12.006c.651-1.156 1.003-2.464 1.003-3.828v-.172h10v.172c0 1.364.352 2.672 1.003 3.828zm6.997-6h-26c-.551 0-1-.448-1-1v-3h28v3c0 .552-.449 1-1 1zm31 6h-16v-13.715l2-2.001v5.716h12v-6h-11.716l1.489-1.489-.255-.511h12.482zm-12-12v-2h8v2zm1-14.721-2.294.765-.125.548c-.396 1.725-1.078 3.367-2.026 4.881l-.298.477 1.083 2.167-3.223 3.224-2.168-1.084-.476.298c-1.514.948-3.156 1.63-4.881 2.026l-.547.126-.766 2.293h-1.279v-4.051c7.253-.516 13-6.567 13-13.949 0-1.016-.116-2.019-.33-3h4.33zm-9.003-7.279c.651-1.156 1.003-2.464 1.003-3.828v-.172h10v.172c0 1.364.352 2.672 1.003 3.828z" data-original="#000000" class="active-path" data-old_color="#000000" fill="#198FDD"/><path d="m47 53h12v2h-12z" data-original="#000000" class="active-path" data-old_color="#000000" fill="#198FDD"/><path d="m47 57h2v2h-2z" data-original="#000000" class="active-path" data-old_color="#000000" fill="#198FDD"/><path d="m51 57h8v2h-8z" data-original="#000000" class="active-path" data-old_color="#000000" fill="#198FDD"/><path d="m5 9h12v2h-12z" data-original="#000000" class="active-path" data-old_color="#000000" fill="#198FDD"/><path d="m15 5h2v2h-2z" data-original="#000000" class="active-path" data-old_color="#000000" fill="#198FDD"/><path d="m5 5h8v2h-8z" data-original="#000000" class="active-path" data-old_color="#000000" fill="#198FDD"/><path d="m41.939 33.105c.04-.363.061-.731.061-1.105 0-.375-.021-.746-.062-1.111l-1.987.223c.032.29.049.587.049.888 0 .3-.017.596-.049.887z" data-original="#000000" class="active-path" data-old_color="#000000" fill="#198FDD"/><path d="m41.453 35.27-1.891-.653c-.193.56-.45 1.098-.763 1.601l1.698 1.057c.392-.631.713-1.305.956-2.005z" data-original="#000000" class="active-path" data-old_color="#000000" fill="#198FDD"/><path d="m39.127 39.015-1.426-1.402c-.381.387-.804.737-1.257 1.04l1.112 1.662c.566-.378 1.094-.816 1.571-1.3z" data-original="#000000" class="active-path" data-old_color="#000000" fill="#198FDD"/></g></g> </svg>
