<?xml version="1.0" encoding="utf-8"?>
<!-- Generator: Adobe Illustrator 24.2.3, SVG Export Plug-In . SVG Version: 6.00 Build 0)  -->
<svg version="1.1" id="b759170a-51c3-4e2f-999d-77dec9fd6d11"
	 xmlns="http://www.w3.org/2000/svg" xmlns:xlink="http://www.w3.org/1999/xlink" x="0px" y="0px" viewBox="0 0 1140.6 787.3"
	 style="enable-background:new 0 0 1140.6 787.3;" xml:space="preserve">
<style type="text/css">
	.st0{opacity:0.1;fill:#F15C68;enable-background:new    ;}
	.st1{fill:#F15C68;}
	.st2{fill:#444053;}
	.st3{fill:#AFC0E0;}
	.st4{opacity:0.2;fill:#FFFFFF;enable-background:new    ;}
	.st5{opacity:0.1;enable-background:new    ;}
	.st6{fill:#E3E8F4;}
	.st7{fill:none;stroke:#535461;stroke-width:2;stroke-miterlimit:10;}
	.st8{opacity:0.25;enable-background:new    ;}
	.st9{fill:#2F2E41;}
	.st10{fill:#FFB8B8;}
	.st11{fill:#D0CDE1;}
	.st12{fill:#3F3D56;}
</style>
<path class="st0" d="M8.8,414.5c20.2-32.9,65.7-27.2,98.1-10s64.6,42.8,100.2,37.9c30-4.2,54.6-30.3,67.9-60.5s17.2-64.2,20.9-97.5
	c4.7-41.9,9.4-83.8,14.1-125.7c1.7-15.3,3.8-31.5,12.4-43.6c11.4-16,32.3-20.9,50.1-16.1s33.1,17.7,46.1,32.1
	c41.7,46.1,65.4,108.4,101.9,159.7c7.4,10.4,15.8,20.8,26.9,25.8c16,7.2,34.4,2.1,50-6c51-26.3,85.3-79.9,118.9-130
	c16.4-24.3,36.3-50.4,63.6-53c28.7-2.8,53.6,21.6,70.4,47.5c54.1,83.2,65.7,196.9,131,269.5c8.1,9,17.1,17.3,27.4,22.9
	c3.4,1.8,6.9,3.4,10.6,4.7c57,19.7,76,98.9,33.8,145.9c-0.9,1-1.8,2-2.8,3c-6.3,6.6-13.3,12.9-21.8,14.8c-7.9,1.8-16-0.3-23.8-2.5
	c-49.9-14.5-99.1-36.8-150.7-35.7c-50.2,1-97.7,24.2-147.3,32.5c-33.3,5.6-67.3,4.5-101,3.3c-112.3-4-224.6-8.7-336.9-14.1
	c-55.7-2.6-111.5-5-167.2-7.8c-42.9-2.2-70.3-7.1-75.2-57C22.1,510.7-17.1,456.7,8.8,414.5z"/>
<path class="st1" d="M148.7,586.8c0,0,13.2-3,21.9,5.9c0,0-5.6,5-18.6-0.5L148.7,586.8z"/>
<path class="st1" d="M147.3,586.6c0,0-7.8,11.1-2.9,22.5c0,0,6.8-3.2,6.6-17.5L147.3,586.6z"/>
<path class="st1" d="M138.5,569.9c0,0,4.7-10.2,27,2.1c0,0-2.4,6.8-11.9,6.9S141.3,574.9,138.5,569.9z"/>
<path class="st1" d="M137.1,569.3c0,0-11.2-0.5-10.5,24.9c0,0,7.1,1,11.6-7.4S140.2,574.2,137.1,569.3z"/>
<path class="st1" d="M129.3,549.5c0,0,5-17.7,28.5-6.9c0,0-4.1,16.2-25.8,12.6L129.3,549.5z"/>
<path class="st1" d="M120.6,524.2c0,0,10.6-18.2,32.5-3.4c0,0-6.2,16.9-30.3,9.5L120.6,524.2z"/>
<path class="st1" d="M116.4,499.8c0,0,12.6-17,34.4-2.3c0,0-12.1,14.9-34.1,6.4L116.4,499.8z"/>
<path class="st1" d="M112.7,476.1c0,0,12.8-17.7,33.6-3.2c0,0-14.7,15.8-33.3,7.1L112.7,476.1z"/>
<path class="st1" d="M112.5,454.8c0,0,13.1-22.5,32.7-9.2c0,0-14.4,19.6-32.4,13.3L112.5,454.8z"/>
<path class="st1" d="M114.3,429.8c0,0,14-22.4,33.1-7.2c0,0-17.1,19.8-32.9,11.1L114.3,429.8z"/>
<path class="st1" d="M117.9,407.4c0,0,17-21.3,33.6-14.4c0,0-17.7,22.6-34,19.8L117.9,407.4z"/>
<path class="st1" d="M122.9,386c0,0,19.5-26,32.4-18.6c0,0-14.3,20.1-33.6,23.3L122.9,386z"/>
<path class="st1" d="M130.5,361c0,0,17.2-21.3,31-17.2c0,0-14.4,21.9-33.1,23.7L130.5,361z"/>
<path class="st1" d="M137.4,337.7c0,0,19.2-20.6,28.3-17.8c0,0-13.4,22.4-28.9,22.1L137.4,337.7z"/>
<path class="st1" d="M144.1,316.2c0,0,16.1-24.2,25.8-23c0,0-9.3,21.2-25.7,25.3L144.1,316.2z"/>
<path class="st1" d="M151.1,287.2c0,0,14.4-18.7,22.8-19.2c0,0-10.7,24.3-23.1,25L151.1,287.2z"/>
<path class="st1" d="M155.1,268l12.6-37.7c0,0,3,33.1-14,44.6L155.1,268z"/>
<path class="st1" d="M158.5,227.2c0,0,0.4-30.8-1.3-33.2c0,0,12.5,24.7,2.1,46.7L158.5,227.2z"/>
<path class="st1" d="M128.6,549.2c0,0-16.3-8.6-24.8,15.7c0,0,14.5,8.3,27-9.8L128.6,549.2z"/>
<path class="st1" d="M120,523.2c0,0-19.7-7.5-27.3,17.9c0,0,15.5,9.2,29.5-11.8L120,523.2z"/>
<path class="st1" d="M115.6,501.3c0,0-14.8-15.1-34.4,2.3c0,0,13.9,13.2,34.6,1.8L115.6,501.3z"/>
<path class="st1" d="M112.2,476.1c0,0-15-15.8-33.7,1.4c0,0,16.7,13.7,34,2.5L112.2,476.1z"/>
<path class="st1" d="M112.6,455.4c0,0-11.4-23.5-31.8-11.7c0,0,12.9,20.6,31.2,15.7L112.6,455.4z"/>
<path class="st1" d="M115.4,429.6c0,0-11.3-23.9-32.1-11.1c0,0,14.7,21.6,31.3,14.9L115.4,429.6z"/>
<path class="st1" d="M120,407.3c0,0-5.6-26.7-23.6-27.9c0,0,5.7,28.1,21.5,32.9L120,407.3z"/>
<path class="st1" d="M123.4,386c0,0-3.7-32.3-18.5-32.5c0,0,2.1,24.6,17.1,37.1L123.4,386z"/>
<path class="st1" d="M132,360c0,0-6.2-26.7-20.5-29c0,0,3.5,26,19.5,35.7L132,360z"/>
<path class="st1" d="M139.1,337.8c0,0-2-28.1-10.9-31.6c0,0-3.6,25.8,8.6,35.4L139.1,337.8z"/>
<path class="st1" d="M144.8,315.8c0,0-3.1-28.8-12.3-32.3c0,0-1.5,23.1,11.1,34.3L144.8,315.8z"/>
<path class="st1" d="M152.5,289.5c0,0-1.6-23.5-8.4-28.6c0,0-4.6,26.2,5.4,33.6L152.5,289.5z"/>
<path class="st1" d="M154.3,266.9l-8.8-38.7c0,0-6.2,32.6,9.6,45.8L154.3,266.9z"/>
<path class="st1" d="M152.9,227.9c0,0-17.6-25.3-17.5-28.2c0,0,3.5,27.5,24.4,39.9L152.9,227.9z"/>
<path class="st1" d="M154.3,220c0,0-17.5-36.4-24.4-39c0,0,22.1,9.4,25.6,37.8L154.3,220z"/>
<path class="st2" d="M150.8,293.2l-1-0.2c9.9-42,11.2-68.5,3.9-74.6l0.7-0.8C162.1,224.1,160.9,250.2,150.8,293.2z"/>
<path class="st2" d="M122.5,391.9l-1.6-0.4c1.1-3.9,2.3-7.8,3.5-11.7c11-33.7,20.1-65,25.8-88.9l1.3-0.8
	c-5.6,24-14.5,56.4-25.5,90.2C124.8,384.2,123.6,388.1,122.5,391.9z"/>
<path class="st2" d="M169.6,616.3c-0.2-0.2-22.2-21.9-39.1-60.2c-9.9-22.5-16.2-46.3-18.6-70.8c-3-30.5,1.1-65.1,10-96.9l1.3,1.3
	c-20,71.3-6.2,130.3,9.2,165.4c16.7,38,38.5,59.5,38.7,59.7L169.6,616.3z"/>
<path class="st1" d="M193.8,502.1c0,0,8-1.8,13.2,3.5c0,0-3.4,3-11.3-0.3L193.8,502.1z"/>
<path class="st1" d="M192.9,502c0,0-4.7,6.7-1.7,13.6c0,0,4.1-2,4-10.5L192.9,502z"/>
<path class="st1" d="M187.6,491.9c0,0,2.8-6.1,16.3,1.3c0,0-1.4,4.1-7.2,4.2S189.3,494.9,187.6,491.9z"/>
<path class="st1" d="M186.8,491.5c0,0-6.8-0.3-6.4,15.1c0,0,4.3,0.6,7-4.5S188.6,494.5,186.8,491.5z"/>
<path class="st1" d="M182,479.6c0,0,3.1-10.7,17.2-4.2c0,0-2.5,9.8-15.6,7.6L182,479.6z"/>
<path class="st1" d="M176.8,464.3c0,0,6.4-11,19.6-2.1c0,0-3.8,10.2-18.3,5.8L176.8,464.3z"/>
<path class="st1" d="M174.3,449.5c0,0,7.6-10.2,20.8-1.4c0,0-7.3,9-20.6,3.9L174.3,449.5z"/>
<path class="st1" d="M172,435.2c0,0,7.7-10.7,20.3-1.9c0,0-8.9,9.6-20.1,4.3L172,435.2z"/>
<path class="st1" d="M171.9,422.3c0,0,8-13.6,19.7-5.5c0,0-8.7,11.8-19.6,8L171.9,422.3z"/>
<path class="st1" d="M173,407.2c0,0,8.5-13.5,20-4.4c0,0-10.3,11.9-19.9,6.7L173,407.2z"/>
<path class="st1" d="M175.2,393.6c0,0,10.3-12.9,20.3-8.7c0,0-10.7,13.7-20.5,11.9L175.2,393.6z"/>
<path class="st1" d="M178.2,380.7c0,0,11.8-15.7,19.6-11.3c0,0-8.6,12.1-20.3,14.1L178.2,380.7z"/>
<path class="st1" d="M182.8,365.6c0,0,10.4-12.9,18.8-10.4c0,0-8.7,13.2-20,14.3L182.8,365.6z"/>
<path class="st1" d="M186.9,351.5c0,0,11.6-12.5,17.1-10.8c0,0-8.1,13.5-17.5,13.4L186.9,351.5z"/>
<path class="st1" d="M191,338.5c0,0,9.7-14.6,15.6-13.9c0,0-5.6,12.8-15.5,15.3L191,338.5z"/>
<path class="st1" d="M195.3,321c0,0,8.7-11.3,13.8-11.6c0,0-6.5,14.7-13.9,15.1L195.3,321z"/>
<path class="st1" d="M197.7,309.4l7.6-22.8c0,0,1.8,20-8.5,27L197.7,309.4z"/>
<path class="st1" d="M199.7,284.7c0,0,0.3-18.6-0.8-20c0,0,7.5,15,1.3,28.2L199.7,284.7z"/>
<path class="st1" d="M181.7,479.4c0,0-9.8-5.2-15,9.5c0,0,8.8,5,16.3-5.9L181.7,479.4z"/>
<path class="st1" d="M176.4,463.6c0,0-11.9-4.5-16.5,10.8c0,0,9.4,5.5,17.8-7.1L176.4,463.6z"/>
<path class="st1" d="M173.8,450.4c0,0-8.9-9.1-20.8,1.4c0,0,8.4,8,20.9,1.1L173.8,450.4z"/>
<path class="st1" d="M171.7,435.2c0,0-9.1-9.5-20.4,0.8c0,0,10.1,8.3,20.5,1.5L171.7,435.2z"/>
<path class="st1" d="M171.9,422.6c0,0-6.9-14.2-19.2-7.1c0,0,7.8,12.5,18.9,9.5L171.9,422.6z"/>
<path class="st1" d="M173.7,407.1c0,0-6.9-14.5-19.4-6.7c0,0,8.9,13.1,18.9,9L173.7,407.1z"/>
<path class="st1" d="M176.4,393.6c0,0-3.4-16.1-14.2-16.9c0,0,3.4,17,13,19.9L176.4,393.6z"/>
<path class="st1" d="M178.5,380.7c0,0-2.2-19.5-11.2-19.6c0,0,1.3,14.9,10.3,22.5L178.5,380.7z"/>
<path class="st1" d="M183.7,365c0,0-3.8-16.1-12.4-17.5c0,0,2.1,15.7,11.8,21.6L183.7,365z"/>
<path class="st1" d="M188,351.6c0,0-1.2-17-6.6-19.1c0,0-2.2,15.6,5.2,21.4L188,351.6z"/>
<path class="st1" d="M191.4,338.3c0,0-1.9-17.4-7.4-19.5c0,0-0.9,14,6.7,20.7L191.4,338.3z"/>
<path class="st1" d="M196.1,322.4c0,0-1-14.2-5-17.3c0,0-2.8,15.8,3.2,20.3L196.1,322.4z"/>
<path class="st1" d="M197.2,308.7l-5.3-23.4c0,0-3.8,19.7,5.8,27.7L197.2,308.7z"/>
<path class="st1" d="M196.3,285.2c0,0-10.6-15.3-10.6-17.1c0,0,2.1,16.6,14.8,24.1L196.3,285.2z"/>
<path class="st1" d="M197.1,280.4c0,0-10.6-22-14.8-23.5c0,0,13.4,5.7,15.5,22.9L197.1,280.4z"/>
<path class="st2" d="M195.1,324.6l-0.6-0.2c6-25.4,6.8-41.4,2.4-45.1l0.4-0.5C201.9,282.8,201.2,298.6,195.1,324.6z"/>
<path class="st2" d="M178,384.3L177,384c0.7-2.3,1.4-4.7,2.1-7c6.6-20.4,12.2-39.3,15.6-53.8l0.8-0.5c-3.4,14.5-8.8,34.1-15.4,54.5
	C179.3,379.6,178.6,382,178,384.3z"/>
<path class="st2" d="M206.4,520c-0.1-0.1-13.4-13.2-23.6-36.4c-6-13.6-9.8-28-11.2-42.8c-1.8-18.5,0.7-39.4,6.1-58.6l0.8,0.8
	c-12.1,43.1-3.7,78.8,5.6,100c10.1,23,23.3,35.9,23.4,36.1L206.4,520z"/>
<path class="st3" d="M236.5,570c-2.6,0.5-5.1,1.2-7.5,2.1c-53.9,21.5-53,162.5-53,162.5h-15.9c0,0-5-60.5-26.8-146.8
	c-19.6-77.7,60.9-147.3,77.2-160.5c1.8-1.5,2.9-2.2,2.9-2.2C294.5,454.9,236.5,570,236.5,570z"/>
<path class="st4" d="M219.3,427.5c-1.9-0.9-3.8-1.7-5.9-2.4c0,0-1,0.8-2.9,2.2c-16.4,13.2-96.9,82.8-77.2,160.5
	c21.8,86.3,26.7,146.8,26.7,146.8h8.9c0,0-4.9-60.5-26.8-146.8C122.7,510.5,202.4,441.1,219.3,427.5z"/>
<path class="st3" d="M504,587.8c-21.8,86.3-26.8,146.8-26.8,146.8h-15.9c0,0,1-147.4-56.7-163.8c-1.3-0.4-2.5-0.7-3.8-0.9
	c0,0-58-115.1,23.1-144.9c0,0,0.8,0.6,2.3,1.8C441.3,438.9,523.9,509.2,504,587.8z"/>
<path class="st5" d="M236.5,570c-2.6,0.5-5.1,1.2-7.5,2.1c-9.8-47.7-15.9-96.1-18.5-144.8c1.8-1.5,2.9-2.2,2.9-2.2
	C294.5,454.9,236.5,570,236.5,570z"/>
<path class="st5" d="M426.3,426.9c-3.3,48.5-10.5,96.7-21.6,144c-1.3-0.4-2.5-0.7-3.8-0.9c0,0-58-115.1,23.1-144.9
	C424,425.1,424.8,425.7,426.3,426.9z"/>
<path class="st6" d="M396.6,591.8c-5.6,22.1-12.2,44.8-19.7,68c-11.3,34.9-35.7,37.2-122,0c0,0-8.6-24.3-18.1-65.6
	c-20.9-90.8-45.9-263.9,7.4-441.7C260.1,99,282.7,47.8,311.4,0c0,0,45.6,52.3,79,152.4S445.1,400.5,396.6,591.8z"/>
<circle class="st3" cx="318.7" cy="293.6" r="71.6"/>
<path class="st1" d="M369.5,293.6c0,28.1-22.7,50.8-50.8,50.8c-11.7,0-23.1-4.1-32.2-11.5c-3.6-3-6.8-6.5-9.5-10.3
	c-1.2-1.7-2.3-3.5-3.3-5.4c-3.8-7.3-5.8-15.4-5.8-23.6c0-0.4,0-0.8,0-1.2c0.5-22.3,15.5-41.6,37-47.7c4-1.1,8.1-1.7,12.2-1.9h1.5
	C346.7,242.8,369.4,265.6,369.5,293.6C369.5,293.6,369.5,293.6,369.5,293.6z"/>
<path class="st3" d="M390.4,152.4c-81.3,38.9-146.2,0-146.2,0C260.1,99,282.7,47.8,311.4,0C311.4,0,357,52.3,390.4,152.4z"/>
<path class="st3" d="M396.6,591.8c-3.8,15-8,30.2-12.7,45.7c-2.2,7.4-4.5,14.8-7,22.3c-3.7,11.2-35.7,37.2-122,0c0,0-2.8-7.9-7-22.3
	c-3.1-10.9-7-25.5-11.1-43.3c0,0,32.1,13.7,77.7,13.7C342.6,607.9,370.5,602.5,396.6,591.8z"/>
<path class="st6" d="M383.9,637.4c-2.2,7.4-4.5,14.8-7,22.3c-3.7,11.2-35.7,37.2-122,0c0,0-2.8-7.9-7-22.3
	C247.9,637.4,335.8,662.7,383.9,637.4z"/>
<path class="st4" d="M304.9,244.6l-0.1,0.1l-36.9,47.6c0,0.4,0,0.8,0,1.2c0,8.2,2,16.3,5.8,23.6l43.5-74.4L304.9,244.6z"/>
<path class="st4" d="M316.7,287.6l-30.2,45.2c-3.6-3-6.8-6.5-9.5-10.3l36-38.6L316.7,287.6z"/>
<path class="st4" d="M274.2,659.8c0,0-8.6-24.3-18.1-65.6c-20.9-90.8-45.9-263.9,7.4-441.7c14.3-48.1,34.1-94.4,58.9-138.1
	c-6.8-9.5-11-14.3-11-14.3c-28.7,47.8-51.3,99-67.2,152.4c-53.3,177.8-28.3,350.9-7.4,441.7c9.5,41.3,18.1,65.6,18.1,65.6
	c34.1,14.7,60.3,17.8,79.5,16.1C317.9,674.6,298,670,274.2,659.8z"/>
<path class="st7" d="M937,728.9c0,0,46.7-58.2,43.6-116.4c-1.5-24.4,5.1-48.7,18.5-69.1c6.5-9.7,13.9-18.7,22-27"/>
<path class="st1" d="M1019.4,479.8c-3.3,8.1,1.7,37.7,1.7,37.7s24.4-17.5,27.7-25.6c3.3-8.1-0.5-17.4-8.6-20.7
	C1032,467.8,1022.7,471.7,1019.4,479.8L1019.4,479.8L1019.4,479.8z"/>
<path class="st1" d="M976.6,514.7c1.6,8.6,21.9,30.7,21.9,30.7s11-27.9,9.3-36.5c-1.6-8.6-9.9-14.3-18.5-12.7
	C980.7,497.8,975,506.1,976.6,514.7L976.6,514.7z"/>
<path class="st1" d="M946.1,591.9c5.7,6.6,34.4,15.5,34.4,15.5s-4.6-29.6-10.4-36.3c-5.9-6.5-15.9-7-22.4-1.1
	C941.4,575.7,940.7,585.4,946.1,591.9L946.1,591.9z"/>
<path class="st1" d="M936.1,655.6c4.5,7.5,31.3,21.1,31.3,21.1s0.4-30-4.1-37.5c-4.5-7.5-14.3-9.9-21.8-5.4S931.6,648.1,936.1,655.6
	z"/>
<path class="st1" d="M1028.7,559.7c-8.1,3.2-37.7-2-37.7-2s17.7-24.2,25.9-27.5c8.1-3.3,17.4,0.7,20.6,8.9
	S1036.8,556.5,1028.7,559.7L1028.7,559.7z"/>
<path class="st1" d="M1016.1,634c-8.7,0.7-35.3-13.2-35.3-13.2s24.1-17.8,32.9-18.5c8.8-0.5,16.3,6.2,16.7,15
	C1030.9,625.8,1024.6,633.2,1016.1,634z"/>
<path class="st1" d="M994,704.5c-8.5,2.1-37-7.1-37-7.1s20.8-21.6,29.3-23.7c8.5-2.1,17.1,3,19.3,11.5
	C1007.6,693.7,1002.5,702.3,994,704.5z"/>
<path class="st8" d="M1019.4,479.8c-3.3,8.1,1.7,37.7,1.7,37.7s24.4-17.5,27.7-25.6c3.3-8.1-0.5-17.4-8.6-20.7
	C1032,467.8,1022.7,471.7,1019.4,479.8L1019.4,479.8L1019.4,479.8z"/>
<path class="st8" d="M976.6,514.7c1.6,8.6,21.9,30.7,21.9,30.7s11-27.9,9.3-36.5c-1.6-8.6-9.9-14.3-18.5-12.7
	C980.7,497.8,975,506.1,976.6,514.7L976.6,514.7z"/>
<path class="st8" d="M946.1,591.9c5.7,6.6,34.4,15.5,34.4,15.5s-4.6-29.6-10.4-36.3c-5.9-6.5-15.9-7-22.4-1.1
	C941.4,575.7,940.7,585.4,946.1,591.9L946.1,591.9z"/>
<path class="st8" d="M936.1,655.6c4.5,7.5,31.3,21.1,31.3,21.1s0.4-30-4.1-37.5c-4.5-7.5-14.3-9.9-21.8-5.4S931.6,648.1,936.1,655.6
	z"/>
<path class="st8" d="M1028.7,559.7c-8.1,3.2-37.7-2-37.7-2s17.7-24.2,25.9-27.5c8.1-3.3,17.4,0.7,20.6,8.9
	S1036.8,556.5,1028.7,559.7L1028.7,559.7z"/>
<path class="st8" d="M1016.1,634c-8.7,0.7-35.3-13.2-35.3-13.2s24.1-17.8,32.9-18.5c8.8-0.5,16.3,6.2,16.7,15
	C1030.9,625.8,1024.6,633.2,1016.1,634z"/>
<path class="st8" d="M994,704.5c-8.5,2.1-37-7.1-37-7.1s20.8-21.6,29.3-23.7c8.5-2.1,17.1,3,19.3,11.5
	C1007.6,693.7,1002.5,702.3,994,704.5z"/>
<path class="st7" d="M937.4,726.5c0,0,66.3-34.2,87.1-88.7c8.6-22.9,24.3-42.4,44.9-55.6c9.8-6.2,20.2-11.5,31-15.8"/>
<path class="st1" d="M1113.7,532.1c-6.3,6.1-13.8,35.1-13.8,35.1s29.4-6.1,35.7-12.2c6.4-6.1,6.6-16.1,0.5-22.5
	S1120.1,526,1113.7,532.1L1113.7,532.1L1113.7,532.1z"/>
<path class="st1" d="M1060.4,546.7c-2,8.5,7.6,37,7.6,37s21.3-21.1,23.3-29.7c2-8.5-3.3-17.1-11.8-19.1
	C1071,533,1062.5,538.2,1060.4,546.7L1060.4,546.7z"/>
<path class="st1" d="M1001.2,604.9c2.6,8.4,25.2,28.1,25.2,28.1s7.8-29,5.2-37.3c-2.6-8.4-11.4-13.1-19.8-10.6
	C1003.4,587.7,998.7,596.5,1001.2,604.9L1001.2,604.9z"/>
<path class="st1" d="M966.3,659.1c1.1,8.7,20.1,31.9,20.1,31.9s12.6-27.2,11.4-35.9c-1.1-8.7-9.1-14.9-17.8-13.8
	S965.2,650.4,966.3,659.1L966.3,659.1z"/>
<path class="st1" d="M1089.8,608.9c-8.8-0.3-33.6-17.1-33.6-17.1s26-14.9,34.8-14.6c8.8,0.3,15.6,7.7,15.3,16.5
	C1105.9,602.4,1098.6,609.3,1089.8,608.9L1089.8,608.9z"/>
<path class="st1" d="M1048.2,671.7c-8.3-2.9-26.9-26.4-26.9-26.4s29.3-6.5,37.6-3.5c8.3,2.9,12.6,12,9.7,20.3
	C1065.6,670.3,1056.5,674.7,1048.2,671.7L1048.2,671.7z"/>
<path class="st1" d="M999.4,727.2c-8.6-1.5-31-21.5-31-21.5s27.8-11.3,36.4-9.8c8.6,1.5,14.4,9.7,12.9,18.3
	C1016.3,722.9,1008.1,728.7,999.4,727.2L999.4,727.2L999.4,727.2z"/>
<path class="st9" d="M842.6,352c-19.1-30.8-56.9-32.2-56.9-32.2s-36.8-4.5-60.4,42.4c-22,43.7-52.4,85.9-4.9,96.1l8.6-25.5l5.3,27.4
	c6.8,0.5,13.6,0.6,20.3,0.3c50.9-1.6,99.3,0.5,97.8-17C850.3,420.4,860.9,381.6,842.6,352z"/>
<path class="st9" d="M717.6,621.6c-0.6,3.4-1.4,6.7-2.4,10c-1.2,3.2-3,6.2-4.1,9.4c-3.5,10.3,1.3,21.8,9.1,29.8
	c6.7,6.9,15.3,11.8,24.9,14.1c7,1.4,14.2,2.2,21.4,2.1c19.9,0.6,40.2,1.2,59-4.9c5.9-2,11.7-4.5,17.2-7.4c1.7-0.8,3.2-1.9,4.5-3.3
	c1.3-2.1,1.8-4.5,1.6-6.9c0-8-1.7-16-1.3-24c0.2-4.4,1.1-8.9,0.7-13.3c-1.2-10.3-9.1-18.8-19.7-21.2c-5.4-0.8-10.9-0.8-16.3,0
	c-14.1,1.3-28.3,1.9-42.4,1.8c-14.5-0.1-28.9-2.2-43.3-2.4c-4.3-0.1-4.2,1.2-5.5,5.1C719.4,614.2,718.4,617.9,717.6,621.6z"/>
<path class="st10" d="M758.7,423.3c-0.4,3.5-1.7,6.9-3.6,9.9c-2.5,3.3-6.6,5.2-9.3,8.3c-4.1,4.7-4.3,11.4-4.3,17.5
	c0,5.6,0.1,11.7,3.4,16.3c2.3,2.9,5.3,5.4,8.6,7.2c12.4,8,25.7,16.1,40.7,16.3c6.2,0.1,12.8-1.4,16.9-5.9c1.8-2.1,3.1-4.4,4.1-7
	c3.8-9,6.1-18.5,6.9-28.1c0.5-4.5,0.1-9.1-1.3-13.5c-1.8-4.8-5.5-8.8-7.9-13.4c-2.9-5.4-3.9-11.6-3-17.6c0.1-0.4,0.1-0.9-0.1-1.3
	c-0.4-0.4-1-0.7-1.6-0.6l-29.6-2c-2.8-0.1-5.5-0.4-8.2-0.9c-1.6-0.3-5.8-2.5-7.3-1.9C760,407.9,759.3,420.4,758.7,423.3z"/>
<path class="st5" d="M758.7,423.3c-0.4,3.5-1.7,6.9-3.6,9.9c-2.5,3.3-6.6,5.2-9.3,8.3c-4.1,4.7-4.3,11.4-4.3,17.5
	c0,5.6,0.1,11.7,3.4,16.3c2.3,2.9,5.3,5.4,8.6,7.2c12.4,8,25.7,16.1,40.7,16.3c6.2,0.1,12.8-1.4,16.9-5.9c1.8-2.1,3.1-4.4,4.1-7
	c3.8-9,6.1-18.5,6.9-28.1c0.5-4.5,0.1-9.1-1.3-13.5c-1.8-4.8-5.5-8.8-7.9-13.4c-2.9-5.4-3.9-11.6-3-17.6c0.1-0.4,0.1-0.9-0.1-1.3
	c-0.4-0.4-1-0.7-1.6-0.6l-29.6-2c-2.8-0.1-5.5-0.4-8.2-0.9c-1.6-0.3-5.8-2.5-7.3-1.9C760,407.9,759.3,420.4,758.7,423.3z"/>
<ellipse class="st10" cx="787" cy="385.7" rx="43.4" ry="41.4"/>
<path class="st11" d="M764.8,478.4c2.1,2.4,4.7,4.3,7.6,5.8c3,1.2,6.3,1.8,9.5,1.7c7.8,0.2,16.3-1.2,21.7-6.5
	c7-6.9,6.8-18.1,12.3-26.1c0.4-0.7,1-1.4,1.8-1.8c0.9-0.5,2-0.7,3-0.7c6.9-0.1,13,4.2,18.5,8.3c2.6,1.7,4.8,3.8,6.5,6.3
	c1.1,2,1.8,4.2,2.2,6.4c2.4,12.7,3.9,25.5,4.5,38.4c0.5,7.1,1,14.2,0.9,21.3c-0.1,23.4-5.8,46.5-11.5,69.3c-0.7,2.9-1.7,6.2-4.5,7.6
	c-1.2,0.5-2.6,0.8-4,0.9c-16.2,2.1-32.6,3.4-48.9,3.9c-6.4,0.1-12.8-0.1-19.2-0.4c-1.1,0-2.2-0.2-3.2-0.5c-1.4-0.6-2.6-1.6-3.5-2.9
	c-8.9-10.6-9.4-25.4-9.3-39c0.1-33.2,1.4-66.4,3.7-99.6c0.2-2.7,0.2-6.1-1.8-8.2C755.1,468.3,759.7,473.6,764.8,478.4z"/>
<path class="st1" d="M755.6,430.6c-1.5,2.5-12.3,8.8-14.4,10.9c-11.7,11.7-32.9,11.3-43.6,23.8c-3.5,4.6-6,9.9-7.1,15.5
	c-2,7.8-3.1,16.3,0.3,23.7c3.3,7.1,10.1,12,14.8,18.3c5.1,6.9,7.4,15.4,9.6,23.6c1.6,6.1,3.3,12.3,2.6,18.5
	c-0.7,7.1-4.3,13.6-6.4,20.4c-2.1,6.8-2.5,15,2.4,20.4c3.6,3.9,9.3,5.5,14.7,6.4c6.9,1,13.9,1.6,20.9,1.7c6.2,0.3,13,0.3,17.8-3.5
	c3.6-3.2,5.6-7.8,5.6-12.5c-0.1-4.7-0.5-9.3-1.4-13.9c-0.7-4.8-0.9-9.6-1.1-14.5c-1-21.7-1.1-43.4-0.4-65c0.3-4.5,0.1-9-0.7-13.5
	c-1.3-5.8-4.6-11-7.4-16.3c-5.5-10-8-21.3-7.2-32.6C755.5,430.5,760.8,421.6,755.6,430.6z"/>
<path class="st1" d="M816.5,431.5c2.2,2.2,9.8,2.9,12.7,4.3c2.7,1.2,5.5,2.1,8.3,2.7c10.4,2.9,20.2,7.2,29.2,12.8
	c1.9,1,3.5,2.4,4.9,4c1.4,2.2,2.4,4.7,2.7,7.3c1.7,6.5,2.5,13.2,2.5,19.9c-0.3,7.1-2.6,14-4.8,20.8l-8.3,25.4
	c-6.2,18.9-12.5,38.1-14.2,57.8c-1,11-0.5,22,1.3,32.9c0.3,1.1,0.2,2.2-0.4,3.2c-0.5,0.5-1.3,0.8-2,0.9c-4,0.6-7.9-1.4-11.5-3.1
	c-11.1-5.3-23-9-35.2-11c4.8-6.6,8.5-13.9,10.9-21.5c1.4-4.9,2.5-9.8,3.3-14.8l3.9-21.4c1.6-7.8,2.7-15.7,3.3-23.6
	c0.3-3,0.1-6-0.5-8.9c-0.9-2.8-2.1-5.5-3.5-8c-6.4-12.7-9.4-27.1-6.9-40.9c1.1-6.1,3.2-12.1,2.3-18.2c-0.9-5.9,0-10.4-1.5-16.2
	C806.4,412.1,812.3,427.4,816.5,431.5z"/>
<path class="st1" d="M697.5,485.4c-2.9,5.8-7.8,10.7-9.4,16.9c-0.6,2.9-0.9,5.9-0.8,8.8c-0.3,4.5,0.2,8.9,1.4,13.2
	c0.9,2.7,2.4,5.2,3.5,7.9c1.5,3.7,2.2,7.7,2,11.7c-0.3,5.5-2.3,10.9-2.4,16.5c-0.2,8.7,4,16.9,8.1,24.7c3.9-9.3,15-13.8,24.8-10
	c1,0.4,2,0.9,2.9,1.4c0.9-1.1,1.4-2.5,1.2-3.9c0.3-10.1,0.6-20.3,0.9-30.4c0.4-15.7,0.9-31.5-2.9-46.8c-1.4-7-4.6-13.5-9.2-19.1
	c-2.6-2.8-11.3-10.2-15.5-7.1c-1.9,1.4-1.4,5.3-1.7,7.2C699.9,479.6,698.9,482.6,697.5,485.4z"/>
<path class="st1" d="M877.7,468.8c1.2,4.2,1.7,8.4,1.5,12.7c0.1,8.8-0.1,17.5-0.4,26.3c0,4.5-0.6,9-1.8,13.3
	c-0.9,2.8-2.4,5.5-3.4,8.3c-2.9,8.4-1.3,17.5-1.1,26.4c0.2,2.9-0.1,5.7-0.8,8.5c-1.5,5.5-5.7,9.9-8.5,14.9c-2.7,4.7-4.4,10-7.6,14.4
	c-3.3,4.4-8.9,7.9-14.4,6.5c-4.1-1-7.1-4.5-9.1-8.1c-4.5-7.9-6-17-4.3-25.9c2-10.7,8.7-20.3,11.1-31c3.3-14.7-1.7-29.8-1.6-44.8
	c-0.1-2.4,0.3-4.7,1-6.9c1.5-3.3,3.7-6.4,6.4-8.9c3.1-3.4,6-7,8.6-10.8c1.8-2.5,4.2-9,7.3-9.6C867.7,453,875.9,463.6,877.7,468.8z"
	/>
<path class="st9" d="M661,615.1c-3.9-0.9-7.9-1.3-11.9-1.2c-16.4,0.9-29,14.2-28.1,29.9c0.1,1.2,0.2,2.4,0.4,3.6
	c1,4.3,2.6,8.4,4.7,12.3c3.2,6.1,7,12.2,12.8,16.1c3.5,2.2,7.3,3.9,11.3,5.1l30.8,11.1c4.5,1.6,9.1,3.3,13.6,4.8
	c23,7.6,47,12.1,71.3,13.5c7.4,0.7,14.8,0.3,22.1-1.1c1.8-0.2,3.4-1.1,4.5-2.3c0.6-1,0.9-2.1,1-3.2l1.9-12.7
	c0.4-1.8,0.4-3.6-0.2-5.3c-1.1-2-2.9-3.7-5.1-4.6c-20.3-11.1-43.9-17.2-61-32.5c-4-3.6-7.4-9.3-12.2-11.7c-5.5-2.8-12-4.3-17.8-6.9
	C686.8,624.4,674.6,618,661,615.1z"/>
<path class="st5" d="M691.8,632.1c10.9,3.3,56.9,25.8,64.8,33.7c-1.1,0.4-36.9-18.8-38-19.1c-9.9-2.6-19.5-5.8-28.9-9.7
	c-1.9-0.8-12.1-4.7-11.7-6.9C678.5,627.5,689.8,631.6,691.8,632.1z"/>
<path class="st10" d="M827.6,716.8c0.6,0,1.2-0.1,1.7-0.5c0.4-0.5,0.6-1.2,0.5-1.9l-0.1-17.3c-5.3-2.1-11-3.4-16.7-3.8l-26.6-3.4
	c0.6,0.1-4.2,10.9-3.4,12.4c1.3,2.6,11.2,4.8,13.9,6C806.7,712.6,816.7,717.2,827.6,716.8z"/>
<path class="st10" d="M744.1,697.1c-5,0.8-10.6,1.4-13.9,5.2c-4.1,4.7-2.4,11.8-0.4,17.7c0.5,3.1,3.6,5.3,6.8,4.8c0.1,0,0.1,0,0.2,0
	c4.6,0.3,9.5,0.5,13.5-1.7c1.8-1.1,3.6-2.4,5.2-3.7c3-1.9,6.2-3.3,9.6-4.2c6.3-1.9,12.8-3.2,19.3-3.8c2.6-0.1,5.1-0.5,7.6-1.3
	c2.5-0.8,4.5-2.6,5.4-5c0.9-3.1-1-6.3-2.8-9.1c-2.1-3.6-4.9-6.8-8.1-9.6c-5-3.7-7.4-0.9-12.4,1.5
	C764.6,692.5,754.5,695.5,744.1,697.1z"/>
<path class="st9" d="M730.9,701.4l-31.9-9c-3.8-1.3-7.8-2-11.9-2.2c-4.1-0.2-8.1,1.4-10.9,4.2c-2.5,2.8-3.2,6.6-3.8,10.2l-1.3,7.7
	c-0.9,3.9-1.1,7.9-0.7,11.8c0.4,4,2.8,7.6,6.3,9.7c4.4,2.3,9.8,1.2,14.8,0.2c10-1.9,20.1-3,30.3-3.1c3.8,0,7.8,0,11.2-1.7
	c4-2.3,6.5-6.2,6.8-10.6C740.4,712,738.1,703.5,730.9,701.4z"/>
<path class="st9" d="M840.2,693.6c4.1-0.7,7.8-2.9,11.8-4.3c5.6-1.9,11.6-1.9,17.6-1.8c2.2-0.2,4.4,0.2,6.3,1.2
	c2.6,1.7,3.3,5,3.7,7.9l2.7,17.8c0.7,3.3,0.8,6.8,0.2,10.1c-0.6,3.4-3.2,6.2-6.6,7.3c-4.2,1-8.3-1.5-12.2-3.2
	c-9.9-4.2-21.3-3.1-31.6-6.2c-2-0.4-3.7-1.6-4.7-3.2c-0.4-1-0.5-2-0.4-3.1c0.2-5.7-1.1-13.6,0.7-19
	C829.3,692.2,835.6,693.6,840.2,693.6z"/>
<path class="st9" d="M907.8,607.9c6.4-1.5,13-2,19.5-1.3c5.2,0.5,10.6,1.9,14.4,5.4c4.6,4.2,6.1,10.7,6.3,16.8
	c0.2,12.1-4,24-12,33.5c-1.9,2.4-4.2,4.5-6.8,6.3c-2.8,1.7-5.8,3-8.9,4.1l-69,26c-18.2,6.8-36.4,13.7-55.3,18.2
	c-2.1,1-4.7,0.1-5.8-1.9c0,0,0-0.1,0-0.1c-6-8.2-11.1-17.1-15.1-26.4c-0.7-0.8-0.5-1.9,0.3-2.5c0.2-0.1,0.4-0.2,0.6-0.3l48.8-26.8
	c3.6-1.8,6.9-4,9.9-6.5c2.1-2,3.8-4.2,5.1-6.8c1-2,1.1-6.8,2.4-8.3c1.3-1.5,5.6-1.6,7.6-2.1c2.8-0.8,5.6-1.8,8.3-3
	c10.9-4.7,20.6-11.4,31.1-16.9C895,612.1,901.3,609.6,907.8,607.9z"/>
<path class="st5" d="M880.1,627.9c-8.4,6-19.2,11.5-27.6,17.7c-2.8,2.1-50.1,27.5-50.8,30.8c7.8,1.2,57.1-31.7,64.2-35
	c6.9-3.5,13.5-7.7,19.5-12.5c1.6-1.2,8.3-4.7,3.7-6C886.7,622.1,882,626.7,880.1,627.9z"/>
<polygon class="st9" points="834.1,349 796.8,330.3 745.2,338 734.6,382.9 761.1,381.9 768.5,365.4 768.5,381.7 780.8,381.2 
	787.9,354.9 792.3,382.9 835.9,382.1 "/>
<rect x="745.4" y="441.2" class="st12" width="80.3" height="92.5"/>
<path class="st10" d="M707.3,602.1c1.7,2.7,4.1,5,7,6.6c3.8,1.7,8.2,1.6,12-0.3c3.7-1.9,6.7-4.8,8.6-8.3c4.1-6.8,4.9-15,4.4-22.9
	s-2.3-15.6-3-23.4c-0.6-5.7-0.6-11.4-0.7-17.1c-0.1-1.2,0.1-2.4,0.8-3.5c1.1-1,2.5-1.7,4-1.9c8.2-2.3,13.6-9.6,17.5-16.9
	c2.6-4.8,4.9-10.1,4.4-15.6c-0.5-5.4-4.6-10.9-10.3-11.4c-4.7-0.5-9,2.4-12.4,5.5c-8.5,7.9-14,18.4-15.5,29.6
	c-0.7,5.5-0.5,11.2-2.1,16.5c-3.4,11.4-13.9,18.4-19.1,28.7C697.1,579.2,700.3,592,707.3,602.1z"/>
<path class="st10" d="M861.8,558.4c-2.4,5.4-7,9.5-12.7,11.6c-3.5,1.3-7.4,1.6-11,0.6c-3.7-1-6.7-3.5-8.1-6.9
	c-0.6-1.7-0.9-3.4-0.9-5.2c-0.5-7.7-0.3-15.6,2.6-22.8c1.1-2.8,2.7-5.4,3.5-8.3c0.9-3.3,1.3-6.7,1.3-10.1l1-21
	c0.2-1.5,0-3.1-0.3-4.6c-1-3-3.9-5-6.7-6.8c-6.6-4.4-13.1-9.5-16.3-16.5c-1.1-2.1-1.5-4.5-1.1-6.8c0.9-4.2,5.3-6.9,9.7-7.8
	c11.7-2.4,23.2,4.6,25.8,15.8c0.1,0.3,0.1,0.6,0.2,0.9c0.4,2.4,0.4,4.8,0.7,7.2c0.5,5.1,2.2,10,3.3,15c2.6,12.3,1.3,25.1,3.8,37.4
	C858.7,540.4,866.8,547.1,861.8,558.4z"/>
<ellipse class="st1" cx="787.7" cy="474.1" rx="13" ry="12.4"/>
</svg>
