<?xml version="1.0"?>
<svg xmlns="http://www.w3.org/2000/svg" id="Outline" viewBox="0 0 64 64" width="512px" height="512px"><g><g><path d="M18,42a4,4,0,1,0-4,4A4,4,0,0,0,18,42Zm-6,0a2,2,0,1,1,2,2A2,2,0,0,1,12,42Z" data-original="#000000" class="active-path" data-old_color="#000000" fill="#198FDD"/><path d="M52,25a1,1,0,0,0-1,1V53a3,3,0,0,1-3,3H37a3,3,0,0,1-3-3V10a5,5,0,0,0-5-5H18a5,5,0,0,0-5,5V22a1,1,0,0,0,2,0V10a3,3,0,0,1,3-3H29a3,3,0,0,1,3,3V53a5,5,0,0,0,5,5H48a5,5,0,0,0,5-5V26A1,1,0,0,0,52,25Z" data-original="#000000" class="active-path" data-old_color="#000000" fill="#198FDD"/><path d="M61.92,4.9c-.33-.9-1.33-1.65-6.07-.58a7,7,0,0,0-7.6-1.9,7,7,0,0,0-4.6,6.34C39.32,11,39,12.21,39.36,13.11s1.24,1.07,2.52,1.07a17.25,17.25,0,0,0,3.59-.49A7,7,0,0,0,50.65,16,6.83,6.83,0,0,0,53,15.58,7,7,0,0,0,57,12a7.06,7.06,0,0,0,.66-2.72c.46-.23.9-.47,1.3-.71C61.42,7.08,62.32,6,61.92,4.9Zm-13-.6A5.09,5.09,0,0,1,50.64,4a5,5,0,0,1,4.7,3.29h0a5.12,5.12,0,0,1,.2.77c-1.26.59-2.77,1.23-4.56,1.88s-3.35,1.13-4.7,1.48a5.17,5.17,0,0,1-.34-.71A5,5,0,0,1,48.93,4.3Zm-7.1,7.91a15.33,15.33,0,0,1,2.08-1.32,4.91,4.91,0,0,0,.15.51c.07.17.15.32.23.49A15.1,15.1,0,0,1,41.83,12.21Zm13.34-1.1a4.92,4.92,0,0,1-2.82,2.59,5,5,0,0,1-4.57-.61c1.49-.43,2.89-.91,3.89-1.27,1.33-.49,2.61-1,3.79-1.53A4,4,0,0,1,55.17,11.11Zm2.21-4c-.05-.17-.1-.34-.16-.51s-.14-.33-.21-.49a14,14,0,0,1,2.45-.32A16.62,16.62,0,0,1,57.38,7.12Z" data-original="#000000" class="active-path" data-old_color="#000000" fill="#198FDD"/><path d="M8,8A3,3,0,1,0,5,5,3,3,0,0,0,8,8ZM8,4A1,1,0,1,1,7,5,1,1,0,0,1,8,4Z" data-original="#000000" class="active-path" data-old_color="#000000" fill="#198FDD"/><path d="M61.71,56.29a1,1,0,0,0-1.42,0L59,57.59l-1.29-1.3a1,1,0,0,0-1.42,1.42L57.59,59l-1.3,1.29a1,1,0,0,0,0,1.42,1,1,0,0,0,1.42,0L59,60.41l1.29,1.3a1,1,0,0,0,1.42,0,1,1,0,0,0,0-1.42L60.41,59l1.3-1.29A1,1,0,0,0,61.71,56.29Z" data-original="#000000" class="active-path" data-old_color="#000000" fill="#198FDD"/><path d="M29.71,10.29a1,1,0,0,0-1.42,0L27,11.59l-1.29-1.3a1,1,0,0,0-1.42,1.42L25.59,13l-1.3,1.29a1,1,0,0,0,0,1.42,1,1,0,0,0,1.42,0L27,14.41l1.29,1.3a1,1,0,0,0,1.42,0,1,1,0,0,0,0-1.42L28.41,13l1.3-1.29A1,1,0,0,0,29.71,10.29Z" data-original="#000000" class="active-path" data-old_color="#000000" fill="#198FDD"/><path d="M47.71,46.8a1,1,0,0,0-.81-.68l-2.39-.35-1.06-2.16a1,1,0,0,0-1.8,0l-1.06,2.16-2.39.35a1,1,0,0,0-.55,1.7l1.72,1.69L39,51.88a1,1,0,0,0,1,1.17,1.12,1.12,0,0,0,.47-.11l2.13-1.13,2.13,1.13a1,1,0,0,0,1.06-.08,1,1,0,0,0,.39-1l-.4-2.37,1.72-1.69A1,1,0,0,0,47.71,46.8ZM44,48.44a1,1,0,0,0-.29.89l.15.89L43,49.8a1,1,0,0,0-.94,0l-.8.42.15-.89a1,1,0,0,0-.28-.89l-.66-.64.9-.13a1,1,0,0,0,.76-.54l.4-.82.4.82a1,1,0,0,0,.76.54l.9.13Z" data-original="#000000" class="active-path" data-old_color="#000000" fill="#198FDD"/><path d="M59,30a3,3,0,1,0,3,3A3,3,0,0,0,59,30Zm0,4a1,1,0,1,1,1-1A1,1,0,0,1,59,34Z" data-original="#000000" class="active-path" data-old_color="#000000" fill="#198FDD"/><path d="M37,26h8a1,1,0,0,0,1-1V21a1,1,0,0,0-1-1H42V18h3a1,1,0,0,0,0-2H41a1,1,0,0,0-1,1v3H37a1,1,0,0,0-1,1v4A1,1,0,0,0,37,26Zm1-4h6v2H38Z" data-original="#000000" class="active-path" data-old_color="#000000" fill="#198FDD"/><path d="M29,27H22a1,1,0,0,0-1,1v1H16.46l-1.62-2.54a1,1,0,0,0-1.68,0L8.87,33.2h0l-.2.32A17,17,0,0,0,6,42.66V47a1,1,0,0,0,2,0V42.66a14.94,14.94,0,0,1,2.07-7.58A9.07,9.07,0,0,0,14,36a8.91,8.91,0,0,0,3.93-.93A15,15,0,0,1,20,42.66V50H7a5,5,0,0,0-5,5v6a1,1,0,0,0,1,1,5,5,0,0,0,5-5V56h3v2a1,1,0,0,0,2,0V52h2v6a1,1,0,0,0,2,0V56h3v1a5,5,0,0,0,5,5,1,1,0,0,0,1-1V55a5,5,0,0,0-4-4.9V45h3v1a1,1,0,0,0,1,1h3a1,1,0,0,0,0-2H27V43h2a1,1,0,0,0,0-2H26a1,1,0,0,0-1,1v1H22v-.34a17,17,0,0,0-2.66-9.13L17.73,31H21v1a1,1,0,0,0,1,1h7a1,1,0,0,0,1-1V28A1,1,0,0,0,29,27ZM6,57a3,3,0,0,1-2,2.83V55a3,3,0,0,1,2-2.83Zm2-3V52h3v2Zm9,0V52h3v2Zm7,1v4.83A3,3,0,0,1,22,57V52.17A3,3,0,0,1,24,55ZM11.13,33.37,14,28.86l2.87,4.51A7.08,7.08,0,0,1,11.13,33.37ZM28,31H23V29h5Z" data-original="#000000" class="active-path" data-old_color="#000000" fill="#198FDD"/><path d="M52.89,17.55a1,1,0,0,0-1.78,0l-3,6a1,1,0,1,0,1.78.9L52,20.24l2.11,4.21A1,1,0,0,0,55,25a.93.93,0,0,0,.45-.11,1,1,0,0,0,.44-1.34Z" data-original="#000000" class="active-path" data-old_color="#000000" fill="#198FDD"/></g></g> </svg>
