<?xml version="1.0" encoding="utf-8"?>
<!-- Generator: Adobe Illustrator 24.2.0, SVG Export Plug-In . SVG Version: 6.00 Build 0)  -->
<svg version="1.1" xmlns="http://www.w3.org/2000/svg" xmlns:xlink="http://www.w3.org/1999/xlink" x="0px" y="0px"
	 viewBox="0 0 500 500" style="enable-background:new 0 0 500 500;" xml:space="preserve">
<style type="text/css">
	.st0{fill:#3FA9F5;}
	.st1{fill:#F15D69;}
	.st2{fill:#EFF5FA;}
	.st3{display:none;}
	.st4{display:inline;}
	.st5{fill:#1E90DD;}
	.st6{fill:none;stroke:#1E90DD;stroke-width:60;stroke-miterlimit:10;}
	.st7{display:inline;fill:#1E90DD;}
	.st8{display:inline;fill:#1E90DD;stroke:#1E90DD;stroke-width:7;stroke-miterlimit:10;}
	.st9{fill:#1E90DD;stroke:#1E90DD;stroke-width:7;stroke-miterlimit:10;}
</style>
<g id="Layer_3">
	<rect x="-130.37" y="119.41" class="st0" width="41" height="31"/>
	<g>
		<rect x="-129.87" y="169.91" class="st1" width="43" height="38"/>
		<path class="st2" d="M-87.37,170.41v37h-42v-37H-87.37 M-86.37,169.41h-44v39h44V169.41L-86.37,169.41z"/>
	</g>
</g>
<g id="Layer_1" class="st3">
	<g class="st4">
		<g>
			<path class="st5" d="M74.46,108c4.11,0,7.46,3.49,7.46,7.78s-3.35,7.78-7.46,7.78S67,120.08,67,115.78S70.35,108,74.46,108
				 M74.46,78C53.77,78,37,94.92,37,115.78s16.77,37.78,37.46,37.78s37.46-16.92,37.46-37.78S95.14,78,74.46,78L74.46,78z"/>
		</g>
		<g>
			<path class="st5" d="M74.46,349.82c4.11,0,7.46,3.49,7.46,7.78s-3.35,7.78-7.46,7.78S67,361.9,67,357.6
				S70.35,349.82,74.46,349.82 M74.46,319.82C53.77,319.82,37,336.74,37,357.6s16.77,37.78,37.46,37.78s37.46-16.92,37.46-37.78
				S95.14,319.82,74.46,319.82L74.46,319.82z"/>
		</g>
		<g>
			<path class="st5" d="M74.46,349.82c4.11,0,7.46,3.49,7.46,7.78s-3.35,7.78-7.46,7.78S67,361.9,67,357.6
				S70.35,349.82,74.46,349.82 M74.46,319.82C53.77,319.82,37,336.74,37,357.6s16.77,37.78,37.46,37.78s37.46-16.92,37.46-37.78
				S95.14,319.82,74.46,319.82L74.46,319.82z"/>
		</g>
		<g>
			<path class="st5" d="M74.46,228.91c4.11,0,7.46,3.49,7.46,7.78s-3.35,7.78-7.46,7.78S67,240.99,67,236.69
				S70.35,228.91,74.46,228.91 M74.46,198.91c-20.69,0-37.46,16.92-37.46,37.78s16.77,37.78,37.46,37.78s37.46-16.92,37.46-37.78
				S95.14,198.91,74.46,198.91L74.46,198.91z"/>
		</g>
	</g>
	<g class="st4">
		<line class="st6" x1="124.4" y1="115.78" x2="469" y2="115.78"/>
		<line class="st6" x1="124.4" y1="357.6" x2="469" y2="357.6"/>
		<line class="st6" x1="124.4" y1="236.69" x2="469" y2="236.69"/>
	</g>
</g>
<g id="Layer_2" class="st3">
	<path class="st7" d="M62.04,195.48l0.02,0.02l30.34,8.35c4.27,1.17,6.77,5.58,5.6,9.85c-0.56,2.05-1.91,3.79-3.76,4.84
		l-27.38,15.55c-3.85,2.18-5.19,7.06-3,10.91l23.74,41.79c2.18,3.85,7.07,5.2,10.92,3.01l27.36-15.54
		c3.83-2.21,8.73-0.89,10.93,2.95c1.07,1.86,1.36,4.07,0.78,6.14l-8.37,30.35c-1.17,4.27,1.33,8.68,5.59,9.86c0.01,0,0.01,0,0.01,0
		l46.3,12.75c4.27,1.18,8.68-1.32,9.86-5.59l0.09-0.71l8.34-30.3c1.17-4.26,5.57-6.76,9.83-5.59c2.05,0.56,3.78,1.91,4.82,3.76
		l15.51,27.33c2.17,3.84,7.05,5.18,10.89,3l23.83-13.56c0.46-0.93,1.26-1.73,2.5-2.23c6.8-2.78,13.03-6.47,18.81-10.85
		c-0.15-0.02-0.3-0.03-0.45-0.05c0.15-0.26,0.29-0.54,0.42-0.82c0.56-2.06,0.29-4.25-0.76-6.1l-15.51-27.4
		c-1.65-2.81-1.39-6.35,0.65-8.89c1.97-2.57,5.31-3.69,8.42-2.82l30.31,8.36c4.26,1.18,8.66-1.34,9.84-5.61c0,0,0,0,0-0.01
		l12.77-46.41c1.17-4.28-1.32-8.7-5.59-9.88c0,0,0,0-0.01,0l-30.31-8.36c-4.26-1.17-6.76-5.59-5.59-9.86
		c0.56-2.06,1.92-3.8,3.76-4.85l27.36-15.6c3.84-2.18,5.17-7.05,3-10.89l-23.71-41.89c-2.19-3.85-7.07-5.2-10.91-3l-27.35,15.57
		c-3.84,2.18-8.73,0.83-10.9-3.02c-1.04-1.85-1.32-4.03-0.76-6.07l8.35-30.41c1.18-4.27-1.32-8.69-5.58-9.86l0.34,0.04l-46.33-12.76
		c-0.36-0.1-0.74-0.16-1.11-0.21c-3.96-0.51-7.68,1.96-8.75,5.81l-8.35,30.35c-1.29,4.68-6.49,7.25-11.11,5.14
		c-1.57-0.72-2.83-1.99-3.69-3.5l-15.44-27.16c-2.19-3.85-7.08-5.2-10.92-3.01l-41.79,23.74c-3.85,2.18-5.19,7.06-3,10.91
		l15.54,27.37c1.64,2.81,1.38,6.34-0.65,8.88c-1.95,2.6-5.31,3.72-8.43,2.8l-30.34-8.35c-4.27-1.18-8.68,1.32-9.86,5.59
		l-12.75,46.33C55.27,189.89,57.77,194.3,62.04,195.48z M82.29,151.07l22.59,6.23c12.78,3.52,25.99-3.99,29.51-16.77
		c1.69-6.14,0.87-12.69-2.27-18.22l-11.57-20.38l27.82-15.81l11.59,20.37c6.54,11.52,21.19,15.56,32.72,9.01
		c5.53-3.15,9.59-8.35,11.28-14.49l6.15-22.63l30.84,8.49l-6.22,22.59c-3.53,12.79,3.97,26,16.75,29.52
		c6.14,1.7,12.7,0.88,18.24-2.27l20.37-11.57l15.81,27.82l-20.36,11.58c-11.53,6.54-15.57,21.2-9.02,32.72
		c3.15,5.53,8.36,9.6,14.5,11.29l22.59,6.22l-8.5,30.85l-22.59-6.23c-12.78-3.52-25.99,3.98-29.52,16.76
		c-1.69,6.15-0.87,12.7,2.27,18.23l11.61,20.39l-27.82,15.81l-11.58-20.37c-6.54-11.52-21.2-15.57-32.72-9.01
		c-5.53,3.14-9.59,8.35-11.28,14.49l-6.22,22.59l-30.85-8.49l6.23-22.59c3.52-12.78-3.99-25.99-16.77-29.51
		c-6.14-1.69-12.69-0.87-18.22,2.27l-20.38,11.56l-15.81-27.82l20.38-11.57c11.52-6.54,15.56-21.19,9.01-32.72
		c-3.15-5.53-8.35-9.59-14.49-11.28l-22.59-6.22L82.29,151.07z"/>
	<g class="st4">
		<path class="st5" d="M185.61,261.84c35.06,4.47,67.11-20.33,71.58-55.39c4.47-35.06-20.33-67.11-55.39-71.58
			s-67.11,20.33-71.58,55.39C125.8,225.31,150.57,257.33,185.61,261.84z M199.79,150.74c26.3,3.35,44.89,27.39,41.54,53.69
			s-27.39,44.89-53.69,41.54c-26.3-3.35-44.89-27.39-41.54-53.69C149.48,166,173.5,147.42,199.79,150.74z"/>
	</g>
	<g class="st4">
	</g>
	<g class="st4">
	</g>
	<g class="st4">
	</g>
	<g class="st4">
	</g>
	<g class="st4">
	</g>
	<g class="st4">
	</g>
	<g class="st4">
	</g>
	<g class="st4">
	</g>
	<g class="st4">
	</g>
	<g class="st4">
	</g>
	<g class="st4">
	</g>
	<g class="st4">
	</g>
	<g class="st4">
	</g>
	<g class="st4">
	</g>
	<g class="st4">
		<path class="st5" d="M185.89,261.05c35.06,4.47,67.11-20.33,71.58-55.39c4.47-35.06-20.33-67.11-55.39-71.58
			s-67.11,20.33-71.58,55.39C126.08,224.52,150.85,256.54,185.89,261.05z M200.07,149.95c26.3,3.35,44.89,27.39,41.54,53.69
			s-27.39,44.89-53.69,41.54s-44.89-27.39-41.54-53.69C149.76,165.21,173.78,146.63,200.07,149.95z"/>
	</g>
	<g class="st4">
	</g>
	<path class="st8" d="M448.07,282l-0.02-0.01l-19.97,5.4c-2.81,0.76-5.7-0.9-6.46-3.71c-0.36-1.35-0.18-2.79,0.51-4l10.32-17.95
		c1.45-2.52,0.58-5.73-1.94-7.18L403.1,238.8c-2.52-1.45-5.74-0.58-7.19,1.94l-10.31,17.94c-1.43,2.53-4.65,3.42-7.18,1.98
		c-1.23-0.7-2.13-1.86-2.49-3.22l-5.39-19.99c-0.76-2.81-3.65-4.47-6.46-3.72c-0.01,0-0.01,0-0.01,0l-30.49,8.24
		c-2.81,0.76-4.47,3.65-3.72,6.46l0.19,0.44l5.39,19.95c0.76,2.8-0.9,5.69-3.7,6.45c-1.35,0.36-2.78,0.18-3.99-0.52l-17.91-10.31
		c-2.51-1.45-5.73-0.58-7.17,1.94l-8.97,15.64c0.05,0.68-0.14,1.4-0.67,2.1c-2.92,3.85-5.22,8.02-7.03,12.43
		c0.09-0.04,0.18-0.08,0.27-0.12c0,0.2,0.02,0.4,0.04,0.61c0.37,1.35,1.25,2.5,2.47,3.2l17.94,10.34c1.87,1.04,2.91,3.13,2.6,5.25
		c-0.26,2.12-1.78,3.86-3.83,4.41l-19.96,5.38c-2.8,0.75-4.46,3.65-3.7,6.46c0,0,0,0,0,0.01l8.26,30.56
		c0.77,2.81,3.65,4.49,6.46,3.73c0,0,0,0,0.01,0l19.96-5.38c2.8-0.76,5.69,0.91,6.46,3.72c0.37,1.35,0.18,2.79-0.51,4.01
		l-10.29,17.98c-1.44,2.52-0.58,5.72,1.94,7.17l27.42,15.81c2.53,1.45,5.74,0.58,7.18-1.94l10.29-17.96
		c1.44-2.52,4.67-3.39,7.18-1.93c1.21,0.7,2.09,1.84,2.46,3.19l5.42,20.02c0.76,2.81,3.65,4.48,6.45,3.73l-0.21,0.09l30.51-8.24
		c0.24-0.07,0.47-0.15,0.7-0.25c2.41-1.03,3.7-3.68,3.01-6.21l-5.41-19.98c-0.83-3.09,1.26-6.27,4.58-6.62
		c1.13-0.11,2.27,0.18,3.26,0.75l17.82,10.23c2.53,1.45,5.75,0.58,7.19-1.94l15.75-27.41c1.45-2.52,0.58-5.73-1.94-7.18
		l-17.94-10.31c-1.87-1.04-2.9-3.13-2.6-5.25c0.23-2.13,1.77-3.88,3.84-4.4l19.97-5.4c2.81-0.76,4.47-3.65,3.72-6.46l-8.25-30.51
		C453.77,282.91,450.88,281.24,448.07,282z M451.43,313.92l-14.88,4.02c-8.41,2.28-13.39,10.94-11.12,19.36
		c1.09,4.04,3.74,7.48,7.37,9.57l13.36,7.68l-10.48,18.25l-13.37-7.67c-7.56-4.34-17.2-1.74-21.55,5.82
		c-2.08,3.63-2.65,7.94-1.55,11.98l4.07,14.88l-20.31,5.49l-4.02-14.88c-2.27-8.42-10.93-13.4-19.35-11.13
		c-4.05,1.09-7.49,3.74-9.58,7.38l-7.68,13.35l-18.25-10.48l7.67-13.36c4.35-7.56,1.74-17.21-5.82-21.55
		c-3.63-2.08-7.94-2.64-11.98-1.55l-14.88,4.02l-5.49-20.32l14.88-4.02c8.41-2.28,13.4-10.94,11.13-19.35
		c-1.09-4.05-3.75-7.49-7.38-9.57l-13.39-7.67l10.48-18.25l13.36,7.67c7.56,4.34,17.21,1.74,21.55-5.82
		c2.09-3.62,2.65-7.94,1.55-11.98l-4.02-14.88l20.32-5.49l4.02,14.88c2.28,8.41,10.94,13.39,19.36,11.12
		c4.04-1.09,7.48-3.74,9.57-7.37l7.68-13.36l18.25,10.48l-7.68,13.36c-4.34,7.56-1.74,17.2,5.82,21.55
		c3.63,2.08,7.94,2.65,11.98,1.55l14.88-4.02L451.43,313.92z"/>
	<g class="st4">
		<path class="st9" d="M355.9,285.68c-21.36,9.18-31.23,33.93-22.06,55.29c9.18,21.36,33.93,31.23,55.29,22.06
			c21.36-9.18,31.23-33.93,22.06-55.29C401.99,286.4,377.26,276.53,355.9,285.68z M384.98,353.35
			c-16.02,6.88-34.58-0.52-41.46-16.54s0.52-34.58,16.54-41.46s34.58,0.52,41.46,16.54C408.38,327.91,400.98,346.46,384.98,353.35z"
			/>
	</g>
	<path class="st8" d="M448.17,282.54l-0.02-0.01l-19.97,5.4c-2.81,0.76-5.7-0.9-6.46-3.71c-0.36-1.35-0.18-2.79,0.51-4l10.32-17.95
		c1.45-2.52,0.58-5.73-1.94-7.18l-27.41-15.75c-2.52-1.45-5.74-0.58-7.19,1.94l-10.31,17.94c-1.43,2.53-4.65,3.42-7.18,1.98
		c-1.23-0.7-2.13-1.86-2.49-3.22l-5.39-19.99c-0.76-2.81-3.65-4.47-6.46-3.72c-0.01,0-0.01,0-0.01,0l-30.49,8.24
		c-2.81,0.76-4.47,3.65-3.72,6.46l0.19,0.44l5.39,19.95c0.76,2.8-0.9,5.69-3.7,6.45c-1.35,0.36-2.78,0.18-3.99-0.52L309.95,265
		c-2.51-1.45-5.73-0.58-7.17,1.94l-8.97,15.64c0.05,0.68-0.14,1.4-0.67,2.1c-2.92,3.85-5.22,8.02-7.03,12.43
		c0.09-0.04,0.18-0.08,0.27-0.12c0,0.2,0.02,0.4,0.04,0.61c0.37,1.35,1.25,2.5,2.47,3.2l17.94,10.34c1.87,1.04,2.91,3.13,2.6,5.25
		c-0.26,2.12-1.78,3.86-3.83,4.41l-19.96,5.38c-2.8,0.75-4.46,3.65-3.7,6.46c0,0,0,0,0,0.01l8.26,30.56
		c0.77,2.81,3.65,4.49,6.46,3.73c0,0,0,0,0.01,0l19.96-5.38c2.8-0.76,5.69,0.91,6.46,3.72c0.37,1.35,0.18,2.79-0.51,4.01
		l-10.29,17.98c-1.44,2.52-0.58,5.72,1.94,7.17l27.42,15.81c2.53,1.45,5.74,0.58,7.18-1.94l10.29-17.96
		c1.44-2.52,4.67-3.39,7.18-1.93c1.21,0.7,2.09,1.84,2.46,3.19l5.42,20.02c0.76,2.81,3.65,4.48,6.45,3.73l-0.21,0.09l30.51-8.24
		c0.24-0.07,0.47-0.15,0.7-0.25c2.41-1.03,3.7-3.68,3.01-6.21l-5.41-19.98c-0.83-3.09,1.26-6.27,4.58-6.62
		c1.13-0.11,2.27,0.18,3.26,0.75l17.82,10.23c2.53,1.45,5.75,0.58,7.19-1.94l15.75-27.41c1.45-2.52,0.58-5.73-1.94-7.18
		l-17.94-10.31c-1.87-1.04-2.9-3.13-2.6-5.25c0.23-2.13,1.77-3.88,3.84-4.4l19.97-5.4c2.81-0.76,4.47-3.65,3.72-6.46l-8.25-30.51
		C453.88,283.45,450.98,281.78,448.17,282.54z M451.53,314.46l-14.88,4.02c-8.41,2.28-13.39,10.94-11.12,19.36
		c1.09,4.04,3.74,7.48,7.37,9.57l13.36,7.68l-10.48,18.25l-13.37-7.67c-7.56-4.34-17.2-1.74-21.55,5.82
		c-2.08,3.63-2.65,7.94-1.55,11.98l4.07,14.88l-20.31,5.49l-4.02-14.88c-2.27-8.42-10.93-13.4-19.35-11.13
		c-4.05,1.09-7.49,3.74-9.58,7.38l-7.68,13.35l-18.25-10.48l7.67-13.36c4.35-7.56,1.74-17.21-5.82-21.55
		c-3.63-2.08-7.94-2.64-11.98-1.55l-14.88,4.02l-5.49-20.32l14.88-4.02c8.41-2.28,13.4-10.94,11.13-19.35
		c-1.09-4.05-3.75-7.49-7.38-9.57l-13.39-7.67l10.48-18.25l13.36,7.67c7.56,4.34,17.21,1.74,21.55-5.82
		c2.09-3.62,2.65-7.94,1.55-11.98l-4.02-14.88l20.32-5.49l4.02,14.88c2.28,8.41,10.94,13.39,19.36,11.12
		c4.04-1.09,7.48-3.74,9.57-7.37l7.68-13.36l18.25,10.48l-7.68,13.36c-4.34,7.56-1.74,17.2,5.82,21.55
		c3.63,2.08,7.94,2.65,11.98,1.55l14.88-4.02L451.53,314.46z"/>
	<g class="st4">
		<path class="st9" d="M356,286.22c-21.36,9.18-31.23,33.93-22.06,55.29s33.93,31.23,55.29,22.06
			c21.36-9.18,31.23-33.93,22.06-55.29C402.09,286.94,377.36,277.07,356,286.22z M385.08,353.89c-16.02,6.88-34.58-0.52-41.46-16.54
			c-6.88-16.02,0.52-34.58,16.54-41.46c16.02-6.88,34.58,0.52,41.46,16.54C408.48,328.45,401.08,347,385.08,353.89z"/>
	</g>
	<g class="st4">
	</g>
</g>
<g id="Layer_4">
	<g>
		<path class="st5" d="M309.31,203.37c-16.81-2.4-28.49-17.98-26.09-34.8c1.15-8.07,5.47-15.36,12-20.25l24.02-18.02l-24.6-32.8
			l-24.02,18.01c-13.59,10.19-32.86,7.45-43.06-6.14c-4.89-6.51-6.99-14.7-5.85-22.77l4.24-29.73l-40.59-5.79l-4.24,29.73
			c-2.41,16.81-17.98,28.49-34.8,26.09c-8.07-1.15-15.36-5.47-20.25-12l-18.02-24.06l-32.8,24.6l18.01,24.02
			c10.19,13.59,7.44,32.86-6.15,43.06c-6.53,4.9-14.74,7-22.81,5.84l-29.73-4.24l-5.82,40.6l29.73,4.24
			c16.81,2.41,28.49,17.98,26.09,34.8c-1.15,8.07-5.47,15.36-12,20.25l-24.01,18.02l24.6,32.8l24.02-18.01
			c13.59-10.19,32.86-7.44,43.06,6.15c4.9,6.53,7,14.74,5.84,22.81l-4.24,29.73l40.68,5.82l4.24-29.73
			c2.41-16.81,17.98-28.49,34.8-26.09c8.07,1.15,15.36,5.47,20.25,12l18.02,24.01l32.8-24.6l-18.07-24.06
			c-10.19-13.59-7.43-32.87,6.16-43.05c6.51-4.88,14.7-6.99,22.76-5.84l29.73,4.24l5.79-40.59L309.31,203.37z M183.91,267.67
			c-33.97,0-61.51-27.54-61.51-61.51s27.54-61.51,61.51-61.51s61.51,27.54,61.51,61.51C245.38,240.12,217.86,267.63,183.91,267.67z"
			/>
	</g>
	<g>
	</g>
	<g>
	</g>
	<g>
	</g>
	<g>
	</g>
	<g>
	</g>
	<g>
	</g>
	<g>
	</g>
	<g>
	</g>
	<g>
	</g>
	<g>
	</g>
	<g>
	</g>
	<g>
	</g>
	<g>
	</g>
	<g>
	</g>
	<g>
	</g>
	<g>
		<g>
			<g>
				<path class="st5" d="M345.4,262.09c2.7,5.95,5.06,12.05,7.08,18.26c26.43-15.35,60.3-6.37,75.66,20.06
					c10.45,17.99,9.93,40.32-1.35,57.8c-15.13,23.53-45.55,32.97-70.8,20.93c-2.65,10.43-6.1,19.76-10.6,29.53l5.24-5.32
					c4.81-4.89,11.9-7.02,18.49-5.13c5.61,1.61,9.92,5.6,12.04,10.65l9.07,21.51l23.27-5.06l-0.76-23.37
					c-0.34-10.21,7.66-18.77,17.88-19.11c2.45-0.08,4.89,0.32,7.18,1.19l22.04,8.36l11.86-18.51l-16.51-16.26
					c-4.89-4.82-7.02-11.93-5.11-18.53c1.62-5.6,5.62-9.9,10.66-12.01l21.49-8.99l-5.11-23.26l-22.98,0.77
					c-6.85,0.23-13.46-3.12-16.91-9.04c-2.93-5.03-3.31-10.89-1.37-16.01l8.39-22.07l-18.51-11.87l-16.53,16.8
					c-7.17,7.28-18.88,7.38-26.17,0.21c-1.75-1.72-3.13-3.77-4.08-6.03l-9.05-21.49l-27.42,6
					C342.28,242.08,345.15,249.65,345.4,262.09z"/>
			</g>
		</g>
		<g>
			<g>
				<path class="st5" d="M363.87,259.86c0.26,6.53,20.05,6.58,21.04,13.04c-30.51-1.87-59.4,22-61.27,52.51
					c-1.27,20.77,9.21,40.49,27.13,51.06c24.07,14.24,55.53,10.26,72.7-11.82c7.05,8.13,14.28,13.71,22.69,20.42l-7.07-2.41
					c-6.49-2.21-16.06-4.5-21.1,0.14c-4.29,3.95-11.25,14.75-10.88,20.21l2.92,17.45l-15.55,4.67l-11.54-15.88
					c-4.27-9.28-15.27-13.34-24.55-9.07c-2.23,1.03-4.23,2.48-5.88,4.29l-15.95,17.35l-18.9-11.22l7.47-21.93
					c2.21-6.5,0.93-13.81-3.74-18.85c-3.96-4.28-9.46-6.33-14.91-5.95l-23.24,1.6l-5.86-23.08l20.88-9.62
					c6.22-2.87,10.63-8.82,11.06-15.66c0.37-5.81-1.93-11.22-5.96-14.92l-17.39-15.96l11.23-18.91l22.31,7.61
					c9.67,3.3,22.12-3.15,25.42-12.82c0.79-2.32,5.83-2.18,5.67-4.63l7.42-6.53l5.36-11.93
					C370.09,246.87,363.59,249.53,363.87,259.86z"/>
			</g>
		</g>
	</g>
</g>
</svg>
