<?xml version="1.0" encoding="utf-8"?>
<!-- Generator: Adobe Illustrator 24.2.0, SVG Export Plug-In . SVG Version: 6.00 Build 0)  -->
<svg version="1.1" id="Layer_1" xmlns="http://www.w3.org/2000/svg" xmlns:xlink="http://www.w3.org/1999/xlink" x="0px" y="0px"
	 viewBox="0 0 500 500" style="enable-background:new 0 0 500 500;" xml:space="preserve">
<style type="text/css">
	.st0{fill:#1E90DD;}
	.st1{fill:#EFF5FA;}
	.st2{fill:#3FA9F5;}
	.st3{fill:none;stroke:#3FA9F5;stroke-width:40;stroke-miterlimit:10;}
	.st4{fill:#F15D69;}
</style>
<g>
	<rect x="-159.5" y="19.5" class="st0" width="40" height="30"/>
	<g>
		<path class="st1" d="M-120,20v29h-39V20H-120 M-119,19h-41v31h41V19L-119,19z"/>
	</g>
</g>
<g>
	<rect x="-106.5" y="22.5" class="st1" width="39" height="30"/>
	<path class="st1" d="M-68,23v29h-38V23H-68 M-67,22h-40v31h40V22L-67,22z"/>
</g>
<g>
	<g>
		<path class="st2" d="M64.46,98c9.63,0,17.46,7.98,17.46,17.78s-7.83,17.78-17.46,17.78S47,125.59,47,115.78S54.83,98,64.46,98
			 M64.46,78C43.77,78,27,94.92,27,115.78s16.77,37.78,37.46,37.78c20.69,0,37.46-16.92,37.46-37.78S85.14,78,64.46,78L64.46,78z"/>
	</g>
	<g>
		<path class="st2" d="M64.46,339.82c9.63,0,17.46,7.98,17.46,17.78c0,9.81-7.83,17.78-17.46,17.78S47,367.41,47,357.6
			C47,347.8,54.83,339.82,64.46,339.82 M64.46,319.82C43.77,319.82,27,336.74,27,357.6c0,20.87,16.77,37.78,37.46,37.78
			c20.69,0,37.46-16.92,37.46-37.78C101.91,336.74,85.14,319.82,64.46,319.82L64.46,319.82z"/>
	</g>
	<g>
		<path class="st2" d="M64.46,339.82c9.63,0,17.46,7.98,17.46,17.78c0,9.81-7.83,17.78-17.46,17.78S47,367.41,47,357.6
			C47,347.8,54.83,339.82,64.46,339.82 M64.46,319.82C43.77,319.82,27,336.74,27,357.6c0,20.87,16.77,37.78,37.46,37.78
			c20.69,0,37.46-16.92,37.46-37.78C101.91,336.74,85.14,319.82,64.46,319.82L64.46,319.82z"/>
	</g>
	<g>
		<path class="st2" d="M64.46,218.91c9.63,0,17.46,7.98,17.46,17.78s-7.83,17.78-17.46,17.78S47,246.5,47,236.69
			S54.83,218.91,64.46,218.91 M64.46,198.91c-20.69,0-37.46,16.92-37.46,37.78s16.77,37.78,37.46,37.78
			c20.69,0,37.46-16.92,37.46-37.78S85.14,198.91,64.46,198.91L64.46,198.91z"/>
	</g>
</g>
<g>
	<line class="st3" x1="114.4" y1="115.78" x2="459" y2="115.78"/>
	<line class="st3" x1="114.4" y1="357.6" x2="459" y2="357.6"/>
	<line class="st3" x1="114.4" y1="236.69" x2="459" y2="236.69"/>
</g>
<g>
	<rect x="-159.5" y="69.5" class="st4" width="43" height="38"/>
	<path class="st1" d="M-117,70v37h-42V70H-117 M-116,69h-44v39h44V69L-116,69z"/>
</g>
</svg>
