<?xml version="1.0"?>
<svg xmlns="http://www.w3.org/2000/svg" height="512px" viewBox="0 0 64 64" width="512px" class=""><g><path d="m43 11h-22a3 3 0 0 0 -3 3v16a3 3 0 0 0 3 3h22a3 3 0 0 0 3-3v-16a3 3 0 0 0 -3-3zm-22 2h22a1 1 0 0 1 1 1v1h-24v-1a1 1 0 0 1 1-1zm22 18h-22a1 1 0 0 1 -1-1v-13h24v13a1 1 0 0 1 -1 1z" data-original="#000000" class="active-path" data-old_color="#000000" fill="#198FDD"/><path d="m22 27h9v2h-9z" data-original="#000000" class="active-path" data-old_color="#000000" fill="#198FDD"/><path d="m33 27h9v2h-9z" data-original="#000000" class="active-path" data-old_color="#000000" fill="#198FDD"/><path d="m22 23h9v2h-9z" data-original="#000000" class="active-path" data-old_color="#000000" fill="#198FDD"/><path d="m33 23h9v2h-9z" data-original="#000000" class="active-path" data-old_color="#000000" fill="#198FDD"/><path d="m22 19h9v2h-9z" data-original="#000000" class="active-path" data-old_color="#000000" fill="#198FDD"/><path d="m33 19h9v2h-9z" data-original="#000000" class="active-path" data-old_color="#000000" fill="#198FDD"/><path d="m37 10h-10a1 1 0 0 1 -.98-.8l-1-5a1 1 0 0 1 1.427-1.091l3.21 1.606 1.511-2.266a1.039 1.039 0 0 1 1.664 0l1.511 2.266 3.21-1.606a1 1 0 0 1 1.427 1.091l-1 5a1 1 0 0 1 -.98.8zm-9.181-2h8.362l.437-2.191-2.171 1.091a1 1 0 0 1 -1.279-.34l-1.168-1.76-1.168 1.755a1 1 0 0 1 -1.279.34l-2.171-1.086z" data-original="#000000" class="active-path" data-old_color="#000000" fill="#198FDD"/><path d="m27 57h10v2h-10z" data-original="#000000" class="active-path" data-old_color="#000000" fill="#198FDD"/><path d="m27 54h10v2h-10z" data-original="#000000" class="active-path" data-old_color="#000000" fill="#198FDD"/><path d="m48 57h10v2h-10z" data-original="#000000" class="active-path" data-old_color="#000000" fill="#198FDD"/><path d="m48 54h10v2h-10z" data-original="#000000" class="active-path" data-old_color="#000000" fill="#198FDD"/><path d="m6 57h10v2h-10z" data-original="#000000" class="active-path" data-old_color="#000000" fill="#198FDD"/><path d="m38 44h-12a3 3 0 0 0 -3 3v12a3 3 0 0 0 3 3h12a3 3 0 0 0 3-3v-12a3 3 0 0 0 -3-3zm-12 2h12a1 1 0 0 1 1 1v1h-14v-1a1 1 0 0 1 1-1zm12 14h-12a1 1 0 0 1 -1-1v-9h14v9a1 1 0 0 1 -1 1z" data-original="#000000" class="active-path" data-old_color="#000000" fill="#198FDD"/><path d="m27 51h10v2h-10z" data-original="#000000" class="active-path" data-old_color="#000000" fill="#198FDD"/><path d="m59 44h-12a3 3 0 0 0 -3 3v12a3 3 0 0 0 3 3h12a3 3 0 0 0 3-3v-12a3 3 0 0 0 -3-3zm-12 2h12a1 1 0 0 1 1 1v1h-14v-1a1 1 0 0 1 1-1zm12 14h-12a1 1 0 0 1 -1-1v-9h14v9a1 1 0 0 1 -1 1z" data-original="#000000" class="active-path" data-old_color="#000000" fill="#198FDD"/><path d="m48 51h10v2h-10z" data-original="#000000" class="active-path" data-old_color="#000000" fill="#198FDD"/><path d="m17 44h-12a3 3 0 0 0 -3 3v12a3 3 0 0 0 3 3h12a3 3 0 0 0 3-3v-12a3 3 0 0 0 -3-3zm-12 2h12a1 1 0 0 1 1 1v1h-14v-1a1 1 0 0 1 1-1zm12 14h-12a1 1 0 0 1 -1-1v-9h14v9a1 1 0 0 1 -1 1z" data-original="#000000" class="active-path" data-old_color="#000000" fill="#198FDD"/><path d="m6 54h10v2h-10z" data-original="#000000" class="active-path" data-old_color="#000000" fill="#198FDD"/><path d="m6 51h10v2h-10z" data-original="#000000" class="active-path" data-old_color="#000000" fill="#198FDD"/><path d="m34.293 37.293-1.293 1.293v-3.586a1 1 0 0 0 -2 0v3.586l-1.293-1.293a1 1 0 0 0 -1.414 1.414l3 3a1 1 0 0 0 1.414 0l3-3a1 1 0 0 0 -1.414-1.414z" data-original="#000000" class="active-path" data-old_color="#000000" fill="#198FDD"/><path d="m17.293 34.293-4.293 4.293v-1.586a1 1 0 0 0 -2 0v4a1 1 0 0 0 1 1h4a1 1 0 0 0 0-2h-1.586l4.293-4.293a1 1 0 0 0 -1.414-1.414z" data-original="#000000" class="active-path" data-old_color="#000000" fill="#198FDD"/><path d="m52 36a1 1 0 0 0 -1 1v1.586l-4.293-4.293a1 1 0 0 0 -1.414 1.414l4.293 4.293h-1.586a1 1 0 0 0 0 2h4a1 1 0 0 0 1-1v-4a1 1 0 0 0 -1-1z" data-original="#000000" class="active-path" data-old_color="#000000" fill="#198FDD"/></g> </svg>
