<!--?xml version="1.0" encoding="UTF-8"?-->
<svg width="497px" height="576px" viewBox="0 0 497 576" version="1.1" xmlns="http://www.w3.org/2000/svg" xmlns:xlink="http://www.w3.org/1999/xlink" style="">
    <title>sprinter-monochrome-</title>
    <defs>
        <linearGradient x1="14.1569816%" y1="87.7549073%" x2="87.6088851%" y2="14.1496682%" id="linearGradient-1">
            <stop stop-color="#F85866" stop-opacity="0.16" offset="0%"></stop>
            <stop stop-color="#F85866" stop-opacity="0" offset="100%"></stop>
        </linearGradient>
    </defs>
    <g id="Web" stroke="none" stroke-width="1" fill="none" fill-rule="evenodd">
        <g id="4.-Our-Approach_desktop" transform="translate(-791.000000, -134.000000)">
            <g id="sprinter-monochrome-" transform="translate(792.807377, 135.000000)">
                <path d="M72.133894,140.910712 C86.4519618,128.819296 103.199598,119.439578 120.596132,112.300619 C157.843725,97.0168006 200.222819,87.1335901 239.503915,78.7337293 C281.049641,69.848823 324.481295,66.5902282 366.471918,74.3791703 C398.694352,80.3559735 430.177825,93.731078 453.774695,116.472879 C503.149513,164.059431 503.453345,239.829626 476.55556,299.088739 C450.992465,355.409367 420.321742,410.704562 376.215149,454.751474 C321.640468,509.251282 245.909337,540.003388 168.374748,529.718686 C48.1973833,513.775118 22.2458175,366.14005 22.3485978,267.218967 C22.3868822,230.193821 29.5898632,191.412963 52.5248145,161.367265 C58.2878503,153.817048 64.9005298,147.017729 72.133894,140.910712" id="Fill-1" fill="url(#linearGradient-1)" class="FxLZsybb_0"></path>
                <path id="Path" stroke="#000000" stroke-width="2" stroke-linecap="round" stroke-linejoin="round" d="M273.611945,200.401214L273.604028,200.393297L273.611945,200.401214Z" class="FxLZsybb_1"></path>
                <path d="M259.067972,188.754952 C259.2184,188.929131 259.376745,189.095393 259.53509,189.269572 L259.067972,188.754952 Z" id="Path" stroke="#000000" stroke-width="2" stroke-linecap="round" stroke-linejoin="round" class="FxLZsybb_2"></path>
                <path d="M257.484524,186.6648 C257.571614,186.80731 257.666621,186.957738 257.769545,187.100248 C257.666621,186.957738 257.571614,186.846897 257.484524,186.6648 Z" id="Path" stroke="#000000" stroke-width="2" stroke-linecap="round" stroke-linejoin="round" class="FxLZsybb_3"></path>
                <path d="M257.880386,187.258593 C258.21955,187.744269 258.587018,188.209552 258.980883,188.652028 C258.590267,188.206838 258.222944,187.741738 257.880386,187.258593 Z" id="Path" stroke="#000000" stroke-width="2" stroke-linecap="round" stroke-linejoin="round" class="FxLZsybb_4"></path>
                <path d="M273.849462,93.019669 C273.896966,92.8692414 273.936552,92.7029793 273.984055,92.560469 C271.007172,92.8085425 268.040846,93.0724506 265.085076,93.3521931 C268.806179,93.2413517 271.878069,93.1225931 273.849462,93.019669 Z" id="Path" stroke="#000000" stroke-width="2" stroke-linecap="round" stroke-linejoin="round" class="FxLZsybb_5"></path>
                <path d="M330.196469,95.4581793 C337.33202,92.8849906 345.021987,92.2484853 352.483503,93.6134621 C352.879366,93.0988414 353.275228,92.560469 353.718593,91.9745931 C340.773903,90.9453517 327.504607,90.5574069 314.195724,90.692 C320.141572,91.6895724 325.739062,93.2255172 330.196469,95.4581793 Z" id="Path" fill="#F1F1F1" fill-rule="nonzero" class="FxLZsybb_6"></path>
                <path id="Oval" stroke="#000000" stroke-width="2" stroke-linecap="round" stroke-linejoin="round" transform="translate(397.795885, 60.884934) rotate(-76.450000) translate(-397.795885, -60.884934) " d="M361.6378436,60.8849338A36.1580414,29.7688276 0,1,1 433.9539264,60.8849338A36.1580414,29.7688276 0,1,1 361.6378436,60.8849338" class="FxLZsybb_7"></path>
                <path d="M386.266372,57.7958621 C400.517407,58.0967172 417.72949,55.4206897 427.238097,50.1398897 C424.942097,38.0027586 417.238621,28.3674759 406.257407,25.7310345 C390.272497,21.8753379 373.519614,34.4954207 368.840524,53.9005793 C368.745517,54.3201931 368.658428,54.7398069 368.571338,55.1515034 C369.471427,55.4824069 370.388484,55.7651881 371.318621,55.9986483" id="Path" stroke="#F85866" stroke-width="2" stroke-linecap="round" stroke-linejoin="round" class="FxLZsybb_8"></path>
                <path d="M367.8192,68.1436966 C362.657159,78.5707034 353.275228,94.2072552 349.063255,97.2553931 C348.683228,104.175062 364.786897,115.591724 372.466621,113.652 C375.008055,107.2232 379.014179,98.8309241 382.941131,93.5184552" id="Path" stroke="#000000" stroke-width="2" stroke-linecap="round" stroke-linejoin="round" class="FxLZsybb_9"></path>
                <path d="M375.419752,106.811503 C403.058841,140.483531 359.735697,219.489683 339.1192,227.565269 C327.013738,232.315614 257.191586,195.896303 256.439448,183.965021 C256.130676,178.985076 265.615531,158.059807 280.682041,137.522483" id="Path" stroke="#000000" stroke-width="2" stroke-linecap="round" stroke-linejoin="round" class="FxLZsybb_10"></path>
                <path d="M330.196469,95.4423448 C337.332554,92.8703578 345.02359,92.2392284 352.483503,93.6134621" id="Path" stroke="#000000" stroke-width="2" stroke-linecap="round" stroke-linejoin="round" class="FxLZsybb_11"></path>
                <path d="M383.028221,122.97851 C396.970483,128.243476 413.525434,144.299641 414.119228,149.105407 C415.409738,159.524497 390.367503,181.819448 384.374152,181.29691 C382.735283,181.162317 379.916745,177.813324 376.900276,172.762124" id="Path" stroke="#000000" stroke-width="2" stroke-linecap="round" stroke-linejoin="round" class="FxLZsybb_12"></path>
                <path d="M339.910924,106.494814 C345.080883,137.76 282.835531,139.897655 278.87691,136.968276 C274.91829,134.038897 270.0096,97.0257931 274.91829,90.6524138 C286.010345,87.7230345 336.672772,86.8758897 339.910924,106.494814 Z" id="Path" stroke="#000000" stroke-width="2" stroke-linecap="round" stroke-linejoin="round" class="FxLZsybb_13"></path>
                <path d="M248.8864,192.610648 L130.927421,361.817931 L28.3753931,481.969986 C28.3753931,486.807421 47.0204966,506.703448 49.8786207,506.703448 C56.8774621,503.473214 323.997269,284.228966 323.997269,284.228966 L248.8864,192.610648 Z" id="Path" fill="#F85866" fill-rule="nonzero" class="FxLZsybb_14"></path>
                <path d="M256.439448,183.965021 C172.754207,247.896745 299.097545,321.725021 371.239448,292.019531 C369.735172,302.834483 358.160166,406.494924 358.160166,406.494924 L386.915586,415.726428 C386.915586,415.726428 457.426538,269.257462 444.901462,237.002621 C440.808248,226.448938 300.261379,197.511421 273.611945,200.401214 C267.246483,195.951724 256.898648,188.897462 256.439448,183.965021 Z" id="Path" fill="#F85866" fill-rule="nonzero" class="FxLZsybb_15"></path>
                <path id="Path" stroke="#000000" stroke-width="2" stroke-linecap="round" stroke-linejoin="round" d="M355.199117,418.299531L340.655145,444.054317L394.975338,488.913407L402.338372,479.452303L378.333297,427.412276Z" class="FxLZsybb_16"></path>
                <path id="Path" stroke="#000000" stroke-width="2" stroke-linecap="round" stroke-linejoin="round" d="M21.4082207,495.057186L0,511.69131L13.7997517,573.342869L26.4435862,570.761848L37.2743724,511.952579Z" class="FxLZsybb_17"></path>
                <path d="M390.129986,178.992993 C399.907779,186.641048 433.476883,205.816607 438.480579,205.365324 C443.618869,204.906124 468.201903,141.394014 477.583834,124.063172 C481.772055,122.131366 485.675255,117.919393 487.939586,112.306069 C491.747779,102.884552 489.475531,93.0750897 482.864634,90.4148966 C476.253738,87.7547034 467.821876,93.2255172 464.013683,102.654952 C462.712433,105.812305 462.09453,109.209421 462.200634,112.622759 C455.938097,126.82629 430.294152,165.232828 430.294152,165.232828 L413.177076,154.20411" id="Path" stroke="#000000" stroke-width="2" stroke-linecap="round" stroke-linejoin="round" class="FxLZsybb_18"></path>
                <path d="M273.849462,93.019669 C262.765324,93.5897103 216.694897,94.7614621 216.694897,94.7614621 C216.694897,94.7614621 158.146897,103.834621 140.238097,104.024634 C136.701553,101.169132 132.281985,99.6324996 127.736772,99.678069 C117.737297,99.678069 109.630041,106.708579 109.630041,115.370041 C109.630041,124.031503 117.737297,131.062014 127.736772,131.062014 C131.562118,131.090897 135.315493,130.022037 138.551724,127.982207 C160.72,124.324441 219.363007,126.066234 224.430041,126.295834 C229.1408,126.517517 262.971172,129.660662 276.343393,131.046179" id="Path" stroke="#000000" stroke-width="2" stroke-linecap="round" stroke-linejoin="round" class="FxLZsybb_19"></path>
                <path d="M399.749434,25.0501517 C398.846869,9.57194483 381.650621,0 371.421545,0 C341.122262,0 341.834814,47.1313379 302.969076,47.1313379 C299.501324,47.1313379 297.941628,46.5375448 293.872166,47.4401103 C293.872166,62.2453517 312.16891,75.0871172 324.187283,75.0871172 C357.510952,75.0871172 362.562152,27.583669 383.154897,27.583669 C384.593036,27.6544248 386.007749,27.9759505 387.3352,28.5337379" id="Path" stroke="#F85866" stroke-width="2" stroke-linecap="round" stroke-linejoin="round" class="FxLZsybb_20"></path>
                <path id="Path" stroke="#000000" stroke-width="2" stroke-linecap="round" stroke-linejoin="round" d="M355.199117,418.299531L340.655145,444.054317L394.975338,488.913407L402.338372,479.452303L378.333297,427.412276Z" class="FxLZsybb_21"></path>
                <path id="Path" stroke="#000000" stroke-width="2" stroke-linecap="round" stroke-linejoin="round" d="M355.199117,418.299531L340.655145,444.054317L394.975338,488.913407L402.338372,479.452303L378.333297,427.412276Z" class="FxLZsybb_22"></path>
                <path d="M377.14571,68.618731 C376.382164,68.5729588 375.630968,68.4045413 374.920966,68.1199448 C370.875255,66.4810759 369.093876,61.4298759 370.962345,56.8299586 C372.830814,52.2300414 377.589076,49.8311172 381.611034,51.462069 C384.777931,52.7525793 386.575145,56.1569931 386.290124,59.7910069" id="Path" stroke="#000000" stroke-width="2" stroke-linecap="round" stroke-linejoin="round" class="FxLZsybb_23"></path>
            </g>
        </g>
    </g>
<style data-made-with="vivus-instant">.FxLZsybb_0{stroke-dasharray:1487 1489;stroke-dashoffset:1488;animation:FxLZsybb_draw 1800ms ease-out 0ms forwards;}.FxLZsybb_1{stroke-dasharray:1 3;stroke-dashoffset:2;animation:FxLZsybb_draw 1800ms ease-out 8ms forwards;}.FxLZsybb_2{stroke-dasharray:2 4;stroke-dashoffset:3;animation:FxLZsybb_draw 1800ms ease-out 17ms forwards;}.FxLZsybb_3{stroke-dasharray:2 4;stroke-dashoffset:3;animation:FxLZsybb_draw 1800ms ease-out 26ms forwards;}.FxLZsybb_4{stroke-dasharray:4 6;stroke-dashoffset:5;animation:FxLZsybb_draw 1800ms ease-out 34ms forwards;}.FxLZsybb_5{stroke-dasharray:19 21;stroke-dashoffset:20;animation:FxLZsybb_draw 1800ms ease-out 43ms forwards;}.FxLZsybb_6{stroke-dasharray:81 83;stroke-dashoffset:82;animation:FxLZsybb_draw 1800ms ease-out 52ms forwards;}.FxLZsybb_7{stroke-dasharray:208 210;stroke-dashoffset:209;animation:FxLZsybb_draw 1800ms ease-out 60ms forwards;}.FxLZsybb_8{stroke-dasharray:133 135;stroke-dashoffset:134;animation:FxLZsybb_draw 1800ms ease-out 69ms forwards;}.FxLZsybb_9{stroke-dasharray:89 91;stroke-dashoffset:90;animation:FxLZsybb_draw 1800ms ease-out 78ms forwards;}.FxLZsybb_10{stroke-dasharray:286 288;stroke-dashoffset:287;animation:FxLZsybb_draw 1800ms ease-out 86ms forwards;}.FxLZsybb_11{stroke-dasharray:23 25;stroke-dashoffset:24;animation:FxLZsybb_draw 1800ms ease-out 95ms forwards;}.FxLZsybb_12{stroke-dasharray:99 101;stroke-dashoffset:100;animation:FxLZsybb_draw 1800ms ease-out 104ms forwards;}.FxLZsybb_13{stroke-dasharray:197 199;stroke-dashoffset:198;animation:FxLZsybb_draw 1800ms ease-out 113ms forwards;}.FxLZsybb_14{stroke-dasharray:870 872;stroke-dashoffset:871;animation:FxLZsybb_draw 1800ms ease-out 121ms forwards;}.FxLZsybb_15{stroke-dasharray:767 769;stroke-dashoffset:768;animation:FxLZsybb_draw 1800ms ease-out 130ms forwards;}.FxLZsybb_16{stroke-dasharray:195 197;stroke-dashoffset:196;animation:FxLZsybb_draw 1800ms ease-out 139ms forwards;}.FxLZsybb_17{stroke-dasharray:187 189;stroke-dashoffset:188;animation:FxLZsybb_draw 1800ms ease-out 147ms forwards;}.FxLZsybb_18{stroke-dasharray:304 306;stroke-dashoffset:305;animation:FxLZsybb_draw 1800ms ease-out 156ms forwards;}.FxLZsybb_19{stroke-dasharray:351 353;stroke-dashoffset:352;animation:FxLZsybb_draw 1800ms ease-out 165ms forwards;}.FxLZsybb_20{stroke-dasharray:266 268;stroke-dashoffset:267;animation:FxLZsybb_draw 1800ms ease-out 173ms forwards;}.FxLZsybb_21{stroke-dasharray:195 197;stroke-dashoffset:196;animation:FxLZsybb_draw 1800ms ease-out 182ms forwards;}.FxLZsybb_22{stroke-dasharray:195 197;stroke-dashoffset:196;animation:FxLZsybb_draw 1800ms ease-out 191ms forwards;}.FxLZsybb_23{stroke-dasharray:40 42;stroke-dashoffset:41;animation:FxLZsybb_draw 1800ms ease-out 200ms forwards;}@keyframes FxLZsybb_draw{100%{stroke-dashoffset:0;}}@keyframes FxLZsybb_fade{0%{stroke-opacity:1;}93.54838709677419%{stroke-opacity:1;}100%{stroke-opacity:0;}}</style></svg>