<?xml version="1.0"?>
<svg xmlns="http://www.w3.org/2000/svg" id="Capa_1" enable-background="new 0 0 512 512" height="512px" viewBox="0 0 512 512" width="512px"><g><g><g><path d="" data-original="#000000" class="active-path" data-old_color="#000000" fill="#198FDD"/></g><g><path d="m512 142.409v-24.606c0-16.615-8.341-31.887-21.847-41.021 4.395-7.13 6.937-15.519 6.937-24.492 0-25.8-21.002-46.79-46.816-46.79-25.8 0-46.789 20.99-46.789 46.79 0 5.258.878 10.313 2.485 15.035-38.128-29.687-83.388-47.162-131.884-50.749-4.124-.291-7.727 2.796-8.032 6.926-.306 4.131 2.796 7.728 6.927 8.033 47.894 3.542 92.432 21.518 129.349 52.1-8.655 9.049-13.754 21.189-13.754 34.167v24.606c0 10.278 8.35 18.641 18.612 18.641h55.903c15.174 31.319 22.884 64.979 22.884 100.138 0 31.218-6.104 61.345-18.126 89.681-5.43-2.207-11.36-3.434-17.574-3.434-25.8 0-46.789 20.99-46.789 46.791 0 8.972 2.54 17.36 6.932 24.49-10.339 6.987-17.644 17.578-20.502 29.62-39.302 28.242-85.651 43.164-134.24 43.164-48.228 0-94.302-14.73-133.454-42.612-2.765-12.265-10.143-23.072-20.641-30.171 4.395-7.13 6.937-15.519 6.937-24.491 0-25.801-21.002-46.791-46.817-46.791-6.407 0-12.517 1.297-18.083 3.639-12.079-28.403-18.212-58.599-18.212-89.886 0-35.159 7.71-68.819 22.883-100.138h56.499c10.278 0 18.641-8.362 18.641-18.641v-24.606c0-13.116-5.201-25.394-14.034-34.477 36.892-30.426 81.396-48.303 129.257-51.819 4.132-.303 7.234-3.897 6.931-8.028s-3.906-7.222-8.028-6.931c-48.253 3.543-93.296 20.793-131.297 50.102 1.463-4.528 2.262-9.351 2.262-14.359 0-25.8-21.002-46.79-46.817-46.79-25.804 0-46.793 20.99-46.793 46.79 0 8.973 2.54 17.361 6.932 24.491-13.504 9.126-21.842 24.398-21.842 41.022v24.606c0 10.278 8.35 18.641 18.612 18.641h13.125c-14.148 31.502-21.334 65.125-21.334 100.138 0 34.138 6.851 67.067 20.358 97.978-9.711 8.58-15.852 21.113-15.852 35.06 0 8.972 2.54 17.36 6.932 24.49-13.502 9.126-21.841 24.398-21.841 41.022v24.605c0 10.278 8.35 18.641 18.612 18.641h86.173c10.278 0 18.641-8.362 18.641-18.641v-16.527c39.48 25.353 84.891 38.683 132.248 38.683 47.652 0 93.286-13.471 132.9-39.09v16.934c0 10.278 8.35 18.641 18.612 18.641h86.173c10.278 0 18.641-8.362 18.641-18.641v-24.605c0-16.616-8.341-31.888-21.847-41.021 4.395-7.13 6.937-15.518 6.937-24.491 0-14.159-6.333-26.859-16.308-35.446 13.397-30.79 20.191-63.589 20.191-97.592 0-35.014-7.186-68.637-21.334-100.138h13.72c10.279 0 18.641-8.362 18.641-18.641zm-450.302-121.909c17.544 0 31.817 14.261 31.817 31.79 0 17.545-14.273 31.819-31.817 31.819-17.528 0-31.788-14.274-31.788-31.819 0-17.529 14.26-31.79 31.788-31.79zm-43.086 125.55c-1.958 0-3.612-1.667-3.612-3.641v-24.606c0-12.19 6.454-23.336 16.769-29.559 8.118 6.778 18.555 10.865 29.93 10.865 11.383 0 21.827-4.087 29.95-10.866 10.32 6.23 16.778 17.377 16.778 29.56v24.606c0 1.974-1.667 3.641-3.641 3.641zm43.086 216.385c17.544 0 31.817 14.262 31.817 31.791 0 17.545-14.273 31.818-31.817 31.818-17.528 0-31.788-14.273-31.788-31.818 0-17.53 14.26-31.791 31.788-31.791zm46.728 121.909c0 1.974-1.667 3.641-3.641 3.641h-86.173c-1.958 0-3.612-1.667-3.612-3.641v-24.605c0-12.19 6.454-23.337 16.769-29.559 8.118 6.778 18.554 10.865 29.929 10.865 11.383 0 21.826-4.087 29.949-10.866 10.321 6.23 16.778 17.377 16.778 29.56v24.605zm388.574-24.606v24.605c0 1.974-1.667 3.641-3.641 3.641h-86.173c-1.958 0-3.612-1.667-3.612-3.641v-24.605c0-12.19 6.454-23.337 16.769-29.559 8.118 6.778 18.555 10.865 29.93 10.865 11.382 0 21.825-4.087 29.949-10.866 10.32 6.23 16.778 17.377 16.778 29.56zm-14.91-65.512c0 17.545-14.272 31.818-31.816 31.818-17.528 0-31.789-14.273-31.789-31.818 0-17.529 14.261-31.791 31.789-31.791 17.543 0 31.816 14.261 31.816 31.791zm-31.817-373.726c17.544 0 31.816 14.261 31.816 31.79 0 17.545-14.272 31.819-31.816 31.819-17.528 0-31.789-14.274-31.789-31.819 0-17.529 14.261-31.79 31.789-31.79zm-43.086 125.55c-1.958 0-3.612-1.667-3.612-3.641v-24.606c0-12.19 6.454-23.336 16.769-29.559 8.118 6.778 18.555 10.865 29.93 10.865 11.382 0 21.826-4.087 29.949-10.866 10.32 6.23 16.778 17.377 16.778 29.56v24.606c0 1.974-1.667 3.641-3.641 3.641z" data-original="#000000" class="active-path" data-old_color="#000000" fill="#198FDD"/><path d="m272.115 105.03h-32.854c-10.591 0-19.207 8.616-19.207 19.208v6.405c-10.989 2.981-21.536 7.349-31.479 13.034l-4.53-4.53c-3.624-3.624-8.451-5.62-13.595-5.62s-9.971 1.996-13.595 5.62l-23.216 23.216c-3.624 3.625-5.62 8.453-5.62 13.596s1.996 9.971 5.62 13.595l4.53 4.531c-5.685 9.943-10.052 20.491-13.033 31.481h-6.405c-10.591 0-19.207 8.616-19.207 19.208v32.855c0 10.591 8.616 19.207 19.207 19.207h6.404c2.984 10.999 7.352 21.542 13.035 31.466l-4.515 4.53c-3.627 3.604-5.629 8.424-5.636 13.572-.008 5.161 1.988 10.004 5.619 13.634l23.216 23.217c3.624 3.624 8.451 5.621 13.595 5.621s9.971-1.997 13.595-5.62l4.529-4.53c9.945 5.686 20.491 10.052 31.48 13.033v6.406c0 10.592 8.616 19.208 19.207 19.208h32.854c10.591 0 19.207-8.616 19.207-19.208v-6.406c10.996-2.982 21.538-7.351 31.463-13.035l4.529 4.515c3.604 3.627 8.424 5.629 13.571 5.637h.031c5.149 0 9.98-1.995 13.604-5.62l23.216-23.216c3.631-3.632 5.627-8.474 5.619-13.635-.008-5.147-2.01-9.968-5.611-13.548l-4.54-4.555c5.684-9.925 10.051-20.467 13.035-31.466h6.404c10.591 0 19.207-8.616 19.207-19.207v-32.855c0-10.592-8.616-19.208-19.207-19.208h-6.405c-2.981-10.99-7.348-21.537-13.033-31.481l4.531-4.531c7.495-7.496 7.495-19.693 0-27.189l-23.216-23.217c-3.624-3.625-8.455-5.621-13.605-5.621-.01 0-.021 0-.03.001-5.147.008-9.968 2.01-13.546 5.611l-4.555 4.54c-9.925-5.685-20.466-10.052-31.463-13.035v-6.405c.002-10.593-8.614-19.209-19.205-19.209zm47.805 54.432c2.961 1.871 6.824 1.449 9.308-1.025l8.728-8.7c1.043-1.05 2.299-1.208 2.954-1.209h.006c.666 0 1.934.16 2.999 1.226l23.216 23.217c1.647 1.648 1.647 4.33 0 5.979l-8.674 8.675c-2.479 2.479-2.909 6.344-1.037 9.308 7.383 11.689 12.643 24.397 15.632 37.771.766 3.428 3.808 5.864 7.319 5.864h12.274c2.28 0 4.207 1.927 4.207 4.208v32.855c0 2.28-1.927 4.207-4.207 4.207h-12.275c-3.512 0-6.554 2.437-7.319 5.864-2.992 13.388-8.25 26.085-15.628 37.737-1.874 2.961-1.449 6.824 1.025 9.307l8.698 8.727c1.05 1.044 1.209 2.3 1.21 2.956.001.663-.157 1.937-1.227 3.006l-23.216 23.217c-1.068 1.068-2.355 1.239-3.005 1.227-.655-.002-1.911-.16-2.979-1.235l-8.702-8.674c-2.483-2.476-6.348-2.899-9.307-1.025-11.654 7.379-24.351 12.638-37.734 15.629-3.428.766-5.864 3.808-5.864 7.319v12.275c0 2.281-1.927 4.208-4.207 4.208h-32.854c-2.28 0-4.207-1.927-4.207-4.208v-12.275c0-3.512-2.437-6.554-5.864-7.319-13.372-2.989-26.08-8.249-37.771-15.633-1.232-.779-2.622-1.159-4.002-1.159-1.938 0-3.858.749-5.307 2.196l-8.674 8.675c-.791.791-1.852 1.227-2.987 1.227s-2.196-.436-2.987-1.227l-23.217-23.218c-1.069-1.069-1.228-2.342-1.227-3.005.002-.656.16-1.911 1.235-2.98l8.674-8.702c2.475-2.482 2.899-6.347 1.025-9.308-7.378-11.651-12.637-24.348-15.629-37.736-.766-3.428-3.808-5.864-7.319-5.864h-12.274c-2.28 0-4.207-1.927-4.207-4.207v-32.855c0-2.281 1.927-4.208 4.207-4.208h12.274c3.512 0 6.554-2.437 7.319-5.864 2.989-13.375 8.249-26.083 15.633-37.771 1.872-2.964 1.441-6.83-1.037-9.309l-8.674-8.676c-.791-.791-1.228-1.852-1.228-2.988s.437-2.197 1.228-2.989l23.216-23.217c.791-.791 1.852-1.226 2.987-1.226s2.196.435 2.987 1.226l8.674 8.675c2.479 2.479 6.343 2.911 9.31 1.038 11.689-7.385 24.396-12.645 37.77-15.634 3.428-.766 5.864-3.808 5.864-7.319v-12.274c0-2.281 1.927-4.208 4.207-4.208h32.854c2.28 0 4.207 1.927 4.207 4.208v12.274c0 3.512 2.437 6.554 5.864 7.319 13.386 2.989 26.082 8.247 37.735 15.627z" data-original="#000000" class="active-path" data-old_color="#000000" fill="#198FDD"/><path d="m212.812 224.59c-13.133 13.565-13.136 35.665-.007 49.263.036.038.073.075.11.112l34.845 34.534c2.079 2.059 4.919 3.818 7.914 3.816 3.002-.002 5.864-1.747 7.946-3.819l30.629-30.375 4.195-4.139c.046-.045.091-.091.136-.138 13.087-13.594 13.084-35.687-.006-49.246-10.958-11.355-28.992-11.366-42.885-.352-13.874-11.012-31.923-11.011-42.877.344zm34.844 12.498c.502.456.905.842 1.236 1.157 1.451 1.387 3.44 3.285 6.781 3.285 3.362 0 5.373-1.916 6.841-3.314.325-.311.72-.687 1.184-1.108 6.77-6.098 17.51-8.903 24.083-2.092 7.404 7.671 7.422 20.638.054 28.362l-32.147 31.859-28.035-27.776-4.106-4.079c-7.396-7.719-7.383-20.688.052-28.367 6.57-6.815 17.309-4.005 24.057 2.073z" data-original="#000000" class="active-path" data-old_color="#000000" fill="#198FDD"/><path d="m265.957 174.02c-.828 4.059 1.79 8.02 5.849 8.849 36.995 7.552 63.846 40.489 63.846 78.319 0 44.103-35.878 79.982-79.978 79.982-44.084 0-79.949-35.88-79.949-79.982 0-37.909 26.94-70.87 64.06-78.373 4.06-.821 6.686-4.777 5.865-8.838-.821-4.06-4.771-6.69-8.838-5.865-44.088 8.912-76.087 48.056-76.087 93.076 0 52.373 42.594 94.982 94.949 94.982 52.371 0 94.978-42.609 94.978-94.982 0-44.926-31.897-84.045-75.846-93.017-4.055-.825-8.02 1.791-8.849 5.849z" data-original="#000000" class="active-path" data-old_color="#000000" fill="#198FDD"/></g></g></g> </svg>
