<svg xmlns="http://www.w3.org/2000/svg" viewBox="0 0 1166.117 308.573">
  <g id="Layer_2" data-name="Layer 2">
    <g id="Layer_1-2" data-name="Layer 1">
      <g>
        <path d="M440.151,125.786q-16.766,0-24.5-6.447t-7.737-19.988q0-13.857,7.737-20.148t24.5-6.287q16.758,0,24.339,6.287t7.576,20.148q0,13.542-7.576,19.988T440.151,125.786Z"/>
        <g>
          <path d="M190.524,76.651V218.63q0,45.138-24.017,67.538T95.1,308.573q-47.071,0-71.084-22.4T0,218.63V76.651H55.771V219.6q0,22.893,9.833,34.01t29.5,11.122q19.985,0,29.82-11.122t9.832-34.01V76.651Z"/>
          <path d="M378.256,198V305.349h-55.12V212.507q0-16.756-6.3-23.053-6.279-6.279-16.274-6.285a29.873,29.873,0,0,0-14.348,3.544q-6.606,3.561-10.632,11.767-4.042,8.223-4.037,21.436v85.433h-55.12V144.163h49.638l1.514,32.652a66.836,66.836,0,0,1,6.549-12.18A51.529,51.529,0,0,1,294.6,146.9q12.4-5.97,28.2-5.964,16.774,0,29.177,6.446A45.942,45.942,0,0,1,371.329,166.4Q378.244,178.977,378.256,198Z"/>
          <rect x="411.226" y="144.161" width="55.126" height="161.188"/>
          <polygon points="682.556 305.349 620.979 305.349 582.374 239.253 556.179 268.556 556.179 305.349 501.058 305.349 501.058 57.732 556.179 0 556.179 211.624 617.435 144.163 678.679 144.163 619.339 207.46 682.556 305.349"/>
          <path d="M762.178,140.938q25.462,0,44.649,9.832a71.5,71.5,0,0,1,29.981,28.692q10.8,18.858,10.8,45.294t-10.8,45.293a71.472,71.472,0,0,1-29.981,28.691q-19.185,9.838-44.649,9.833-25.144,0-44.327-9.833a71.426,71.426,0,0,1-29.981-28.691q-10.8-18.859-10.8-45.293t10.8-45.294a71.458,71.458,0,0,1,29.981-28.692Q737.028,140.941,762.178,140.938Zm0,39.007a26.931,26.931,0,0,0-15.958,4.675q-6.611,4.677-10.154,14.506t-3.546,25.63q0,15.8,3.546,25.628t10.154,14.507a26.9,26.9,0,0,0,15.958,4.675q9.671,0,16.28-4.675t10.155-14.507q3.543-9.829,3.546-25.628t-3.546-25.63q-3.552-9.829-10.155-14.506T762.178,179.945Z"/>
          <path d="M873.731,305.349V144.161h49l2.256,34.817q5.8-18.05,17.892-28.046t31.109-9.994a49,49,0,0,1,10.477.967,18.406,18.406,0,0,1,6.609,2.579l-5.481,45.455a39.84,39.84,0,0,0-8.22-2.1,75.467,75.467,0,0,0-11.767-.8,39.851,39.851,0,0,0-18.053,4.19,33.743,33.743,0,0,0-13.539,12.251q-5.162,8.063-5.159,20.632v81.238Z"/>
          <path d="M1165.917,198V305.349h-55.132V212.507q0-16.756-6.285-23.053-6.279-6.279-16.274-6.285a29.873,29.873,0,0,0-14.348,3.544q-6.624,3.561-10.643,11.767-4.026,8.223-4.026,21.436v85.433h-55.132V144.163h49.65l1.514,32.652a66.167,66.167,0,0,1,6.548-12.18,51.539,51.539,0,0,1,20.473-17.731q12.4-5.97,28.2-5.964,16.756,0,29.177,6.446a45.919,45.919,0,0,1,19.337,19.015Q1165.911,178.977,1165.917,198Z"/>
          <path d="M873.531,305.349V144.161h49l2.256,34.817q5.8-18.05,17.892-28.046t31.109-9.994a49,49,0,0,1,10.477.967,18.406,18.406,0,0,1,6.609,2.579l-5.481,45.455a39.84,39.84,0,0,0-8.22-2.1,75.467,75.467,0,0,0-11.767-.8,39.851,39.851,0,0,0-18.053,4.19,33.743,33.743,0,0,0-13.539,12.251q-5.162,8.063-5.159,20.632v81.238Z"/>
          <path d="M1165.717,198V305.349h-55.132V212.507q0-16.756-6.285-23.053-6.279-6.279-16.274-6.285a29.873,29.873,0,0,0-14.348,3.544q-6.624,3.561-10.643,11.767-4.026,8.223-4.026,21.436v85.433h-55.132V144.163h49.65l1.514,32.652a66.167,66.167,0,0,1,6.548-12.18,51.539,51.539,0,0,1,20.473-17.731q12.4-5.97,28.2-5.964,16.757,0,29.177,6.446a45.919,45.919,0,0,1,19.337,19.015Q1165.711,178.977,1165.717,198Z"/>
          <path d="M873.331,305.349V144.161h49l2.256,34.817q5.8-18.05,17.892-28.046t31.109-9.994a49,49,0,0,1,10.477.967,18.406,18.406,0,0,1,6.609,2.579l-5.481,45.455a39.84,39.84,0,0,0-8.22-2.1,75.467,75.467,0,0,0-11.767-.8,39.851,39.851,0,0,0-18.053,4.19,33.743,33.743,0,0,0-13.539,12.251q-5.162,8.063-5.159,20.632v81.238Z"/>
          <path d="M1166.117,198V305.349h-55.132V212.507q0-16.756-6.285-23.053-6.279-6.279-16.274-6.285a29.873,29.873,0,0,0-14.348,3.544q-6.624,3.561-10.643,11.767-4.026,8.223-4.026,21.436v85.433h-55.132V144.163h49.65l1.514,32.652a66.167,66.167,0,0,1,6.548-12.18,51.539,51.539,0,0,1,20.473-17.731q12.4-5.97,28.2-5.964,16.757,0,29.177,6.446a45.919,45.919,0,0,1,19.337,19.015Q1166.111,178.977,1166.117,198Z"/>
        </g>
      </g>
    </g>
  </g>
</svg>
