<!--?xml version="1.0" encoding="UTF-8"?-->
<svg width="546px" height="635px" viewBox="0 0 546 635" version="1.1" xmlns="http://www.w3.org/2000/svg" xmlns:xlink="http://www.w3.org/1999/xlink" style="">
    <title>unlock-monochrome</title>
    <defs>
        <linearGradient x1="50%" y1="0%" x2="50%" y2="100%" id="linearGradient-1">
            <stop stop-color="#F85866" stop-opacity="0" offset="0%"></stop>
            <stop stop-color="#F85866" stop-opacity="0.16" offset="100%"></stop>
        </linearGradient>
    </defs>
    <g id="Web" stroke="none" stroke-width="1" fill="none" fill-rule="evenodd">
        <g id="3.-Marketing_desktop" transform="translate(-742.000000, -131.000000)">
            <g id="unlock-monochrome" transform="translate(742.618182, 132.000000)">
                <path d="M52.0518896,119.699721 C68.2242078,112.16568 86.0371044,109.023341 103.623896,106.015614 C198.4914,89.7886098 296.465487,75.420928 390.2256,97.1491284 C438.098943,108.243015 485.144635,130.558037 512.720026,172.874447 C543.34521,219.874918 546.449689,279.769705 534.69852,333.316715 C518.896383,405.331802 479.075547,471.438703 420.870766,516.97948 C380.021412,548.941314 331.905138,571.007095 281.786516,584.362035 C203.362656,605.258378 118.048367,600.316661 68.5964929,527.911411 C51.2200321,502.467721 40.1040611,473.270682 31.3437925,443.731856 C16.4124247,393.38818 7.89929453,341.282986 3.51600527,288.95379 C-0.80418481,237.390197 -9.05124679,163.82287 36.7114288,128.919562 C41.2692925,125.442798 46.3645507,122.348835 52.0518896,119.699721 Z" id="Fill-1" fill="url(#linearGradient-1)" class="uajBKTyG_0"></path>
                <path d="M497.635364,583.106182 C494.992455,579.450636 456.174727,518.275909 453.732909,508.925182 C451.499364,500.364455 437.458909,416.488 433.465818,398.634 C433.465818,398.634 433.465818,398.634 433.465818,398.634 C431.375909,399.072091 426.671818,398.705818 420.624727,397.786545 C401.607273,413.737364 405.679364,488.679636 407.065455,492.320818 C408.688545,496.629909 475.091636,592.866273 480.779636,597.319017 C486.453273,597.333364 498.418182,588.392 497.635364,583.106182 Z" id="Path" fill="#F85866" fill-rule="nonzero" class="uajBKTyG_1"></path>
                <path d="M431.059909,398.835091 C417.543727,398.835091 369.978545,387.760727 363.285091,381.096 C364.003273,395.545818 373.842364,477.612455 375.142273,489.297273 C376.535545,501.843909 398.045091,603.114727 399.948273,605.642727 C401.851455,608.170727 416.33,607.624909 418.829273,606.360909 C421.328545,605.096909 413.945636,500.788182 413.945636,493.225727 C413.945636,486.029545 431.627273,422.226273 431.059909,398.835091 Z" id="Path" fill="#F85866" fill-rule="nonzero" class="uajBKTyG_2"></path>
                <path d="M363.967364,178.367636 L361.669182,178.058818 C362.133895,179.501321 362.458576,180.985235 362.638727,182.49 C362.846622,181.050938 363.295804,179.65726 363.967364,178.367636 Z" id="Path" fill="#F1F1F1" fill-rule="nonzero" class="uajBKTyG_3"></path>
                <path d="M421.615818,186.253273 L370.890636,179.315636 C370.314251,184.001929 368.527162,188.457277 365.705364,192.242909 C365.913636,197.729818 372.887182,252.074636 374.014727,255.220273 C374.876545,257.647727 382.690364,270.424182 386.223818,277.002727 C386.969024,276.891912 387.726521,276.891912 388.471727,277.002727 C390.001455,277.246909 393.355364,282.633273 396.465091,289.793545 C398.489531,288.417014 400.759341,287.441801 403.151364,286.920818 L403.151364,268.966273 C394.382364,265.662636 387.947455,254.846818 387.947455,241.998545 C387.921913,237.406895 388.78524,232.853695 390.489818,228.590091 C390.16808,227.234766 390.00658,225.846352 390.008636,224.453364 C390.008636,215.878273 399.151091,210.003545 414.922364,210.003545 C416.573381,209.996568 418.220343,210.167524 419.834727,210.513455 C421.105909,203.195182 422.413,195.704545 422.865455,193.801364 C423.914,189.319909 420.718091,186.490273 421.615818,186.253273 Z" id="Path" fill="#F1F1F1" fill-rule="nonzero" class="uajBKTyG_4"></path>
                <path d="M414.469909,503.976909 C414.469909,504.300091 414.469909,504.623273 414.527364,504.960818 L414.900818,504.623273 L414.469909,503.976909 Z" id="Path" fill="#F1F1F1" fill-rule="nonzero" class="uajBKTyG_5"></path>
                <path id="Rectangle" stroke="#000000" stroke-width="2.5" stroke-linecap="round" stroke-linejoin="round" width="12.5466364" height="14.8591818" d="M 427.091545,172.090727 L 427.6381814,172.090727 A 6,6,0,0,1,433.6381814,178.090727 L 433.6381814,180.94990879999997 A 6,6,0,0,1,427.6381814,186.94990879999997 L 427.091545,186.94990879999997 A 6,6,0,0,1,421.091545,180.94990879999997 L 421.091545,178.090727 A 6,6,0,0,1,427.091545,172.090727" class="uajBKTyG_6"></path>
                <path id="Path" stroke="#000000" stroke-width="2.5" stroke-linecap="round" stroke-linejoin="round" d="M403.158545,286.863364L403.158545,268.916" class="uajBKTyG_7"></path>
                <path id="Rectangle" stroke="#000000" stroke-width="2.5" stroke-linecap="round" stroke-linejoin="round" width="272.600273" height="272.600273" d="M 90.2057273,86.9718182 L 318.80600030000005,86.9718182 A 22,22,0,0,1,340.80600030000005,108.9718182 L 340.80600030000005,337.57209120000005 A 22,22,0,0,1,318.80600030000005,359.57209120000005 L 90.2057273,359.57209120000005 A 22,22,0,0,1,68.2057273,337.57209120000005 L 68.2057273,108.9718182 A 22,22,0,0,1,90.2057273,86.9718182" class="uajBKTyG_8"></path>
                <path d="M221.544727,211.181364 C229.200019,204.156479 231.759327,193.153457 227.990119,183.471228 C224.22091,173.788999 214.895882,167.412447 204.505864,167.412447 C194.115845,167.412447 184.790817,173.788999 181.021609,183.471228 C177.2524,193.153457 179.811708,204.156479 187.467,211.181364 L168.054545,289.901273 L240.935636,289.901273 L221.544727,211.181364 Z" id="Path" fill="#000000" fill-rule="nonzero" opacity="0.08" class="uajBKTyG_9"></path>
                <path d="M116.991818,86.9718182 C117.426864,38.9484528 156.480528,0.246976153 204.505864,0.246976153 C252.531199,0.246976153 291.584863,38.9484528 292.019909,86.9718182" id="Path" stroke="#000000" stroke-width="2.5" stroke-linecap="round" stroke-linejoin="round" class="uajBKTyG_10"></path>
                <path id="Oval" stroke="#000000" stroke-width="2.5" stroke-linecap="round" stroke-linejoin="round" d="M387.9546363,241.948273A20.8272727,28.0090909 0,1,1 429.60918169999997,241.948273A20.8272727,28.0090909 0,1,1 387.9546363,241.948273" class="uajBKTyG_11"></path>
                <path d="M376.894636,316 C366.330182,338.048182 360.038909,366.617455 362.531,379.918182 C363.809364,386.784 424.237182,400.637727 433.473,398.698636 C436.755091,394.231545 450.149182,286.619182 405.966636,286.619182 C402.564893,286.718928 399.268804,287.823455 396.493818,289.793545" id="Path" stroke="#000000" stroke-width="2.5" stroke-linecap="round" stroke-linejoin="round" class="uajBKTyG_12"></path>
                <path d="M401.944818,322.463636 C407.438909,310.168364 392.292455,277.613182 388.478909,276.995545 C380.701,275.738727 361.360364,290.641 361.970818,296.903545 C362.186273,299.129909 373.856727,315.116636 384.952636,322.815545" id="Path" stroke="#000000" stroke-width="2.5" stroke-linecap="round" stroke-linejoin="round" class="uajBKTyG_13"></path>
                <path d="M358.849959,170.239607 L506.982469,190.478316 C509.819355,181.946402 518.408215,176.368995 527.641,177.627909 C532.650783,178.311006 537.183886,180.956621 540.242725,184.982543 C543.301563,189.008465 544.635475,194.084782 543.950909,199.094364 C542.525747,209.52356 532.916392,216.823131 522.487056,215.398988 C513.351153,214.151465 506.616133,206.623624 506.042705,197.765158 L370.868295,179.296765 C371.300649,176.014818 370.987041,173.649182 370.330455,173.649182 C369.236533,173.649182 365.907013,174.626724 363.928647,178.347393 L361.638331,178.036053 C360.946218,175.648044 359.948779,172.788902 358.849959,170.239607 Z M513.855304,189.963551 C513.596321,190.40677 513.365944,190.860977 513.164022,191.323696 L520.839103,192.37173 L519.844541,199.651102 L512.254133,198.614212 C512.589783,200.659975 513.416818,202.636317 514.724067,204.358163 C517.898267,208.539067 523.278569,210.395989 528.35582,209.062937 C533.433071,207.729884 537.20723,203.469421 537.918182,198.268455 C538.888661,191.168922 533.921471,184.626377 526.822273,183.653455 C521.621551,182.940712 516.503632,185.431237 513.855304,189.963551 Z M266.018389,157.556248 L349.12849,168.911708 C347.733955,171.057529 346.604562,173.595018 346.266965,175.936181 L309.921272,170.969248 L308.901234,178.440248 L308.898272,178.439248 L307.038924,192.053875 L298.656617,190.908622 L300.516272,177.294248 L294.593272,176.485248 L292.733867,190.099323 L284.35156,188.95407 L286.211272,175.339248 L279.584272,174.434248 L277.724678,188.045414 L262.141272,185.916294 L265.021903,164.832443 L265.023272,164.832248 L266.018389,157.556248 Z" id="Combined-Shape" fill="#000000" fill-rule="nonzero" class="uajBKTyG_14"></path>
                <path d="M434.313273,227.850364 C433.717182,224.446182 433.178545,199.776636 434.097818,196.293455 C435.017091,192.810273 437.502,190.267909 438.615182,185.068273 C438.995818,183.28 438.392545,177.089273 437.178818,176.830727 C434.564636,176.270545 434.413818,179.200727 434.069091,181.355273 C432.733273,188.702273 430.011364,187.359273 428.754545,187.186909 C427.497727,187.014545 423.181455,186.267636 421.766636,186.231727 C420.351818,186.195818 423.957091,189.104455 422.858273,193.751091 C421.996455,197.406636 417.945909,221.760182 417.112818,225.746091 C420.136364,225.861 434.313273,227.850364 434.313273,227.850364 Z" id="Path" stroke="#000000" stroke-width="2.5" stroke-linecap="round" stroke-linejoin="round" class="uajBKTyG_15"></path>
                <path id="Path" stroke="#000000" stroke-width="2.5" stroke-linecap="round" stroke-linejoin="round" d="M496.615545,584.966273L512.631,605.283636L493.850545,631.856364L476.154545,632L492.220273,610.626909L483.408182,595.846727Z" class="uajBKTyG_16"></path>
                <path id="Path" stroke="#000000" stroke-width="2.5" stroke-linecap="round" stroke-linejoin="round" d="M417.141545,605.456L418.240364,631.992818L365.655091,631.992818L402.957455,616.121L403.639727,605.456" class="uajBKTyG_17"></path>
                <path d="M364.118182,291.718273 C360.599091,285.685545 354.781818,271.788727 354.063636,268.097273 C353.244909,263.831273 351.190909,200.056727 351.190909,196.279091 C351.190909,192.501455 346.163636,182.999909 346.163636,177.311909 C346.163636,171.623909 351.952182,163.910636 354.896727,163.810091 C358.042364,166.043636 362.408909,179.143273 362.61,182.482818 C363.708818,175.301 368.908455,173.649182 370.330455,173.649182 C371.752455,173.649182 371.565727,184.745091 365.676636,192.214182 C365.884909,197.701091 372.858455,252.045909 373.986,255.191545 C374.847818,257.611818 382.661636,270.388273 386.195091,276.974" id="Path" stroke="#000000" stroke-width="2.5" stroke-linecap="round" stroke-linejoin="round" class="uajBKTyG_18"></path>
                <path d="M441.947545,253.518182 C440.776909,229.818182 433.408364,209.989182 414.929545,209.989182 C399.129545,209.989182 390.015818,215.863909 390.015818,224.439 C390.015818,233.014091 395.474,238.802636 404.379455,242.264273 C405.989322,240.19958 408.815792,239.527472 411.182723,240.646521 C413.549654,241.765569 414.82397,244.376465 414.249983,246.930906 C413.675995,249.485347 411.407226,251.300105 408.789091,251.299 C408.548652,251.29657 408.308676,251.277372 408.070909,251.241545 C408.645455,257.432273 409.801727,259.270818 409.801727,265.346636 C409.801727,282.741 406.835636,274.043818 406.835636,304.078182 C406.835636,322.190727 414.419636,332.044182 428.381091,332.044182 C445.265545,332.044182 454.953818,314.183 454.953818,304.559364 C454.896364,292.3 442.816545,271.099273 441.947545,253.518182 Z" id="Path" fill="#F85866" fill-rule="nonzero" class="uajBKTyG_19"></path>
                <path d="M403.618182,243.463636 C404.506992,241.343787 406.600613,239.982053 408.898772,240.029031 C411.196931,240.076009 413.233154,241.522165 414.034591,243.676565 C414.836028,245.830966 414.240006,248.256317 412.531286,249.793854 C410.822567,251.331391 408.347982,251.669029 406.289818,250.645455" id="Path" stroke="#000000" stroke-width="2.5" stroke-linecap="round" stroke-linejoin="round" class="uajBKTyG_20"></path>
            </g>
        </g>
    </g>
<style data-made-with="vivus-instant">.uajBKTyG_0{stroke-dasharray:1708 1710;stroke-dashoffset:1709;animation:uajBKTyG_draw 1800ms ease-out 0ms forwards;}.uajBKTyG_1{stroke-dasharray:461 463;stroke-dashoffset:462;animation:uajBKTyG_draw 1800ms ease-out 10ms forwards;}.uajBKTyG_2{stroke-dasharray:528 530;stroke-dashoffset:529;animation:uajBKTyG_draw 1800ms ease-out 20ms forwards;}.uajBKTyG_3{stroke-dasharray:12 14;stroke-dashoffset:13;animation:uajBKTyG_draw 1800ms ease-out 30ms forwards;}.uajBKTyG_4{stroke-dasharray:310 312;stroke-dashoffset:311;animation:uajBKTyG_draw 1800ms ease-out 40ms forwards;}.uajBKTyG_5{stroke-dasharray:3 5;stroke-dashoffset:4;animation:uajBKTyG_draw 1800ms ease-out 50ms forwards;}.uajBKTyG_6{stroke-dasharray:45 47;stroke-dashoffset:46;animation:uajBKTyG_draw 1800ms ease-out 60ms forwards;}.uajBKTyG_7{stroke-dasharray:18 20;stroke-dashoffset:19;animation:uajBKTyG_draw 1800ms ease-out 70ms forwards;}.uajBKTyG_8{stroke-dasharray:1053 1055;stroke-dashoffset:1054;animation:uajBKTyG_draw 1800ms ease-out 80ms forwards;}.uajBKTyG_9{stroke-dasharray:356 358;stroke-dashoffset:357;animation:uajBKTyG_draw 1800ms ease-out 90ms forwards;}.uajBKTyG_10{stroke-dasharray:274 276;stroke-dashoffset:275;animation:uajBKTyG_draw 1800ms ease-out 100ms forwards;}.uajBKTyG_11{stroke-dasharray:155 157;stroke-dashoffset:156;animation:uajBKTyG_draw 1800ms ease-out 110ms forwards;}.uajBKTyG_12{stroke-dasharray:279 281;stroke-dashoffset:280;animation:uajBKTyG_draw 1800ms ease-out 120ms forwards;}.uajBKTyG_13{stroke-dasharray:120 122;stroke-dashoffset:121;animation:uajBKTyG_draw 1800ms ease-out 130ms forwards;}.uajBKTyG_14{stroke-dasharray:799 801;stroke-dashoffset:800;animation:uajBKTyG_draw 1800ms ease-out 140ms forwards;}.uajBKTyG_15{stroke-dasharray:133 135;stroke-dashoffset:134;animation:uajBKTyG_draw 1800ms ease-out 150ms forwards;}.uajBKTyG_16{stroke-dasharray:138 140;stroke-dashoffset:139;animation:uajBKTyG_draw 1800ms ease-out 160ms forwards;}.uajBKTyG_17{stroke-dasharray:131 133;stroke-dashoffset:132;animation:uajBKTyG_draw 1800ms ease-out 170ms forwards;}.uajBKTyG_18{stroke-dasharray:276 278;stroke-dashoffset:277;animation:uajBKTyG_draw 1800ms ease-out 180ms forwards;}.uajBKTyG_19{stroke-dasharray:325 327;stroke-dashoffset:326;animation:uajBKTyG_draw 1800ms ease-out 190ms forwards;}.uajBKTyG_20{stroke-dasharray:27 29;stroke-dashoffset:28;animation:uajBKTyG_draw 1800ms ease-out 200ms forwards;}@keyframes uajBKTyG_draw{100%{stroke-dashoffset:0;}}@keyframes uajBKTyG_fade{0%{stroke-opacity:1;}93.54838709677419%{stroke-opacity:1;}100%{stroke-opacity:0;}}</style></svg>